#N canvas 0 61 1863 906 12;
#X obj 124 75 vs.scope~;
#X obj 124 32 osc~ 440;
#X obj 330 75 vs.scope~;
#X obj 330 32 noise~;
#X obj 124 255 vs.scope~;
#X obj 124 212 vs.blsquare~ 440;
#X obj 329 255 vs.scope~;
#X obj 329 212 vs.bltri~ 440;
#X obj 534 255 vs.scope~;
#X obj 539 218 *~ 0.5;
#X obj 539 166 vs.blsaw~ 440;
#X obj 548 188 vs.blsaw~ 440.1;
#X connect 1 0 0 0;
#X connect 3 0 2 0;
#X connect 5 0 4 0;
#X connect 7 0 6 0;
#X connect 9 0 8 0;
#X connect 10 0 9 0;
#X connect 11 0 9 0;
