#N canvas 137 29 1772 944 12;
#X obj 9 10 cnv 15 220 70 empty empty empty 20 12 0 14 #bcbcbc #404040
0;
#N canvas 733 382 454 354 gemwin 0;
#X obj 132 136 gemwin;
#X obj 67 89 outlet;
#X obj 67 10 inlet;
#X obj 67 41 route create;
#X msg 67 70 set destroy;
#X msg 182 68 set create;
#X msg 132 112 create \, 1;
#X msg 238 112 destroy;
#N canvas 87 154 247 179 Gem.init 0;
#X obj 59 26 loadbang;
#X msg 118 81 reset;
#X obj 118 113 outlet;
#X obj 59 45 t b b;
#X msg 51 75 lighting 1;
#X connect 0 0 3 0;
#X connect 1 0 2 0;
#X connect 3 0 4 0;
#X connect 3 1 1 0;
#X connect 4 0 2 0;
#X restore 289 80 pd Gem.init;
#X connect 2 0 3 0;
#X connect 3 0 4 0;
#X connect 3 0 6 0;
#X connect 3 1 5 0;
#X connect 3 1 7 0;
#X connect 4 0 1 0;
#X connect 5 0 1 0;
#X connect 6 0 0 0;
#X connect 7 0 0 0;
#X connect 8 0 0 0;
#X restore 14 54 pd gemwin;
#X msg 14 30 destroy;
#X text 10 10 Create window and render;
#X obj 10 142 world_light;
#X obj 460 200 circle 0.02;
#X obj 460 140 color 1 0 0;
#X obj 550 140 color 1 1 1;
#X obj 420 250 color 0 0 0;
#X obj 420 340 rotateXYZ 0 0 0;
#X obj 632 389 f;
#X obj 697 438 % 360;
#X obj 610 290 metro 50;
#X obj 610 262 tgl 15 0 empty empty empty 17 7 0 10 #fcfcfc #000000
#000000 0 1;
#X floatatom 632 418 5 0 0 0 - - -, f 5;
#X obj 697 409 + 6;
#X obj 200 500 color 0 1 0;
#X obj 600 480 / 360;
#X obj 600 599 * 6.2856;
#X floatatom 600 657 0 0 0 0 - - -;
#X obj 420 89 t a a a a;
#X obj 420 60 gemhead 50;
#X obj 200 180 gemhead 60;
#X text 800 620 0 90 180;
#X obj 600 628 cos;
#X obj 370 650 sin;
#X floatatom 370 679 5 0 0 0 - - -, f 5;
#X obj 550 200 circle 2;
#X obj 370 707 * 1;
#X obj 420 440 rectangle 1 0.01;
#X obj 420 380 translateXYZ 1 0 0;
#X obj 600 686 * 2;
#X obj 10 100 gemhead 1;
#X obj 200 680 rectangle 0.02 0.5;
#X obj 370 736 abs;
#X obj 1100 70 gemhead 80;
#X obj 1100 100 color 1 1 1;
#X obj 1100 190 rectangle 4 2;
#X obj 200 530 translateXYZ -1 0 0;
#X obj 600 715 - 3;
#X obj 550 170 translateXYZ -3 0 0;
#X obj 1000 450 gemhead 90;
#X obj 1000 480 color 1 0 0;
#X obj 1000 610 circle 0.1;
#X obj 1000 580 translateXYZ 0 0 0;
#X obj 742 669 * 2;
#X obj 790 520 * 7;
#X obj 1100 130 translateXYZ 3 0 0;
#X obj 688 272 t b;
#X obj 1290 320 gemhead 50;
#X obj 1290 349 translateXYZ 0 0 0;
#X obj 1431 432 metro 100;
#X obj 1430 380 tgl 15 0 empty empty empty 17 7 0 10 #fcfcfc #000000
#000000 0 1;
#X obj 1431 461 f;
#X obj 1520 500 + 1;
#X obj 1520 529 % 10;
#X obj 1431 490 / 10;
#X floatatom 1431 519 5 0 0 0 - - -, f 5;
#X obj 1210 490 gemlist;
#X obj 1210 468 until;
#X msg 1210 444 100;
#X obj 1210 422 t b a;
#X obj 1210 549 separator;
#X obj 1290 378 t a b;
#X obj 1250 611 f;
#X obj 1430 600 + 1;
#X obj 1210 578 t a b;
#X obj 1290 290 tgl 15 0 empty empty empty 17 7 0 10 #fcfcfc #000000
#000000 0 1;
#X obj 1260 820 circle 0.02;
#X obj 1430 629 % 100;
#X obj 1210 750 translateXYZ 0 0 0;
#X obj 1250 640 * 0.01;
#X obj 1320 660 * 6.2856;
#X obj 1320 689 sin;
#X obj 1320 718 * 2;
#X obj 1080 660 color 0.25 0.25 0.25;
#X obj 1210 780 translateXYZ 0 0 0;
#X obj 1250 690 * 7;
#X connect 1 0 2 0;
#X connect 2 0 1 0;
#X connect 6 0 5 0;
#X connect 7 0 40 0;
#X connect 8 0 9 0;
#X connect 9 0 30 0;
#X connect 10 0 14 0;
#X connect 11 0 10 1;
#X connect 13 0 12 0;
#X connect 14 0 9 3;
#X connect 14 0 17 0;
#X connect 14 0 15 0;
#X connect 15 0 11 0;
#X connect 16 0 38 0;
#X connect 17 0 18 0;
#X connect 17 0 46 0;
#X connect 18 0 24 0;
#X connect 18 0 25 0;
#X connect 19 0 31 0;
#X connect 20 0 8 0;
#X connect 20 2 6 0;
#X connect 20 3 7 0;
#X connect 21 0 20 0;
#X connect 21 0 48 0;
#X connect 22 0 16 0;
#X connect 24 0 19 0;
#X connect 25 0 26 0;
#X connect 26 0 28 0;
#X connect 26 0 45 0;
#X connect 28 0 34 0;
#X connect 28 0 38 2;
#X connect 30 0 29 0;
#X connect 31 0 39 0;
#X connect 32 0 4 0;
#X connect 34 0 33 2;
#X connect 35 0 36 0;
#X connect 36 0 47 0;
#X connect 38 0 33 0;
#X connect 39 0 38 1;
#X connect 40 0 27 0;
#X connect 41 0 42 0;
#X connect 42 0 44 0;
#X connect 44 0 43 0;
#X connect 45 0 44 2;
#X connect 46 0 44 1;
#X connect 48 0 10 0;
#X connect 49 0 50 0;
#X connect 50 0 63 0;
#X connect 51 0 53 0;
#X connect 52 0 51 0;
#X connect 53 0 54 0;
#X connect 53 0 56 0;
#X connect 54 0 55 0;
#X connect 55 0 53 1;
#X connect 56 0 57 0;
#X connect 57 0 50 1;
#X connect 57 0 50 2;
#X connect 58 0 62 0;
#X connect 59 0 58 0;
#X connect 60 0 59 0;
#X connect 61 0 60 0;
#X connect 61 1 58 1;
#X connect 62 0 66 0;
#X connect 63 0 61 0;
#X connect 64 0 65 0;
#X connect 64 0 71 0;
#X connect 65 0 69 0;
#X connect 66 0 75 0;
#X connect 66 1 64 0;
#X connect 67 0 49 0;
#X connect 69 0 64 1;
#X connect 70 0 76 0;
#X connect 71 0 72 0;
#X connect 71 0 77 0;
#X connect 72 0 73 0;
#X connect 73 0 74 0;
#X connect 74 0 70 2;
#X connect 75 0 70 0;
#X connect 76 0 68 0;
#X connect 77 0 70 1;
