#N canvas 621 251 1259 653 12;
#X obj 19 20 cnv 15 220 70 empty empty empty 20 12 0 14 #bcbcbc #404040
0;
#N canvas 733 382 454 354 gemwin 0;
#X obj 132 136 gemwin;
#X obj 67 89 outlet;
#X obj 67 10 inlet;
#X obj 67 41 route create;
#X msg 67 70 set destroy;
#X msg 182 68 set create;
#X msg 132 112 create \, 1;
#X msg 238 112 destroy;
#N canvas 87 154 247 179 Gem.init 0;
#X obj 59 26 loadbang;
#X msg 118 81 reset;
#X obj 118 113 outlet;
#X obj 59 45 t b b;
#X msg 51 75 lighting 1;
#X connect 0 0 3 0;
#X connect 1 0 2 0;
#X connect 3 0 4 0;
#X connect 3 1 1 0;
#X connect 4 0 2 0;
#X restore 289 80 pd Gem.init;
#X connect 2 0 3 0;
#X connect 3 0 4 0;
#X connect 3 0 6 0;
#X connect 3 1 5 0;
#X connect 3 1 7 0;
#X connect 4 0 1 0;
#X connect 5 0 1 0;
#X connect 6 0 0 0;
#X connect 7 0 0 0;
#X connect 8 0 0 0;
#X restore 24 64 pd gemwin;
#X msg 24 40 destroy;
#X text 20 20 Create window and render;
#X obj 20 152 world_light;
#X obj 20 110 gemhead 1;
#X obj 300 120 gemhead 50;
#X obj 300 149 translateXYZ 0 0 0;
#X obj 441 232 metro 100;
#X obj 440 180 tgl 15 0 empty empty empty 17 7 0 10 #fcfcfc #000000
#000000 0 1;
#X obj 441 261 f;
#X obj 530 300 + 1;
#X obj 530 329 % 10;
#X obj 441 290 / 10;
#X floatatom 441 319 5 0 0 0 - - -, f 5;
#X obj 220 290 gemlist;
#X obj 220 268 until;
#X msg 220 244 100;
#X obj 220 222 t b a;
#X obj 220 349 separator;
#X obj 300 178 t a b;
#X obj 260 411 f;
#X obj 440 400 + 1;
#X obj 220 378 t a b;
#X obj 300 90 tgl 15 0 empty empty empty 17 7 0 10 #fcfcfc #000000
#000000 1 1;
#X obj 930 440 random 200;
#X obj 930 462 - 100;
#X obj 930 483 / 30;
#X obj 270 620 circle 0.02;
#X obj 440 429 % 100;
#X obj 220 550 translateXYZ 0 0 0;
#X obj 220 580 translateXYZ -5 0 0;
#X obj 260 440 * 0.01;
#X obj 260 490 * 10;
#X obj 330 460 * 6.2856;
#X obj 330 489 sin;
#X obj 330 518 * 2;
#X obj 90 460 color 0.25 0.25 0.25;
#X connect 1 0 2 0;
#X connect 2 0 1 0;
#X connect 5 0 4 0;
#X connect 6 0 7 0;
#X connect 7 0 20 0;
#X connect 8 0 10 0;
#X connect 9 0 8 0;
#X connect 10 0 11 0;
#X connect 10 0 13 0;
#X connect 11 0 12 0;
#X connect 12 0 10 1;
#X connect 13 0 14 0;
#X connect 14 0 7 1;
#X connect 14 0 7 2;
#X connect 15 0 19 0;
#X connect 16 0 15 0;
#X connect 17 0 16 0;
#X connect 18 0 17 0;
#X connect 18 1 15 1;
#X connect 19 0 23 0;
#X connect 20 0 18 0;
#X connect 21 0 22 0;
#X connect 21 0 32 0;
#X connect 22 0 29 0;
#X connect 23 0 37 0;
#X connect 23 1 21 0;
#X connect 24 0 6 0;
#X connect 25 0 26 0;
#X connect 26 0 27 0;
#X connect 29 0 21 1;
#X connect 30 0 31 0;
#X connect 31 0 28 0;
#X connect 32 0 33 0;
#X connect 32 0 34 0;
#X connect 33 0 30 1;
#X connect 34 0 35 0;
#X connect 35 0 36 0;
#X connect 36 0 30 2;
#X connect 37 0 30 0;
