#N canvas 299 49 1519 941 12;
#X obj 520 100 openpanel;
#X obj 520 80 bng 15 250 50 0 empty empty empty 17 7 0 10 #fcfcfc #000000
#000000;
#X obj 520 160 soundfiler;
#N canvas 0 0 450 300 (subpatch) 0;
#X array array 24353 float 0 black black;
#X coords 0 1 24352 -1 200 140 1;
#X restore 700 30 graph;
#X obj 400 680 tabplay~ array;
#X obj 570 260 tgl 15 0 empty empty empty 17 7 0 10 #fcfcfc #000000
#000000 1 1;
#X obj 670 450 counter 0 255;
#X obj 570 380 t f f, f 14;
#X obj 570 350 counter 1 8;
#X obj 500 500 zl nth;
#X obj 500 460 zl reg;
#X obj 570 410 t b f;
#X obj 670 410 sel 1;
#X floatatom 670 480 5 0 0 0 - - -, f 5;
#N canvas 0 0 450 300 (subpatch) 0;
#X array hit 24607 float 0 black black;
#X coords 0 1 24606 -1 200 140 1;
#X restore 910 30 graph;
#X obj 400 650 sel 1 0;
#X obj 520 680 tabplay~ hit;
#X msg 710 300 0;
#X obj 570 280 metro 150;
#X floatatom 660 230 5 0 0 0 - - -, f 5;
#X floatatom 181 195 5 0 0 0 - - -, f 5;
#X floatatom 171 315 5 0 0 0 - - -, f 5;
#N canvas 48 380 953 536 dec2bin 0;
#X floatatom 330 90 5 0 0 0 - - -, f 5;
#X obj 200 310 div 2;
#X obj 340 310 % 2;
#X obj 380 380 zl group 8;
#X obj 380 410 zl rev;
#X msg 240 120 8;
#X obj 240 150 until;
#X obj 270 269 t f f, f 7;
#X obj 270 200 f;
#X obj 330 169 t f b;
#X obj 330 119 t b f;
#X obj 330 40 inlet;
#X obj 380 440 outlet;
#X connect 0 0 10 0;
#X connect 1 0 8 1;
#X connect 2 0 3 0;
#X connect 3 0 4 0;
#X connect 4 0 12 0;
#X connect 5 0 6 0;
#X connect 6 0 8 0;
#X connect 7 0 1 0;
#X connect 7 1 2 0;
#X connect 8 0 7 0;
#X connect 9 0 8 1;
#X connect 10 0 5 0;
#X connect 10 1 9 0;
#X connect 11 0 0 0;
#X restore 460 400 pd dec2bin;
#X obj 170 240 << 1;
#X obj 170 270 & 255;
#X obj 670 510 << 1;
#X obj 670 540 & 255;
#N canvas 48 380 953 536 dec2bin 0;
#X floatatom 330 90 5 0 0 0 - - -, f 5;
#X obj 200 310 div 2;
#X obj 340 310 % 2;
#X obj 380 380 zl group 8;
#X obj 380 410 zl rev;
#X msg 240 120 8;
#X obj 240 150 until;
#X obj 270 269 t f f, f 7;
#X obj 270 200 f;
#X obj 330 169 t f b;
#X obj 330 119 t b f;
#X obj 330 40 inlet;
#X obj 380 440 outlet;
#X connect 0 0 10 0;
#X connect 1 0 8 1;
#X connect 2 0 3 0;
#X connect 3 0 4 0;
#X connect 4 0 12 0;
#X connect 5 0 6 0;
#X connect 6 0 8 0;
#X connect 7 0 1 0;
#X connect 7 1 2 0;
#X connect 8 0 7 0;
#X connect 9 0 8 1;
#X connect 10 0 5 0;
#X connect 10 1 9 0;
#X connect 11 0 0 0;
#X restore 670 630 pd dec2bin;
#X obj 670 700 zl nth;
#X obj 670 670 zl reg;
#X obj 670 730 sel 1;
#X obj 760 580 print;
#N canvas 0 0 450 300 (subpatch) 0;
#X array snare 88200 float 0 black black;
#X coords 0 1 88199 -1 200 140 1;
#X restore 910 200 graph;
#X msg 520 130 read -resize \$1 snare;
#X obj 280 680 tabplay~ snare;
#X msg 780 360 100;
#X floatatom 1100 401 5 0 0 0 - - -, f 5;
#X obj 1100 460 print;
#X obj 1100 430 spell;
#X obj 780 290 metro 160;
#N canvas 48 380 953 536 dec2bin 0;
#X floatatom 330 90 5 0 0 0 - - -, f 5;
#X obj 200 310 div 2;
#X obj 340 310 % 2;
#X obj 380 380 zl group 8;
#X obj 380 410 zl rev;
#X msg 240 120 8;
#X obj 240 150 until;
#X obj 270 269 t f f, f 7;
#X obj 270 200 f;
#X obj 330 169 t f b;
#X obj 330 119 t b f;
#X obj 330 40 inlet;
#X obj 380 440 outlet;
#X connect 0 0 10 0;
#X connect 1 0 8 1;
#X connect 2 0 3 0;
#X connect 3 0 4 0;
#X connect 4 0 12 0;
#X connect 5 0 6 0;
#X connect 6 0 8 0;
#X connect 7 0 1 0;
#X connect 7 1 2 0;
#X connect 8 0 7 0;
#X connect 9 0 8 1;
#X connect 10 0 5 0;
#X connect 10 1 9 0;
#X connect 11 0 0 0;
#X restore 930 580 pd dec2bin;
#X obj 900 670 zl nth;
#X obj 900 640 zl reg;
#X obj 900 700 sel 1;
#X obj 840 440 t b f;
#X obj 840 380 counter 1 8;
#X obj 670 330 + 1;
#X floatatom 1020 460 5 0 0 0 - - -, f 5;
#X obj 280 710 *~ 0.8;
#X obj 1020 550 & 255;
#X obj 410 720 *~ 0.33;
#X obj 410 750 dac~;
#X obj 1020 520 << 5;
#X obj 840 560 spigot;
#X obj 960 420 > 32;
#X connect 0 0 33 0;
#X connect 1 0 0 0;
#X connect 4 0 50 0;
#X connect 5 0 18 0;
#X connect 5 0 39 0;
#X connect 6 0 13 0;
#X connect 6 0 22 0;
#X connect 6 0 52 0;
#X connect 6 0 54 0;
#X connect 7 0 11 0;
#X connect 7 1 12 0;
#X connect 8 0 7 0;
#X connect 9 0 15 0;
#X connect 10 0 9 0;
#X connect 11 0 10 0;
#X connect 11 0 29 0;
#X connect 11 1 9 1;
#X connect 11 1 28 1;
#X connect 12 0 6 0;
#X connect 13 0 25 0;
#X connect 15 0 4 0;
#X connect 16 0 50 0;
#X connect 17 0 6 2;
#X connect 17 0 46 0;
#X connect 18 0 8 0;
#X connect 18 0 45 0;
#X connect 19 0 18 1;
#X connect 20 0 23 0;
#X connect 22 0 10 1;
#X connect 23 0 24 0;
#X connect 24 0 21 0;
#X connect 25 0 26 0;
#X connect 26 0 27 0;
#X connect 27 0 29 1;
#X connect 28 0 30 0;
#X connect 29 0 28 0;
#X connect 30 0 16 0;
#X connect 33 0 2 0;
#X connect 34 0 48 0;
#X connect 35 0 6 2;
#X connect 36 0 38 0;
#X connect 38 0 37 0;
#X connect 40 0 42 1;
#X connect 41 0 43 0;
#X connect 42 0 41 0;
#X connect 43 0 34 0;
#X connect 44 0 53 0;
#X connect 44 1 41 1;
#X connect 45 0 44 0;
#X connect 46 0 8 2;
#X connect 46 0 45 2;
#X connect 47 0 52 0;
#X connect 48 0 50 0;
#X connect 49 0 40 0;
#X connect 50 0 51 0;
#X connect 50 0 51 1;
#X connect 52 0 49 0;
#X connect 53 0 42 0;
#X connect 54 0 53 1;
