#N canvas 609 147 1217 808 12;
#N canvas 0 0 450 300 (subpatch) 0;
#X array \$0-wave1 512 float 0 black black;
#X coords 0 1 511 -1 600 140 1;
#X restore 100 20 graph;
#N canvas 0 0 450 300 (subpatch) 0;
#X array \$0-wave2 512 float 0 black black;
#X coords 0 1 511 -1 600 140 1;
#X restore 100 170 graph;
#X obj 940 141 osc~ 440;
#X obj 940 331 osc~ 440;
#X obj 940 360 tabwrite~ \$0-wave2;
#X obj 940 181 tabwrite~ \$0-wave1;
#X obj 1140 151 bang;
#X obj 1140 81 bng 15 250 50 0 empty empty empty 17 7 0 10 #fcfcfc
#000000 #000000;
#X floatatom 920 101 5 0 0 0 - - -, f 5;
#X floatatom 1050 41 5 0 0 0 - - -, f 5;
#X msg 990 81 0;
#N canvas 0 0 450 300 (subpatch) 0;
#X array \$0-wavesum 512 float 0 black black;
#X coords 0 1 511 -1 600 140 1;
#X restore 100 400 graph;
#X obj 860 500 tabwrite~ \$0-wavesum;
#X obj 860 450 *~ 1;
#X connect 2 0 5 0;
#X connect 2 0 13 0;
#X connect 3 0 4 0;
#X connect 3 0 13 0;
#X connect 6 0 5 0;
#X connect 6 0 4 0;
#X connect 6 0 12 0;
#X connect 7 0 6 0;
#X connect 8 0 2 0;
#X connect 8 0 3 0;
#X connect 8 0 7 0;
#X connect 9 0 3 1;
#X connect 9 0 10 0;
#X connect 9 0 7 0;
#X connect 10 0 2 1;
#X connect 13 0 12 0;
