#N canvas 1 29 1920 1026 12;
#X obj 100 20 notein, f 14;
#X obj 100 69 mtof;
#X floatatom 100 140 5 0 0 0 - - -, f 5;
#X floatatom 160 70 5 0 0 0 - - -, f 5;
#X obj 160 98 != 0;
#X obj 100 220 osc~;
#X obj 100 409 *~ 0.2;
#X obj 100 480 dac~;
#X msg 300 30 60 100;
#X msg 370 30 60 0;
#X floatatom 50 30 5 0 0 0 - - -, f 5;
#X text 1300 330 262.6;
#X text 1140 380 osc oscilla a 262 hz;
#X text 170 140 0;
#X text 1140 420 osc oscilla a 261 hz;
#X obj 100 360 *~ 1;
#X obj 1200 100 vs.scope~;
#X floatatom 240 70 5 0 0 0 - - -, f 5;
#X obj 180 220 osc~;
#X obj 230 220 osc~;
#X obj 100 280 *~ 1;
#X obj 180 180 * 3;
#X obj 180 280 /~ 3;
#X obj 230 180 * 5;
#X obj 230 280 /~ 5;
#X floatatom 400 100 5 0 0 0 - - -, f 5;
#X obj 400 369 *~ 0.2;
#X obj 400 440 dac~;
#X obj 400 320 *~ 1;
#X obj 400 240 *~ 1;
#X obj 490 151 * 1.001;
#X obj 400 180 vs.square~;
#X obj 490 180 vs.square~;
#X connect 0 0 1 0;
#X connect 0 1 3 0;
#X connect 0 2 17 0;
#X connect 1 0 2 0;
#X connect 2 0 5 0;
#X connect 2 0 21 0;
#X connect 2 0 23 0;
#X connect 3 0 4 0;
#X connect 4 0 15 1;
#X connect 5 0 20 0;
#X connect 6 0 7 0;
#X connect 6 0 7 1;
#X connect 10 0 1 0;
#X connect 18 0 22 0;
#X connect 19 0 24 0;
#X connect 20 0 15 0;
#X connect 21 0 18 0;
#X connect 22 0 15 0;
#X connect 23 0 19 0;
#X connect 24 0 15 0;
#X connect 25 0 30 0;
#X connect 25 0 31 0;
#X connect 26 0 27 0;
#X connect 26 0 27 1;
#X connect 28 0 26 0;
#X connect 29 0 28 0;
#X connect 30 0 32 0;
#X connect 31 0 29 0;
#X connect 32 0 29 0;
