#N canvas 342 279 1366 633 12;
#X obj 98 70 oscparse;
#X obj 98 94 print;
#X floatatom 448 83 0 0 0 0 - - -;
#X msg 314 92 disconnect;
#X obj 448 171 list prepend send;
#X obj 488 142 oscformat foo;
#X msg 486 106 \$1;
#X obj 448 195 list trim;
#X obj 378 260 netsend -b -u;
#X obj 98 46 netreceive -b -u 7000;
#X msg 359 48 connect 10.0.1.75 7000;
#X connect 0 0 1 0;
#X connect 2 0 6 0;
#X connect 3 0 8 0;
#X connect 4 0 7 0;
#X connect 5 0 4 0;
#X connect 6 0 5 0;
#X connect 7 0 8 0;
#X connect 9 0 0 0;
#X connect 10 0 8 0;
