#N canvas 100 106 420 560 10;
#X obj 43 267 vs.biquad~;
#X obj 43 294 vs.spectroscope~ 1 200 100;
#X obj 43 147 noise~;
#X msg 102 103 1.8485 -0.867419 0.00473042 0.00946084 0.00473042;
#X obj 102 125 unpack 0 0 0 0 0;
#X obj 102 147 sig~;
#X obj 125 167 sig~;
#X obj 148 187 sig~;
#X obj 171 207 sig~;
#X obj 195 227 sig~;
#X obj 102 82 loadbang;
#X text 212 142 frequency at 1000 Hz;
#X text 212 127 lowpass filter with cutoff;
#X obj 17 22 vs.dspturn;
#X connect 0 0 1 0;
#X connect 2 0 0 0;
#X connect 3 0 4 0;
#X connect 4 0 5 0;
#X connect 4 1 6 0;
#X connect 4 2 7 0;
#X connect 4 3 8 0;
#X connect 4 4 9 0;
#X connect 5 0 0 1;
#X connect 6 0 0 2;
#X connect 7 0 0 3;
#X connect 8 0 0 4;
#X connect 9 0 0 5;
#X connect 10 0 3 0;
