#N canvas 100 106 420 560 10;
#X obj 115 92 noise~;
#X obj 115 232 vs.gain~;
#X obj 115 344 dac~;
#X obj 158 231 vs.spectroscope~ 1 200 70;
#X floatatom 170 137 5 0 0 0 - - -;
#X floatatom 226 173 5 0 0 0 - - -;
#X text 237 202 default args: 440 1;
#X text 163 93 source (signal);
#X text 207 136 center freq (float);
#X text 264 172 Q (float);
#X obj 11 23 vs.dspturn;
#X obj 115 200 vs.butterbr~ 2000 1;
#X connect 0 0 11 0;
#X connect 1 0 2 0;
#X connect 1 0 2 1;
#X connect 4 0 11 1;
#X connect 5 0 11 2;
#X connect 11 0 1 0;
#X connect 11 0 3 0;
