#N canvas 100 106 420 560 10;
#X obj 115 101 noise~;
#X obj 12 21 vs.dspturn;
#X floatatom 173 135 5 0 0 0 - - -;
#X floatatom 232 163 5 0 0 0 - - -;
#X obj 115 200 vs.butterbp~ 2000 20;
#X text 162 100 source (signal);
#X text 207 134 central freq (float);
#X text 267 162 Q (float);
#X obj 115 230 vs.gain~;
#X obj 115 342 dac~;
#X obj 169 229 vs.spectroscope~ 1 200 70;
#X text 243 201 default args: 440 1;
#X connect 0 0 4 0;
#X connect 2 0 4 1;
#X connect 3 0 4 2;
#X connect 4 0 8 0;
#X connect 4 0 10 0;
#X connect 8 0 9 0;
#X connect 8 0 9 1;
