#N canvas 100 106 420 560 10;
#X obj 115 99 noise~;
#X text 260 201 default args: 440 100;
#X obj 165 232 vs.spectroscope~ 1 200 70;
#X obj 115 233 vs.gain~;
#X obj 115 345 dac~;
#X obj 10 20 vs.dspturn;
#X floatatom 182 137 5 0 0 0 - - -;
#X floatatom 250 171 5 0 0 0 - - -;
#X text 216 136 central freq (float);
#X text 160 100 source (signal);
#X text 285 171 Bandwidth (float);
#X obj 115 200 vs.butterbrbw~ 2000 400;
#X connect 0 0 11 0;
#X connect 3 0 4 0;
#X connect 3 0 4 1;
#X connect 6 0 11 1;
#X connect 7 0 11 2;
#X connect 11 0 2 0;
#X connect 11 0 3 0;
