#N canvas 100 106 420 560 10;
#X obj 10 30 vs.dspturn;
#X obj 115 222 vs.gain~;
#X obj 115 334 dac~;
#X floatatom 115 141 5 0 0 0 - - -;
#X text 149 141 frequency (float/signal);
#X obj 115 200 vs.blsquare~ 400;
#X connect 1 0 2 0;
#X connect 1 0 2 1;
#X connect 3 0 5 0;
#X connect 5 0 1 0;
