#N canvas 100 106 420 560 10;
#X obj 115 144 bng 15 250 50 0 empty empty empty 17 7 0 10 -262144
-1 -1;
#X floatatom 115 252 0 0 0 0 - - -;
#X obj 115 230 vs.between 100 200;
#X floatatom 167 128 5 0 0 2 min - -;
#X floatatom 220 128 5 0 0 2 max - -;
#X msg 295 169 type \$1;
#X obj 295 135 tgl 15 0 empty empty empty 17 7 0 10 -262144 -1 -1 0
1;
#X text 313 128 0: floats;
#X text 313 140 1: ints;
#X msg 295 195 seed 1972;
#X connect 0 0 2 0;
#X connect 2 0 1 0;
#X connect 3 0 2 1;
#X connect 4 0 2 2;
#X connect 5 0 2 0;
#X connect 6 0 5 0;
#X connect 9 0 2 0;
