#N canvas 100 106 420 560 10;
#X obj 115 200 vs.click~;
#X obj 115 222 vs.gain~;
#X obj 115 334 dac~;
#X obj 115 156 bng 15 250 50 0 empty empty empty 17 7 0 10 -262144
-1 -1;
#X obj 16 59 vs.dspturn;
#X obj 154 156 tgl 15 0 empty empty empty 17 7 0 10 -262144 -1 -1 0
1;
#X obj 154 176 metro 100;
#X connect 0 0 1 0;
#X connect 1 0 2 0;
#X connect 1 0 2 1;
#X connect 3 0 0 0;
#X connect 5 0 6 0;
#X connect 6 0 0 0;
