#N canvas 100 106 420 560 10;
#X obj 118 250 vs.change;
#X obj 118 272 print;
#X msg 118 149 1 2 3 4 5;
#X msg 134 171 5 4 3 2 1;
#X msg 150 194 5 4 3;
#X msg 159 220 clear;
#X text 198 221 reset memory;
#X connect 0 0 1 0;
#X connect 2 0 0 0;
#X connect 3 0 0 0;
#X connect 4 0 0 0;
#X connect 5 0 0 0;
