#N canvas 100 106 420 560 10;
#X obj 115 180 vs.curve~;
#X obj 16 45 vs.dspturn;
#X obj 115 222 vs.scope~;
#X text 113 119 0 to 1 in 1 sec with a curve factor 4;
#X obj 308 177 loadbang;
#X obj 308 199 f 7;
#X msg 115 153 0 \, 1 1000 4 0 1000 8;
#X text 113 132 then goes to 0 in 1 sec with a factor 8;
#X connect 0 0 2 0;
#X connect 4 0 5 0;
#X connect 5 0 2 1;
#X connect 6 0 0 0;
