#N canvas 100 106 420 560 10;
#X floatatom 115 252 5 0 0 0 - - -;
#X obj 115 112 bng 15 250 50 0 empty empty empty 17 7 0 10 -262144
-1 -1;
#X obj 253 215 bng 15 250 50 0 empty empty empty 17 7 0 10 -262144
-1 -1;
#X obj 220 255 print;
#X obj 115 230 vs.counter 10 20 0;
#X floatatom 141 135 5 0 0 0 - - -;
#X floatatom 167 161 5 0 0 0 - - -;
#X floatatom 193 191 5 0 0 0 - - -;
#X connect 1 0 4 0;
#X connect 2 0 4 4;
#X connect 4 0 0 0;
#X connect 4 1 3 0;
#X connect 5 0 4 1;
#X connect 6 0 4 2;
#X connect 7 0 4 3;
