#N canvas 100 106 420 560 10;
#X obj 115 200 vs.dbtoa~;
#X obj 13 20 vs.dspturn;
#X obj 115 169 sig~;
#X floatatom 115 143 0 -100 6 0 - - -;
#X obj 115 232 vs.number~;
#X text 156 144 deciBels;
#X text 218 240 amplitude;
#X connect 0 0 4 0;
#X connect 2 0 0 0;
#X connect 3 0 2 0;
