#N canvas 100 106 420 560 10;
#X obj 144 134 vs.delay2~;
#X obj 93 77 noise~;
#X obj 93 109 *~ 0.5;
#X obj 144 109 *~ -5;
#X obj 93 151 +~;
#X obj 93 173 vs.spectroscope~;
#X obj 16 45 vs.dspturn;
#X connect 0 0 4 1;
#X connect 1 0 2 0;
#X connect 1 0 3 0;
#X connect 2 0 4 0;
#X connect 3 0 0 0;
#X connect 4 0 5 0;
