#N canvas 100 106 420 560 10;
#X obj 115 140 vs.delta~;
#X obj 16 43 vs.dspturn;
#X obj 115 241 vs.scope~;
#X obj 115 172 *~ 10000;
#X obj 115 110 osc~ 0.5;
#X connect 0 0 3 0;
#X connect 3 0 2 0;
#X connect 4 0 0 0;
