#N canvas 100 106 420 560 10;
#X msg 105 125 1 2 3 4 5 6 7;
#X obj 105 200 vs.ecils 3;
#X obj 105 238 print a;
#X obj 162 238 print b;
#X floatatom 162 165 5 0 0 0 - - -;
#X text 174 201 default arg: 0;
#X text 198 165 split point (count from right);
#X connect 0 0 1 0;
#X connect 1 0 2 0;
#X connect 1 1 3 0;
#X connect 4 0 1 1;
