#N canvas 100 106 420 560 10;
#X msg 115 149 1 2 3 4 3 5 6;
#X floatatom 178 177 5 0 0 0 - - -;
#X obj 115 222 print;
#X obj 115 200 vs.filter 3;
#X msg 226 176 1 2 3;
#X connect 0 0 3 0;
#X connect 1 0 3 1;
#X connect 3 0 2 0;
#X connect 4 0 3 1;
