#N canvas 100 106 420 560 10;
#X obj 115 90 vs.gate~;
#X obj 160 58 vs.pink~;
#X floatatom 115 31 5 0 0 0 - - -;
#X obj 17 16 vs.dspturn;
#X text 215 59 source;
#N canvas 474 145 359 231 vs.gate3~ 0;
#X obj 68 60 vs.pink~;
#X floatatom 17 13 5 0 0 0 - - -;
#X text 53 13 sel out;
#X text 123 61 source;
#X obj 17 132 vs.scope~ 0 100 70;
#X obj 127 132 vs.scope~ 0 100 70;
#X obj 237 132 vs.scope~ 0 100 70;
#X obj 17 92 vs.gate3~;
#X connect 0 0 7 1;
#X connect 1 0 7 0;
#X connect 7 0 4 0;
#X connect 7 1 5 0;
#X connect 7 2 6 0;
#X restore 157 250 pd vs.gate3~;
#N canvas 474 145 519 223 vs.gate4~ 0;
#X obj 369 65 vs.pink~;
#X floatatom 17 13 5 0 0 0 - - -;
#X text 53 13 sel out;
#X text 424 66 source;
#X obj 17 132 vs.scope~ 0 100 70;
#X obj 127 132 vs.scope~ 0 100 70;
#X obj 237 132 vs.scope~ 0 100 70;
#X obj 347 132 vs.scope~ 0 100 70;
#X obj 17 92 vs.gate4~, f 74;
#X connect 0 0 8 1;
#X connect 1 0 8 0;
#X connect 8 0 4 0;
#X connect 8 1 5 0;
#X connect 8 2 6 0;
#X connect 8 3 7 0;
#X restore 157 270 pd vs.gate4~;
#X obj 115 147 vs.scope~ 0 100 70;
#X obj 225 147 vs.scope~ 0 100 70;
#X text 151 31 sel out (0 or >2 close the outputs);
#N canvas 474 145 691 257 complex 0;
#X obj 288 78 vs.pink~;
#X floatatom 17 53 5 0 0 0 - - -;
#X text 343 79 source;
#X obj 17 172 vs.scope~ 0 100 70;
#X obj 127 172 vs.scope~ 0 100 70;
#X obj 237 172 vs.scope~ 0 100 70;
#X obj 347 172 vs.scope~ 0 100 70;
#X obj 17 123 vs.gate~;
#X obj 237 123 vs.gate3~;
#X obj 457 172 vs.scope~ 0 100 70;
#X text 53 53 sel out (1 to 5);
#X text 208 6 rightmost outlet of [vs.gate~] \, [vs.gate3~];
#X text 208 19 [vs.gate4~] output ad index (float/signal) to drive
another;
#X text 208 32 analogous object.;
#X connect 0 0 8 1;
#X connect 0 0 7 1;
#X connect 1 0 7 0;
#X connect 7 0 3 0;
#X connect 7 1 4 0;
#X connect 7 2 8 0;
#X connect 8 0 5 0;
#X connect 8 1 6 0;
#X connect 8 2 9 0;
#X restore 157 290 pd complex;
#X text 110 11 (float or signal);
#X connect 0 0 7 0;
#X connect 0 1 8 0;
#X connect 1 0 0 1;
#X connect 2 0 0 0;
