#N canvas 100 106 420 560 10;
#X floatatom 115 87 5 0 0 1 - - -;
#X obj 115 222 print;
#X obj 29 150 bng 15 250 50 0 empty empty output 17 7 0 10 -262144
-1 -1;
#X obj 115 200 vs.gseries 10 1 1.5;
#X floatatom 152 120 5 0 0 1 length - -;
#X floatatom 189 143 5 0 0 1 start - -;
#X floatatom 226 164 5 0 0 1 grow - -;
#X text 149 87 length and output;
#X connect 0 0 3 0;
#X connect 2 0 3 0;
#X connect 3 0 1 0;
#X connect 4 0 3 1;
#X connect 5 0 3 2;
#X connect 6 0 3 3;
