#N canvas 100 106 420 560 10;
#X obj 115 220 vs.gain~;
#X obj 115 342 dac~;
#X obj 115 124 osc~ 440;
#X text 171 124 signal;
#X floatatom 126 159 5 0 0 0 - - -;
#X floatatom 138 189 5 0 0 0 - - -;
#X text 176 190 amp value (0-1);
#X text 164 160 db value (-inf \, +6);
#X floatatom 180 327 5 0 0 0 - - -;
#X text 179 342 output db value \,;
#X text 179 355 possibly to drive another [vs.gain~];
#X obj 16 45 vs.dspturn;
#X connect 0 0 1 0;
#X connect 0 0 1 1;
#X connect 0 1 8 0;
#X connect 2 0 0 0;
#X connect 4 0 0 1;
#X connect 5 0 0 2;
