#N canvas 100 106 420 560 10;
#X msg 115 86 1 2 3 4 5;
#X obj 115 232 print;
#X msg 166 154 2;
#X obj 234 185 bng 15 250 50 0 empty empty clear 17 7 0 10 -262144
-1 -1;
#X obj 115 200 vs.insert;
#X msg 140 121 a b;
#X text 121 66 list;
#X text 166 121 atom or list to insert;
#X text 194 155 index;
#X connect 0 0 4 0;
#X connect 2 0 4 2;
#X connect 3 0 4 2;
#X connect 4 0 1 0;
#X connect 5 0 4 1;
