#N canvas 100 106 420 560 10;
#X obj 115 242 vs.gain~;
#X obj 115 354 dac~;
#X obj 115 120 vs.impulse~ 8;
#X floatatom 115 94 5 0 0 0 - - -;
#X obj 16 40 vs.dspturn;
#X obj 161 180 sig~ 2000;
#X obj 115 202 vs.vcf~ 1000;
#X obj 138 151 sig~ 100;
#X connect 0 0 1 0;
#X connect 0 0 1 1;
#X connect 2 0 6 0;
#X connect 3 0 2 0;
#X connect 5 0 6 2;
#X connect 6 0 0 0;
#X connect 7 0 6 1;
