#N canvas 100 106 420 560 10;
#X obj 195 270 vs.scope~ 0 100 70;
#X obj 88 153 osc~ 440;
#X obj 88 270 vs.scope~ 0 100 70;
#X obj 195 200 vs.kscale~ -1 1 0 1;
#X floatatom 222 107 5 0 0 1 inMin - -;
#X floatatom 250 127 5 0 0 1 inMax - -;
#X floatatom 278 147 5 0 0 1 outMin - -;
#X floatatom 306 167 5 0 0 1 outMax - -;
#X obj 16 45 vs.dspturn;
#X connect 1 0 2 0;
#X connect 1 0 3 0;
#X connect 3 0 0 0;
#X connect 4 0 3 1;
#X connect 5 0 3 2;
#X connect 6 0 3 3;
#X connect 7 0 3 4;
