#N canvas 100 106 420 560 10;
#X obj 115 222 vs.spectroscope~ 1 200 100;
#X obj 115 135 noise~;
#X floatatom 164 164 5 0 0 0 - - -;
#X floatatom 213 165 5 0 0 0 - - -;
#X floatatom 262 165 5 0 0 0 - - -;
#X obj 115 200 vs.khighshelf~ 2000 10 24;
#X obj 16 45 vs.dspturn;
#X connect 1 0 5 0;
#X connect 2 0 5 1;
#X connect 3 0 5 2;
#X connect 4 0 5 3;
#X connect 5 0 0 0;
