#N canvas 100 106 420 560 10;
#X obj 165 270 vs.scope~ 0 100 70;
#X obj 58 270 vs.scope~ 0 100 70;
#X floatatom 194 87 5 0 0 1 inMin - -;
#X floatatom 223 107 5 0 0 1 inMax - -;
#X floatatom 253 127 5 0 0 1 outMin - -;
#X floatatom 282 147 5 0 0 1 outMax - -;
#X floatatom 312 167 5 0 0 1 curve - -;
#X obj 58 140 phasor~ 200;
#X obj 165 196 vs.kcurvescale~ 0 1 0 1 8;
#X obj 16 45 vs.dspturn;
#X connect 2 0 8 1;
#X connect 3 0 8 2;
#X connect 4 0 8 3;
#X connect 5 0 8 4;
#X connect 6 0 8 5;
#X connect 7 0 1 0;
#X connect 7 0 8 0;
#X connect 8 0 0 0;
