#N canvas 100 106 420 560 10;
#X obj 115 222 vs.spectroscope~ 1 200 100;
#X obj 115 160 noise~;
#X obj 115 200 vs.khighpass~ 2000 20;
#X floatatom 176 166 5 0 0 2 cutoff - -;
#X floatatom 238 166 5 0 0 2 Q - -;
#X obj 16 45 vs.dspturn;
#X connect 1 0 2 0;
#X connect 2 0 0 0;
#X connect 3 0 2 1;
#X connect 4 0 2 2;
