#N canvas 100 106 420 560 10;
#X obj 115 222 vs.spectroscope~ 1 200 100;
#X obj 115 135 noise~;
#X floatatom 162 164 5 0 0 0 - - -;
#X floatatom 209 165 5 0 0 0 - - -;
#X floatatom 256 165 5 0 0 0 - - -;
#X obj 115 200 vs.kpeaknotch~ 1200 1 24;
#X obj 16 45 vs.dspturn;
#X connect 1 0 5 0;
#X connect 2 0 5 1;
#X connect 3 0 5 2;
#X connect 4 0 5 3;
#X connect 5 0 0 0;
