#N canvas 100 106 420 560 10;
#X obj 115 222 vs.spectroscope~ 1 200 100;
#X obj 115 160 noise~;
#X floatatom 173 166 5 0 0 2 cutoff - -;
#X floatatom 232 166 5 0 0 2 Q - -;
#X obj 115 200 vs.klowpass~ 2000 20;
#X obj 13 10 vs.dspturn;
#X connect 1 0 4 0;
#X connect 2 0 4 1;
#X connect 3 0 4 2;
#X connect 4 0 0 0;
