#N canvas 100 106 420 560 10;
#X obj 115 250 vs.lookup;
#X msg 166 230 4 8 12 16 20 24;
#X floatatom 115 272 5 0 0 0 - - -;
#X floatatom 115 181 5 0 0 0 - - -;
#X text 149 182 index (starting from 0);
#X obj 115 99 metro 500;
#X obj 115 121 f;
#X obj 143 122 + 1;
#X obj 115 143 % 6;
#X obj 115 78 tgl 15 0 empty empty empty 17 7 0 10 -262144 -1 -1 0
1;
#X obj 166 207 loadbang;
#X text 266 231 list;
#X connect 0 0 2 0;
#X connect 1 0 0 1;
#X connect 3 0 0 0;
#X connect 5 0 6 0;
#X connect 6 0 7 0;
#X connect 6 0 8 0;
#X connect 7 0 6 1;
#X connect 8 0 3 0;
#X connect 9 0 5 0;
#X connect 10 0 1 0;
