#N canvas 100 106 420 560 10;
#X obj 115 222 print;
#X obj 78 54 bng 15 250 50 0 empty empty empty 17 7 0 10 -262144 -1
-1;
#X floatatom 154 114 5 0 0 0 - - -;
#X floatatom 193 144 5 0 0 1 min - -;
#X floatatom 232 174 5 0 0 1 max - -;
#X text 188 114 num of items;
#X floatatom 115 81 5 0 0 0 - - -;
#X text 149 80 set num of items and trigs output;
#X text 96 53 trigs output;
#X obj 115 199 vs.listfrand 8 10 20;
#X connect 1 0 9 0;
#X connect 2 0 9 1;
#X connect 3 0 9 2;
#X connect 4 0 9 3;
#X connect 6 0 9 0;
#X connect 9 0 0 0;
