#N canvas 100 106 420 560 10;
#X obj 115 200 vs.listmin;
#X msg 115 50 8;
#X obj 115 72 until;
#X obj 115 94 random 100;
#X obj 140 145 vs.pset;
#X msg 140 167 8 14 39 35 13 64 41 92;
#X obj 115 116 vs.group 8;
#X floatatom 115 222 5 0 0 0 - - -;
#X connect 0 0 7 0;
#X connect 1 0 2 0;
#X connect 2 0 3 0;
#X connect 3 0 6 0;
#X connect 4 0 5 0;
#X connect 6 0 4 0;
#X connect 6 0 0 0;
