#N canvas 100 106 420 560 10;
#X obj 115 220 vs.mean;
#X floatatom 115 242 0 0 0 0 - - -;
#X obj 131 162 vs.pset;
#X msg 131 184 188 56 164 114 50 84 134 15;
#X obj 115 91 bng 15 250 50 0 empty empty empty 17 7 0 10 -262144 -1
-1;
#X obj 115 135 vs.listrand 8 1 200;
#X connect 0 0 1 0;
#X connect 2 0 3 0;
#X connect 4 0 5 0;
#X connect 5 0 2 0;
#X connect 5 0 0 0;
