#N canvas 100 106 420 560 10;
#X text 116 85 |;
#X text 116 95 v;
#X text 94 65 frequency;
#X text 178 85 |;
#X text 178 95 v;
#X text 156 65 amplitude;
#X obj 117 120 vs.oscbank~ 8 500 500;
#X text 238 85 |;
#X text 238 95 v;
#N canvas 4 62 441 421 4_osc 0;
#X obj 147 218 unpack 0 0 0, f 19;
#X obj 147 266 vs.gain~;
#X obj 147 378 dac~;
#X obj 147 244 vs.oscbank~ 4 10 10;
#X msg 280 221 clear;
#X msg 147 138 \$1 1 1;
#X msg 198 138 \$1 1 2;
#X msg 249 138 \$1 1 3;
#X msg 302 138 \$1 1 4;
#X floatatom 147 103 5 0 0 0 - - -;
#X floatatom 198 103 5 0 0 0 - - -;
#X floatatom 249 103 5 0 0 0 - - -;
#X floatatom 302 103 5 0 0 0 - - -;
#X text 145 78 osc 1;
#X text 196 78 osc 2;
#X text 246 78 osc 3;
#X text 300 78 osc 4;
#X text 144 22 every osc has settable frequency;
#X text 144 35 and fixed amplitude at 1;
#X connect 0 0 3 0;
#X connect 0 1 3 1;
#X connect 0 2 3 2;
#X connect 1 0 2 0;
#X connect 1 0 2 1;
#X connect 3 0 1 0;
#X connect 4 0 3 0;
#X connect 5 0 0 0;
#X connect 6 0 0 0;
#X connect 7 0 0 0;
#X connect 8 0 0 0;
#X connect 9 0 5 0;
#X connect 10 0 6 0;
#X connect 11 0 7 0;
#X connect 12 0 8 0;
#X restore 116 206 pd 4_osc;
#X text 220 55 osc index;
#X text 220 68 (starting from 1);
#N canvas 182 226 441 421 harmonic_spectrum 0;
#X obj 147 268 vs.gain~;
#X obj 147 380 dac~;
#X msg 276 211 clear;
#X obj 141 96 vs.uzi 16 1;
#X obj 204 120 t f b f;
#X obj 147 211 * 80;
#X obj 199 212 f 1;
#X floatatom 141 49 5 0 0 0 - - -;
#X obj 141 68 t b f;
#X obj 147 246 vs.oscbank~ 16 0 0;
#X text 103 30 fundamental frequency;
#X connect 0 0 1 0;
#X connect 0 0 1 1;
#X connect 2 0 9 0;
#X connect 3 2 4 0;
#X connect 4 0 5 0;
#X connect 4 1 6 0;
#X connect 4 2 9 2;
#X connect 5 0 9 0;
#X connect 6 0 9 1;
#X connect 7 0 8 0;
#X connect 8 0 3 0;
#X connect 8 1 5 1;
#X connect 9 0 0 0;
#X restore 116 246 pd harmonic_spectrum;
#N canvas 182 226 441 421 4_osc_random 0;
#X obj 147 220 unpack 0 0 0, f 19;
#X obj 147 58 metro 1000;
#X msg 147 200 \$1 1 \$2;
#X obj 263 97 + 1;
#X obj 147 117 random 1800;
#X obj 147 139 + 100;
#X obj 147 177 pack 0 0;
#X obj 147 80 t b b;
#X obj 147 268 vs.gain~;
#X obj 147 380 dac~;
#X obj 147 31 tgl 15 0 empty empty empty 17 7 0 10 -262144 -1 -1 0
1;
#X obj 147 246 vs.oscbank~ 4 10 10;
#X msg 283 224 clear;
#X obj 226 97 f 1;
#X obj 263 119 % 4;
#X obj 263 141 + 1;
#X floatatom 263 163 5 0 0 0 - - -;
#X connect 0 0 11 0;
#X connect 0 1 11 1;
#X connect 0 2 11 2;
#X connect 1 0 7 0;
#X connect 2 0 0 0;
#X connect 3 0 14 0;
#X connect 3 0 13 1;
#X connect 4 0 5 0;
#X connect 5 0 6 0;
#X connect 6 0 2 0;
#X connect 7 0 4 0;
#X connect 7 1 13 0;
#X connect 8 0 9 0;
#X connect 8 0 9 1;
#X connect 10 0 1 0;
#X connect 11 0 8 0;
#X connect 12 0 11 0;
#X connect 13 0 3 0;
#X connect 14 0 15 0;
#X connect 15 0 16 0;
#X connect 16 0 6 1;
#X restore 116 226 pd 4_osc_random;
#N canvas 182 226 729 468 random_frequency 0;
#X obj 297 405 dac~;
#X msg 276 211 clear;
#X obj 141 96 vs.uzi 16 1;
#X obj 190 136 t b b f;
#X obj 95 171 vs.between 200 2000;
#X obj 141 70 bng 15 250 50 0 empty empty empty 17 7 0 10 -262144 -1
-1;
#X obj 219 171 vs.between -3 0;
#X obj 219 193 vs.dbtoa;
#X obj 454 137 t b b f;
#X obj 359 172 vs.between 200 2000;
#X obj 483 172 vs.between -3 0;
#X obj 483 194 vs.dbtoa;
#X obj 297 286 vs.sgain~;
#X obj 147 246 vs.oscbank~ 16;
#X obj 411 247 vs.oscbank~ 16;
#X connect 1 0 13 0;
#X connect 1 0 14 0;
#X connect 2 2 3 0;
#X connect 2 2 8 0;
#X connect 3 0 4 0;
#X connect 3 1 6 0;
#X connect 3 2 13 2;
#X connect 4 0 13 0;
#X connect 5 0 2 0;
#X connect 6 0 7 0;
#X connect 7 0 13 1;
#X connect 8 0 9 0;
#X connect 8 1 10 0;
#X connect 8 2 14 2;
#X connect 9 0 14 0;
#X connect 10 0 11 0;
#X connect 11 0 14 1;
#X connect 12 0 0 0;
#X connect 12 1 0 1;
#X connect 13 0 12 0;
#X connect 14 0 12 1;
#X restore 116 266 pd random_frequency;
#N canvas 182 226 729 468 random_sliding_frequency 0;
#X obj 298 434 dac~;
#X msg 276 211 clear;
#X obj 141 96 vs.uzi 16 1;
#X obj 190 136 t b b f;
#X obj 141 70 bng 15 250 50 0 empty empty empty 17 7 0 10 -262144 -1
-1;
#X obj 219 171 vs.between -3 0;
#X obj 219 193 vs.dbtoa;
#X obj 454 137 t b b f;
#X obj 483 172 vs.between -3 0;
#X obj 483 194 vs.dbtoa;
#X obj 298 315 vs.sgain~;
#X obj 147 246 vs.oscbank~ 16;
#X obj 411 247 vs.oscbank~ 16;
#X obj 199 60 metro 1000;
#X obj 199 31 tgl 15 0 empty empty empty 17 7 0 10 -262144 -1 -1 0
1;
#X msg 306 83 freqslide \$1;
#X msg 316 103 ampslide \$1;
#X floatatom 306 26 5 0 0 0 - - -;
#X obj 95 171 vs.between 200 4000;
#X obj 359 172 vs.between 200 4000;
#X connect 1 0 11 0;
#X connect 1 0 12 0;
#X connect 2 2 3 0;
#X connect 2 2 7 0;
#X connect 3 0 18 0;
#X connect 3 1 5 0;
#X connect 3 2 11 2;
#X connect 4 0 2 0;
#X connect 5 0 6 0;
#X connect 6 0 11 1;
#X connect 7 0 19 0;
#X connect 7 1 8 0;
#X connect 7 2 12 2;
#X connect 8 0 9 0;
#X connect 9 0 12 1;
#X connect 10 0 0 0;
#X connect 10 1 0 1;
#X connect 11 0 10 0;
#X connect 12 0 10 1;
#X connect 13 0 2 0;
#X connect 14 0 13 0;
#X connect 15 0 11 0;
#X connect 15 0 12 0;
#X connect 16 0 11 0;
#X connect 16 0 12 0;
#X connect 17 0 15 0;
#X connect 17 0 16 0;
#X connect 17 0 13 1;
#X connect 18 0 11 0;
#X connect 19 0 12 0;
#X restore 116 286 pd random_sliding_frequency;
#X text 114 184 examples:;
#X obj 16 45 vs.dspturn;
