#N canvas 100 106 420 560 10;
#X obj 43 120 vs.pak 10 20;
#X obj 43 142 print;
#X floatatom 112 92 5 0 0 0 - - -;
#X floatatom 43 92 5 0 0 0 - - -;
#X obj 234 126 print;
#X floatatom 283 76 5 0 0 0 - - -;
#X floatatom 234 76 5 0 0 0 - - -;
#X floatatom 333 76 5 0 0 0 - - -;
#X obj 128 276 print;
#X floatatom 169 226 5 0 0 0 - - -;
#X floatatom 128 226 5 0 0 0 - - -;
#X floatatom 210 226 5 0 0 0 - - -;
#X obj 234 104 vs.pak3 10 20 3.4;
#X obj 128 254 vs.pak4 10 5 2.2 13.7;
#X floatatom 251 226 5 0 0 0 - - -;
#X connect 0 0 1 0;
#X connect 2 0 0 1;
#X connect 3 0 0 0;
#X connect 5 0 12 1;
#X connect 6 0 12 0;
#X connect 7 0 12 2;
#X connect 9 0 13 1;
#X connect 10 0 13 0;
#X connect 11 0 13 2;
#X connect 12 0 4 0;
#X connect 13 0 8 0;
#X connect 14 0 13 3;
