#N canvas 100 106 420 560 10;
#X obj 115 200 vs.pan~;
#X obj 115 94 vs.pink~;
#X obj 115 232 vs.sgain~;
#X obj 115 344 dac~;
#X text 113 74 source;
#X floatatom 154 180 5 0 1 0 - - -;
#X obj 11 15 vs.dspturn;
#X text 195 156 position (0-1):;
#X text 195 170 0: left;
#X text 195 183 1: right;
#X text 195 196 0.5: center;
#X obj 154 134 loadbang;
#X obj 154 156 f 0.5;
#X connect 0 0 2 0;
#X connect 0 1 2 1;
#X connect 1 0 0 0;
#X connect 2 0 3 0;
#X connect 2 1 3 1;
#X connect 5 0 0 1;
#X connect 11 0 12 0;
#X connect 12 0 5 0;
