#N canvas 100 106 420 560 10;
#X obj 165 252 vs.scope~;
#X floatatom 115 167 5 0 0 0 - - -;
#X obj 17 38 vs.dspturn;
#X text 149 167 density per sec;
#X obj 115 200 vs.randclick~ 1000;
#X obj 115 242 vs.gain~;
#X obj 115 354 dac~;
#X connect 1 0 4 0;
#X connect 4 0 0 0;
#X connect 4 0 5 0;
#X connect 5 0 6 0;
#X connect 5 0 6 1;
