#N canvas 100 106 420 560 10;
#X obj 177 177 vs.switch;
#X msg 137 57 0;
#X msg 117 97 1;
#X msg 97 137 2;
#X floatatom 177 201 5 0 0 0 - - -;
#X floatatom 202 117 5 0 0 0 - - -;
#X floatatom 228 145 5 0 0 0 - - -;
#X text 99 57 close;
#X text 37 98 open inlet 1;
#X text 17 139 open inlet 2;
#X obj 137 351 vs.switch4;
#X obj 217 351 vs.switch3;
#X floatatom 68 307 5 0 0 0 - - -;
#X floatatom 181 396 5 0 0 0 - - -;
#X obj 151 288 vsl 12 51 0 50 0 0 empty empty 1 0 -9 1 10 -262144 -1
-1 0 1;
#X obj 165 288 vsl 12 51 0 50 0 0 empty empty 2 0 -9 1 10 -262144 -1
-1 0 1;
#X obj 179 288 vsl 12 51 0 50 0 0 empty empty 3 0 -9 1 10 -262144 -1
-1 0 1;
#X obj 194 288 vsl 12 51 0 50 0 0 empty empty 4 0 -9 1 10 -262144 -1
-1 0 1;
#X obj 236 288 vsl 12 51 0 50 0 0 empty empty 5 0 -9 1 10 -262144 -1
-1 0 1;
#X obj 255 288 vsl 12 51 0 50 0 0 empty empty 6 0 -9 1 10 -262144 -1
-1 0 1;
#X obj 274 288 vsl 12 51 0 50 0 0 empty empty 7 0 -9 1 10 -262144 -1
-1 0 1;
#X text 15 230 You can link several vs.switch* via leftmore outlet
to have several inlets available:;
#X text 54 290 all inlets;
#X text 54 278 0 close;
#X connect 0 0 4 0;
#X connect 1 0 0 0;
#X connect 2 0 0 0;
#X connect 3 0 0 0;
#X connect 5 0 0 1;
#X connect 6 0 0 2;
#X connect 10 0 13 0;
#X connect 10 1 11 0;
#X connect 11 0 13 0;
#X connect 12 0 10 0;
#X connect 14 0 10 1;
#X connect 15 0 10 2;
#X connect 16 0 10 3;
#X connect 17 0 10 4;
#X connect 18 0 11 1;
#X connect 19 0 11 2;
#X connect 20 0 11 3;
