#N canvas 100 106 420 560 10;
#X obj 115 205 vs.scale~;
#X obj 10 12 vs.dspturn;
#X obj 140 119 sig~ 1;
#X obj 127 94 sig~ -1;
#X obj 166 174 sig~ 1;
#X obj 153 144 sig~ 0.5;
#X obj 115 257 vs.scope~;
#X text 179 95 min in (float/signal);
#X text 188 119 max in (float/signal);
#X text 215 145 min out (float/signal);
#X text 216 174 max out (float/signal);
#X obj 115 56 osc~ 400;
#X floatatom 115 35 5 0 0 0 - - -;
#X text 173 56 signal input;
#N canvas 199 170 230 420 dynamic 0;
#X obj 15 232 vs.scale~;
#X obj 40 96 sig~ 1;
#X obj 27 71 sig~ -1;
#X obj 66 201 sig~ 1;
#X obj 15 284 vs.scope~;
#X floatatom 15 12 5 0 0 0 - - -;
#X obj 53 163 *~ -1;
#X obj 15 33 osc~ 800;
#X obj 53 141 phasor~ 5;
#X connect 0 0 4 0;
#X connect 1 0 0 2;
#X connect 2 0 0 1;
#X connect 3 0 0 4;
#X connect 5 0 7 0;
#X connect 6 0 0 3;
#X connect 7 0 0 0;
#X connect 8 0 6 0;
#X restore 271 218 pd dynamic;
#X connect 0 0 6 0;
#X connect 2 0 0 2;
#X connect 3 0 0 1;
#X connect 4 0 0 4;
#X connect 5 0 0 3;
#X connect 11 0 0 0;
#X connect 12 0 11 0;
