#N canvas 100 106 420 560 10;
#X obj 41 182 vs.scope~;
#X obj 41 91 osc~ 440;
#X floatatom 234 149 5 0 7 0 - - -;
#X text 269 147 zoom factor (0-7);
#X msg 145 117 xdim \$1;
#X msg 202 117 ydim \$1;
#X floatatom 145 96 5 0 0 0 - - -;
#X floatatom 202 96 5 0 0 0 - - -;
#X obj 16 45 vs.dspturn;
#X connect 1 0 0 0;
#X connect 2 0 0 1;
#X connect 4 0 0 1;
#X connect 5 0 0 1;
#X connect 6 0 4 0;
#X connect 7 0 5 0;
