#N canvas 100 106 420 560 10;
#X obj 115 192 print;
#X floatatom 77 113 5 0 0 0 - - -;
#X text 197 172 default arg: 5;
#X floatatom 178 117 5 0 0 0 - - -;
#X text 214 116 num of items;
#X obj 115 170 vs.stream 3;
#X symbolatom 115 113 8 0 0 0 - - -;
#X obj 115 312 vs.pset;
#X msg 115 334 4 5 6 7;
#X obj 205 312 vs.pset;
#X msg 205 334 7 6 5 4;
#X floatatom 180 261 5 0 0 0 - - -;
#X msg 108 87 2 3 b 5;
#X obj 191 141 bng 15 250 50 0 empty empty empty 17 7 0 10 -262144
-1 -1;
#X text 209 142 clear memory;
#X obj 115 290 vs.stream 4;
#X obj 205 290 vs.stream -4;
#X connect 1 0 5 0;
#X connect 3 0 5 1;
#X connect 5 0 0 0;
#X connect 6 0 5 0;
#X connect 7 0 8 0;
#X connect 9 0 10 0;
#X connect 11 0 15 0;
#X connect 11 0 16 0;
#X connect 12 0 5 0;
#X connect 13 0 5 1;
#X connect 15 0 7 0;
#X connect 16 0 9 0;
