#N canvas 100 106 420 560 10;
#X obj 115 200 vs.sampstoms~;
#X obj 115 232 vs.number~;
#X text 213 238 millisecs;
#X floatatom 115 141 5 0 0 0 - - -;
#X obj 115 167 sig~ 44100;
#X text 153 140 samples;
#X obj 16 45 vs.dspturn;
#X connect 0 0 1 0;
#X connect 3 0 4 0;
#X connect 4 0 0 0;
