#N canvas 100 106 420 560 10;
#X obj 94 168 vs.sel~;
#X obj 94 190 vs.gain~;
#X obj 94 302 dac~;
#X floatatom 94 94 5 0 0 0 - - -;
#X text 92 76 sel out (float/signal);
#X obj 113 124 osc~ 440;
#X obj 133 145 vs.pink~;
#X text 128 90 1 or 2 \, <= 0 and >2;
#X text 128 103 close outputs;
#N canvas 0 22 246 300 vs.sel3~ 0;
#X floatatom 23 25 5 0 0 0 - - -;
#X text 21 7 sel out (float/signal);
#X obj 38 54 osc~ 440;
#X text 57 21 1 to 3 \, <= 0 and >3;
#X text 57 34 close outputs;
#X obj 23 123 vs.sel3~;
#X obj 53 74 osc~ 880;
#X obj 68 94 osc~ 1760;
#X obj 23 165 vs.scope~;
#X connect 0 0 5 0;
#X connect 2 0 5 1;
#X connect 5 0 8 0;
#X connect 6 0 5 2;
#X connect 7 0 5 3;
#X restore 229 246 pd vs.sel3~;
#N canvas 217 380 246 339 vs.sel4~ 0;
#X floatatom 23 25 5 0 0 0 - - -;
#X text 21 7 sel out (float/signal);
#X obj 34 54 osc~ 440;
#X text 57 34 close outputs;
#X obj 23 143 vs.sel4~;
#X obj 23 165 vs.gain~;
#X obj 23 277 dac~;
#X obj 45 74 vs.blsquare~ 440;
#X obj 56 94 vs.blsaw~ 440;
#X obj 68 114 vs.bltri~ 440;
#X text 57 21 1 to 4 \, <= 0 and >4;
#X connect 0 0 4 0;
#X connect 2 0 4 1;
#X connect 4 0 5 0;
#X connect 5 0 6 0;
#X connect 7 0 4 2;
#X connect 8 0 4 3;
#X connect 9 0 4 4;
#X restore 229 266 pd vs.sel4~;
#N canvas 174 280 624 391 complex1 0;
#X floatatom 23 25 5 0 0 0 - - -;
#X text 21 7 sel out (float/signal);
#X text 57 34 close outputs;
#X obj 23 183 vs.sel4~;
#X obj 23 238 vs.gain~;
#X obj 23 360 dac~;
#X obj 123 183 vs.sel3~;
#X obj 34 73 osc~ 200;
#X obj 45 96 osc~ 400;
#X text 57 21 1 to 7 \, <= 0 and >7;
#X obj 56 116 osc~ 600;
#X obj 68 136 osc~ 800;
#X obj 138 96 osc~ 1000;
#X obj 153 116 osc~ 1200;
#X obj 168 136 osc~ 1400;
#X text 258 37 analogous object.;
#X text 258 11 rightmost outlet of [vs.sel~] \, [vs.sel3~];
#X text 258 24 [vs.sel4~] output ad index (float/signal) to drive another
;
#X connect 0 0 3 0;
#X connect 3 0 4 0;
#X connect 3 1 6 0;
#X connect 4 0 5 0;
#X connect 4 0 5 1;
#X connect 6 0 4 0;
#X connect 7 0 3 1;
#X connect 8 0 3 2;
#X connect 10 0 3 3;
#X connect 11 0 3 4;
#X connect 12 0 6 1;
#X connect 13 0 6 2;
#X connect 14 0 6 3;
#X restore 229 286 pd complex1;
#N canvas 174 197 549 472 complex2 0;
#X obj 134 254 vs.sel4~;
#X obj 134 309 vs.gain~;
#X obj 134 431 dac~;
#X obj 234 254 vs.sel3~;
#X obj 145 144 osc~ 200;
#X obj 156 167 osc~ 400;
#X obj 167 187 osc~ 600;
#X obj 179 207 osc~ 800;
#X obj 249 167 osc~ 1000;
#X obj 264 187 osc~ 1200;
#X obj 279 207 osc~ 1400;
#X obj 134 61 abs~;
#X obj 134 84 *~ 7;
#X obj 134 106 +~ 1;
#X obj 134 39 vs.rand0~ 4;
#X text 184 75 index controlled by signal;
#X connect 0 0 1 0;
#X connect 0 1 3 0;
#X connect 1 0 2 0;
#X connect 1 0 2 1;
#X connect 3 0 1 0;
#X connect 4 0 0 1;
#X connect 5 0 0 2;
#X connect 6 0 0 3;
#X connect 7 0 0 4;
#X connect 8 0 3 1;
#X connect 9 0 3 2;
#X connect 10 0 3 3;
#X connect 11 0 12 0;
#X connect 12 0 13 0;
#X connect 13 0 0 0;
#X connect 14 0 11 0;
#X restore 229 306 pd complex2;
#X obj 16 45 vs.dspturn;
#X connect 0 0 1 0;
#X connect 1 0 2 0;
#X connect 1 0 2 1;
#X connect 3 0 0 0;
#X connect 5 0 0 1;
#X connect 6 0 0 2;
