#N canvas 100 106 420 560 10;
#X obj 115 222 print;
#X obj 115 200 vs.sect;
#X msg 115 145 2 3 4 2 beta;
#X msg 154 173 1 alpha 2 3 beta 1;
#X connect 1 0 0 0;
#X connect 2 0 1 0;
#X connect 3 0 1 1;
