#N canvas 100 106 420 560 10;
#X floatatom 115 148 5 0 0 1 - - -;
#X obj 115 242 vs.gain~;
#X obj 115 354 dac~;
#X obj 161 251 vs.scope~;
#X floatatom 208 178 5 0 0 1 - - -;
#X text 148 148 frequency (float/signal);
#X text 241 178 duty cycle (float);
#X obj 18 32 vs.dspturn;
#X obj 115 200 vs.triangle~ 400;
#X connect 0 0 8 0;
#X connect 1 0 2 0;
#X connect 1 0 2 1;
#X connect 4 0 8 1;
#X connect 8 0 1 0;
#X connect 8 0 3 0;
