#N canvas 100 106 420 560 10;
#X floatatom 32 157 5 0 0 0 - - -;
#X obj 19 262 print;
#X msg 88 91 ms samp;
#X msg 98 121 samp ms;
#X text 100 221 default args: ms samp;
#X msg 108 151 ms hz;
#X msg 19 117 1000;
#X msg 118 181 samp hz;
#X obj 19 220 vs.translate;
#X text 153 151 millisecs -> hertz;
#X text 145 91 millisecs -> samples;
#X text 155 121 samples -> millisecs;
#X text 173 181 samples -> hertz;
#X obj 195 297 vs.translate ms samp;
#X obj 195 319 vs.translate samp ms;
#X floatatom 195 341 5 0 0 0 - - -;
#X floatatom 195 276 5 0 0 0 - - -;
#X connect 0 0 8 0;
#X connect 2 0 8 1;
#X connect 3 0 8 1;
#X connect 5 0 8 1;
#X connect 6 0 8 0;
#X connect 7 0 8 1;
#X connect 8 0 1 0;
#X connect 13 0 14 0;
#X connect 14 0 15 0;
#X connect 16 0 13 0;
