#N canvas 100 106 420 560 10;
#X obj 115 167 bng 15 250 50 0 empty empty empty 17 7 0 10 -262144
-1 -1;
#X obj 115 247 print;
#X msg 138 167 clear;
#X obj 115 200 vs.urn 4;
#X obj 241 166 bng 15 250 50 0 empty empty empty 17 7 0 10 -262144
-1 -1;
#X obj 241 286 print;
#X msg 313 259 clear;
#X obj 241 199 vs.urn 4;
#X obj 286 223 t b b;
#X connect 0 0 3 0;
#X connect 2 0 3 0;
#X connect 3 0 1 0;
#X connect 4 0 7 0;
#X connect 6 0 7 0;
#X connect 7 0 5 0;
#X connect 7 1 8 0;
#X connect 8 0 7 0;
#X connect 8 1 6 0;
