#N canvas 100 106 420 560 10;
#X obj 65 200 vs.uzi 20 1;
#X obj 65 84 bng 15 250 50 0 empty empty empty 17 7 0 10 -262144 -1
-1;
#X floatatom 154 186 5 0 0 0 - - -;
#X text 189 186 set num of bangs;
#X floatatom 82 116 5 0 0 0 - - -;
#X text 83 84 trigs task;
#X text 116 115 set num of bangs and trigs task;
#X msg 103 151 offset 2;
#X text 159 151 sets offset of the counter (def 0);
#X obj 65 285 print bangs;
#X obj 128 227 print counter;
#X obj 96 257 print carry;
#X text 212 228 counter;
#X text 169 259 bang when done;
#X text 139 287 bang sequence;
#X connect 0 0 9 0;
#X connect 0 1 11 0;
#X connect 0 2 10 0;
#X connect 1 0 0 0;
#X connect 2 0 0 1;
#X connect 4 0 0 0;
#X connect 7 0 0 0;
