#N canvas 100 106 420 560 10;
#X obj 45 73 noise~;
#X obj 45 262 vs.spectroscope~ 1 140 70;
#X obj 215 262 vs.spectroscope~ 1 140 70;
#X obj 64 116 sig~ 1;
#X obj 83 188 mtof~;
#X floatatom 274 196 5 0 0 0 - - -;
#X floatatom 64 95 5 0 0 0 - - -;
#X text 107 103 gain (float/signal);
#X floatatom 83 146 5 36 108 0 - - -;
#X text 132 167 frequency (float/signal);
#X text 311 197 Q (float);
#X obj 279 92 vs.dspturn;
#X obj 45 210 vs.vcf~ 10;
#X text 49 235 bandpass;
#X text 210 236 lowpass;
#X obj 83 165 sig~ 72;
#X obj 18 18 vs.dspturn;
#X connect 0 0 12 0;
#X connect 3 0 12 1;
#X connect 4 0 12 2;
#X connect 5 0 12 3;
#X connect 6 0 3 0;
#X connect 8 0 15 0;
#X connect 12 0 1 0;
#X connect 12 1 2 0;
#X connect 15 0 4 0;
