#N canvas 100 106 420 560 10;
#X obj 18 180 vs.wrandom;
#X obj 18 202 vs.group 100;
#X obj 18 225 array set \$0-probs;
#X msg 18 66 100;
#X obj 18 95 until;
#N canvas 0 22 450 278 (subpatch) 0;
#X array \$0-probs 100 float 3;
#A 0 0 0 0 0 0 0 0 0 0 0 0 0 0 0 0 0 0 0 0 0 0 0 0 0 0 0 0 0 0 0 0
0 0 0 0 0 0 0 0 0 0 0 0 0 0 0 0 0 0 0 0 0 0 0 0 0 0 0 0 0 0 0 0 0 0
0 0 0 0 0 0 0 0 0 0 0 0 0 0 0 0 0 0 0 0 0 0 0 0 0 0 0 0 0 0 0 0 0 0
0;
#X coords 0 5 100 0 200 140 1 0 0;
#X restore 200 219 graph;
#N canvas 0 22 450 300 configarray 0;
#X obj 110 100 loadbang;
#X obj 110 207 s \$0-probs;
#X msg 110 137 ylabel -1 0 1 2 3 4 5 \, yticks 0 1 5 \, const 0;
#X connect 0 0 2 0;
#X connect 2 0 1 0;
#X restore 200 368 pd configarray;
#X obj 75 98 loadbang;
#X msg 46 123 1 2 3 4;
#X msg 75 159 0.7 0.2 0.05 0.05;
#X text 96 124 items to choose;
#X text 188 160 weights;
#X text 45 66 produces 100 bang;
#X connect 0 0 1 0;
#X connect 1 0 2 0;
#X connect 3 0 4 0;
#X connect 4 0 0 0;
#X connect 7 0 9 0;
#X connect 7 0 8 0;
#X connect 8 0 0 1;
#X connect 9 0 0 2;
