#N canvas 335 389 151 205 10;
#X obj 45 90 int;
#X obj 18 44 t f f;
#X obj 18 130 -;
#X obj 18 13 inlet;
#X obj 18 155 outlet;
#X obj 106 12 inlet;
#X obj 45 67 / \$1;
#X obj 45 113 * \$1;
#X text 17 186 f.bianchi;
#X connect 0 0 7 0;
#X connect 1 0 2 0;
#X connect 1 1 6 0;
#X connect 2 0 4 0;
#X connect 3 0 1 0;
#X connect 5 0 6 1;
#X connect 5 0 7 1;
#X connect 6 0 0 0;
#X connect 7 0 2 1;
