#N canvas 24 77 879 584 10;
#X obj 103 387 *~ -1;
#X obj 211 383 *~ -1;
#X obj 103 507 outlet~ a1;
#X obj 211 507 outlet~ a2;
#X obj 579 507 outlet~ b0;
#X obj 671 507 outlet~ b1;
#X obj 782 504 outlet~ b2;
#X obj 103 434 /~;
#X obj 211 436 /~;
#X obj 579 441 /~;
#X obj 103 34 inlet~ freq;
#X obj 103 89 expr~ 6.28319*$v1/$f2;
#X obj 226 34 loadbang;
#X obj 226 59 samplerate~;
#X obj 782 443 /~;
#X text 761 41 q = bandwidth;
#X obj 795 68 inlet~ q;
#X obj 694 313 +~ 1;
#X obj 488 289 sig~ 1;
#X obj 488 315 -~;
#X obj 795 198 max~ 0.01;
#X obj 509 157 expr~ sin($v1);
#X obj 103 297 expr~ -2*cos($v1);
#X obj 509 241 expr~ $v1*sinh(log(2)/2*$v3*$v2/$v1);
#X obj 671 446 /~;
#X text 787 558 f.bianchi;
#X connect 0 0 7 0;
#X connect 1 0 8 0;
#X connect 7 0 2 0;
#X connect 8 0 3 0;
#X connect 9 0 4 0;
#X connect 10 0 11 0;
#X connect 11 0 22 0;
#X connect 11 0 21 0;
#X connect 11 0 23 1;
#X connect 12 0 13 0;
#X connect 13 0 11 1;
#X connect 14 0 6 0;
#X connect 16 0 20 0;
#X connect 17 0 14 0;
#X connect 17 0 8 1;
#X connect 17 0 7 1;
#X connect 17 0 14 1;
#X connect 17 0 9 1;
#X connect 17 0 24 1;
#X connect 18 0 19 0;
#X connect 19 0 9 0;
#X connect 19 0 1 0;
#X connect 20 0 23 2;
#X connect 21 0 23 0;
#X connect 22 0 0 0;
#X connect 22 0 24 0;
#X connect 23 0 17 0;
#X connect 23 0 19 1;
#X connect 24 0 5 0;
