#N canvas 97 290 232 179 10;
#X obj 17 116 vs.biquad~, f 15;
#X obj 17 141 outlet~;
#X obj 17 20 inlet~ sig;
#X obj 34 47 inlet~ cut;
#X obj 103 47 inlet~ q;
#X obj 34 82 vs.allpassc~;
#X text 154 148 f.bianchi;
#X connect 0 0 1 0;
#X connect 2 0 0 0;
#X connect 3 0 5 0;
#X connect 4 0 5 1;
#X connect 5 0 0 1;
#X connect 5 1 0 2;
#X connect 5 2 0 3;
#X connect 5 3 0 4;
#X connect 5 4 0 5;
