#N canvas 319 379 236 174 10;
#X obj 11 26 inlet~;
#X obj 11 144 outlet~;
#X obj 74 26 inlet;
#X obj 74 88 vs.butterhpc;
#X obj 124 11 loadbang;
#X obj 124 36 f \$1;
#X obj 124 61 vs.defaulter 440;
#X obj 11 114 vs.kbiquad~;
#X text 103 133 f.bianchi - M.Giri;
#X connect 0 0 7 0;
#X connect 2 0 3 0;
#X connect 3 0 7 1;
#X connect 4 0 5 0;
#X connect 5 0 6 0;
#X connect 6 0 3 0;
#X connect 7 0 1 0;
