#N canvas 200 100 970 850 12;
#X declare -path help_examples;
#X obj 100 20 declare -path help_examples;
#X obj 15 15 cnv 15 940 60 empty empty vs.biquad~ 20 20 0 36 -233017 -66577

0;
#X obj 75 105 cnv 15 880 140 empty \$0-canvas-description empty 20
12 0 14 -233017 -66577 0;
#X obj 555 255 cnv 15 400 360 empty \$0-canvas-outlets empty 20 12
0 14 -233017 -66577 0;
#X obj 75 255 cnv 15 400 360 empty \$0-canvas-inlets empty 20 12 0
14 -233017 -66577 0;
#X obj 75 625 cnv 15 880 120 empty \$0-canvas-args empty 20 12 0 14
-233017 -66577 0;
#X obj 75 755 cnv 15 880 80 empty \$0-canvas-see empty 20 12 0 14 -233017
-66577 0;
#X obj 15 90 cnv 15 900 40 empty \$0-description DESCRIPTION 20 20
0 14 -1 -262144 0;
#X obj 15 235 cnv 15 420 40 empty \$0-inlets INLETS 25 20 0 14 -1 -262144
0;
#X obj 496 235 cnv 15 420 40 empty \$0-outlets OUTLETS 25 20 0 14 -1
-262144 0;
#X obj 15 605 cnv 15 900 40 empty \$0-args ARGS 20 20 0 14 -1 -262144
0;
#X obj 15 735 cnv 15 900 40 empty \$0-see SEE 20 20 0 14 -1 -262144
0;
#X text 20 55 Two-pole two-zero filter;
#X text 90 140 biquad~ implements a two-pole \, two-zero filter using the following equation: y[n] = a0 * x[n] + a1 * x[n-1] + a2 * x[n-2] - b1 * y[n-1] - b2 * y[n-2]. You can specify the coefficients a0 \, a1 \, a2 \, b1 \, and b2 as signals or floats (if you make the filter explode by making the b coefficients too high \, you can recover (after lowering them) with the clear message \, or by turning the audio on and off)., f 80;
#X obj 50 290 cnv 15 60 15 empty empty 0 10 8 0 14 -128992 -262144
0;
#X obj 115 290 cnv 15 80 15 empty empty signal 5 8 0 12 -260097 -1
0;
#X text 200 287 source, f 37;
#X obj 50 333 cnv 15 60 15 empty empty 1 10 8 0 14 -128992 -262144
0;
#X obj 115 333 cnv 15 80 15 empty empty signal 5 8 0 12 -260097 -1
0;
#X text 200 330 a0, f 37;
#X obj 50 376 cnv 15 60 15 empty empty 2 10 8 0 14 -128992 -262144
0;
#X obj 115 376 cnv 15 80 15 empty empty signal 5 8 0 12 -260097 -1
0;
#X text 200 373 a1, f 37;
#X obj 50 419 cnv 15 60 15 empty empty 3 10 8 0 14 -128992 -262144
0;
#X obj 115 419 cnv 15 80 15 empty empty signal 5 8 0 12 -260097 -1
0;
#X text 200 416 a2, f 37;
#X obj 50 462 cnv 15 60 15 empty empty 4 10 8 0 14 -128992 -262144
0;
#X obj 115 462 cnv 15 80 15 empty empty signal 5 8 0 12 -260097 -1
0;
#X text 200 459 b1, f 37;
#X obj 50 505 cnv 15 60 15 empty empty 5 10 8 0 14 -128992 -262144
0;
#X obj 115 505 cnv 15 80 15 empty empty signal 5 8 0 12 -260097 -1
0;
#X text 200 502 b2, f 37;
#X obj 530 290 cnv 15 60 15 empty empty 0 10 8 0 14 -128992 -262144
0;
#X obj 595 290 cnv 15 80 15 empty empty signal 5 8 0 12 -260097 -1
0;
#X text 680 287 filtered signal, f 37;
#X text 90 650 None;
#X obj 100 800 vs.biquad~-example;
#X obj 300 800 pddp/pddplink vs.__objects_list__.pd -text VIRTUAL SOUND LIBRARY object list;
#N canvas 1184 100 150 60 see_also 0;
#X obj 10 10 vs.kbiquad~;
#X obj 10 35 biquad~;
#X restore 845 795 pd see_also;
