#N canvas 0 22 639 658 10;
#X obj 17 17 inlet;
#X obj 17 622 outlet;
#X obj 17 92 clip 0 22050;
#X obj 554 14 loadbang;
#X obj 554 39 samplerate~;
#X obj 110 68 / 2;
#X obj 415 84 vs.pi;
#X obj 17 592 pack 0 0 0 0 0;
#X text 34 221 c: $f2=PI \, $f1=bw \, $f3=sr;
#X obj 277 242 expr 2 * cos(2 * $f2 * ($f1 / $f3));
#X text 315 219 d: $f1=center \, $f2=PI \, $f3=sr;
#X obj 71 353 expr 1 / (1 + $f1);
#X text 97 334 a0: $f1=c;
#X text 138 378 a2:;
#X text 58 525 b2: $f1=c \, $f2=a0;
#X obj 224 18 inlet;
#X obj 224 47 max 0;
#X obj 17 150 f \$1;
#X obj 17 178 /;
#X obj 224 72 t b f;
#X obj 17 117 t f f;
#X obj 17 242 expr tan($f2 * ($f1 / $f3));
#X text 104 438 z->a1 = -1 * z->a0 * z->d;
#X obj 98 460 expr -1 * $f1 * $f2;
#X obj 17 267 t b f f;
#X obj 17 480 f, f 2;
#X obj 17 505 * -1;
#X text 53 493 b1;
#X obj 43 547 expr -$f2 * (1 - $f1);
#X text 338 558 f.bianchi - M.Giri;
#X connect 0 0 2 0;
#X connect 2 0 20 0;
#X connect 3 0 4 0;
#X connect 3 0 6 0;
#X connect 4 0 5 0;
#X connect 4 0 9 2;
#X connect 4 0 21 2;
#X connect 5 0 2 2;
#X connect 6 0 9 1;
#X connect 6 0 21 1;
#X connect 7 0 1 0;
#X connect 9 0 23 1;
#X connect 11 0 7 2;
#X connect 11 0 7 4;
#X connect 11 0 23 0;
#X connect 11 0 28 1;
#X connect 15 0 16 0;
#X connect 16 0 19 0;
#X connect 17 0 18 0;
#X connect 18 0 21 0;
#X connect 19 0 17 0;
#X connect 19 1 18 1;
#X connect 20 0 17 0;
#X connect 20 1 9 0;
#X connect 21 0 24 0;
#X connect 23 0 7 3;
#X connect 23 0 25 1;
#X connect 24 0 25 0;
#X connect 24 1 28 0;
#X connect 24 2 11 0;
#X connect 25 0 26 0;
#X connect 26 0 7 0;
#X connect 28 0 7 1;
