#N canvas 270 237 397 425 10;
#X obj 19 356 vs.butterbp~;
#X obj 19 206 inlet~;
#X obj 19 390 outlet~;
#X obj 53 237 inlet;
#X obj 146 314 pack 0 1;
#X obj 146 339 /;
#X obj 170 176 inlet;
#X obj 170 287 t b f;
#X obj 170 261 max 0.1;
#X obj 109 19 loadbang;
#X obj 109 44 t b b;
#X obj 109 136 vs.defaulter 440;
#X obj 109 109 f \$1;
#X obj 237 109 f \$2;
#X obj 237 136 vs.defaulter 100;
#X obj 53 262 t f f;
#X obj 109 161 t f f;
#X text 229 349 f.bianchi - M.Giri;
#X connect 0 0 2 0;
#X connect 1 0 0 0;
#X connect 3 0 15 0;
#X connect 4 0 5 0;
#X connect 5 0 0 2;
#X connect 6 0 8 0;
#X connect 7 0 4 0;
#X connect 7 1 4 1;
#X connect 8 0 7 0;
#X connect 9 0 10 0;
#X connect 10 0 12 0;
#X connect 10 1 13 0;
#X connect 11 0 16 0;
#X connect 12 0 11 0;
#X connect 13 0 14 0;
#X connect 14 0 8 0;
#X connect 15 0 0 1;
#X connect 15 1 4 0;
#X connect 16 0 0 1;
#X connect 16 1 4 0;
