#N canvas 333 383 268 213 10;
#X obj 13 38 inlet~;
#X obj 13 184 outlet~;
#X obj 76 38 inlet;
#X obj 76 100 vs.butterlpc;
#X obj 155 38 f \$1;
#X obj 155 12 loadbang;
#X obj 155 65 vs.defaulter 440;
#X obj 13 138 vs.kbiquad~;
#X text 125 173 f.bianchi - M.Giri;
#X connect 0 0 7 0;
#X connect 2 0 3 0;
#X connect 3 0 7 1;
#X connect 4 0 6 0;
#X connect 5 0 4 0;
#X connect 6 0 3 0;
#X connect 7 0 1 0;
