#N canvas 283 264 537 361 10;
#X obj 300 20 inlet min;
#X obj 393 20 inlet max;
#X obj 146 19 inlet bang;
#X obj 107 299 outlet;
#X obj 146 139 vs.random;
#X obj 107 248 vs.scale 0 1 \$1 \$2;
#X msg 185 71 seed \$1;
#X obj 146 44 route bang seed type;
#X obj 107 207 vs.gate;
#X obj 237 248 vs.scale 0 1 \$1 \$2;
#X obj 393 202 + 1;
#X obj 237 270 int;
#X obj 107 159 != 0;
#X obj 107 181 + 1;
#X obj 78 89 loadbang;
#X obj 78 111 f \$3;
#X text 370 333 f.bianchi - M.Giri;
#X connect 0 0 5 3;
#X connect 0 0 9 3;
#X connect 1 0 5 4;
#X connect 1 0 10 0;
#X connect 2 0 7 0;
#X connect 4 0 8 1;
#X connect 5 0 3 0;
#X connect 6 0 4 0;
#X connect 7 0 4 0;
#X connect 7 1 6 0;
#X connect 7 2 12 0;
#X connect 8 0 5 0;
#X connect 8 1 9 0;
#X connect 9 0 11 0;
#X connect 10 0 9 4;
#X connect 11 0 3 0;
#X connect 12 0 13 0;
#X connect 13 0 8 0;
#X connect 14 0 15 0;
#X connect 15 0 12 0;
