#N canvas 401 244 294 425 10;
#X obj 19 206 inlet~;
#X obj 19 390 outlet~;
#X obj 53 237 inlet;
#X obj 146 314 pack 0 1;
#X obj 146 339 /;
#X obj 190 156 inlet;
#X obj 170 287 t b f;
#X obj 170 261 max 0.1;
#X obj 109 19 loadbang;
#X obj 109 44 t b b;
#X obj 109 109 f \$1;
#X obj 170 107 f \$2;
#X obj 53 262 t f f;
#X obj 109 161 t f f;
#X obj 19 356 vs.butterbr~;
#X text 127 389 f.bianchi - M.Giri;
#X connect 0 0 14 0;
#X connect 2 0 12 0;
#X connect 3 0 4 0;
#X connect 4 0 14 2;
#X connect 5 0 7 0;
#X connect 6 0 3 0;
#X connect 6 1 3 1;
#X connect 7 0 6 0;
#X connect 8 0 9 0;
#X connect 9 0 10 0;
#X connect 9 1 11 0;
#X connect 10 0 13 0;
#X connect 11 0 7 0;
#X connect 12 0 14 1;
#X connect 12 1 3 0;
#X connect 13 0 14 1;
#X connect 13 1 3 0;
#X connect 14 0 1 0;
