#N canvas 473 178 171 175 10;
#X obj 15 142 outlet~;
#X obj 15 29 inlet~;
#N canvas 577 32 416 484 tri8x 0;
#X obj 16 321 *~ 0.125;
#X obj 16 344 rzero~ -1;
#X obj 16 367 rzero~ -1;
#X obj 16 390 rzero~ -1;
#X obj 16 416 outlet~;
#X obj 16 223 rpole~ 0.87467;
#X obj 16 200 *~ 0.12532;
#X obj 16 246 *~ 0.01668;
#X obj 16 269 cpole~ 0.9293 0.10812;
#X obj 16 295 cpole~ 0.9293 -0.10812;
#X obj 16 41 phasor~;
#X obj 16 16 inlet~;
#X text 144 446 Thanks to Miller Puckette!;
#X obj 209 152 block~ 1024 1 8;
#X obj 16 73 clip~ 0 0.5;
#X obj 16 98 *~ 2;
#X obj 16 123 -~;
#X obj 16 148 *~ 2;
#X obj 16 173 -~ 0.5;
#X connect 0 0 1 0;
#X connect 1 0 2 0;
#X connect 2 0 3 0;
#X connect 3 0 4 0;
#X connect 5 0 7 0;
#X connect 6 0 5 0;
#X connect 7 0 8 0;
#X connect 8 0 9 0;
#X connect 8 1 9 1;
#X connect 9 0 0 0;
#X connect 10 0 14 0;
#X connect 10 0 16 1;
#X connect 11 0 10 0;
#X connect 14 0 15 0;
#X connect 15 0 16 0;
#X connect 16 0 17 0;
#X connect 17 0 18 0;
#X connect 18 0 6 0;
#X restore 15 101 pd tri8x;
#X obj 15 59 vs.argsig~ \$1;
#X text 83 141 f.bianchi;
#X connect 1 0 3 0;
#X connect 2 0 0 0;
#X connect 3 0 2 0;
