#N canvas 200 100 970 850 12;
#X declare -path help_examples;
#X obj 100 20 declare -path help_examples;
#X obj 15 15 cnv 15 940 60 empty empty vs.blrect~ 20 20 0 36 -233017 -66577

0;
#X obj 75 105 cnv 15 880 140 empty \$0-canvas-description empty 20
12 0 14 -233017 -66577 0;
#X obj 555 255 cnv 15 400 360 empty \$0-canvas-outlets empty 20 12
0 14 -233017 -66577 0;
#X obj 75 255 cnv 15 400 360 empty \$0-canvas-inlets empty 20 12 0
14 -233017 -66577 0;
#X obj 75 625 cnv 15 880 120 empty \$0-canvas-args empty 20 12 0 14
-233017 -66577 0;
#X obj 75 755 cnv 15 880 80 empty \$0-canvas-see empty 20 12 0 14 -233017
-66577 0;
#X obj 15 90 cnv 15 900 40 empty \$0-description DESCRIPTION 20 20
0 14 -1 -262144 0;
#X obj 15 235 cnv 15 420 40 empty \$0-inlets INLETS 25 20 0 14 -1 -262144
0;
#X obj 496 235 cnv 15 420 40 empty \$0-outlets OUTLETS 25 20 0 14 -1
-262144 0;
#X obj 15 605 cnv 15 900 40 empty \$0-args ARGS 20 20 0 14 -1 -262144
0;
#X obj 15 735 cnv 15 900 40 empty \$0-see SEE 20 20 0 14 -1 -262144
0;
#X text 20 55 Band-limited rectangular wave oscillator;
#X text 90 140 Band-limited rectangular wave oscillator;
#X obj 50 290 cnv 15 60 15 empty empty 0 10 8 0 14 -128992 -262144
0;
#X obj 115 290 cnv 15 80 15 empty empty signal 5 8 0 12 -260097 -1
0;
#X text 200 287 frequency, f 37;
#X obj 115 323 cnv 15 80 15 empty empty float 5 8 0 12 -262144 -1
0;
#X text 200 320 frequency, f 37;
#X obj 50 366 cnv 15 60 15 empty empty 1 10 8 0 14 -128992 -262144
0;
#X obj 115 366 cnv 15 80 15 empty empty signal 5 8 0 12 -260097 -1
0;
#X text 200 363 duty cycle, f 37;
#X obj 115 399 cnv 15 80 15 empty empty float 5 8 0 12 -262144 -1
0;
#X text 200 396 duty cycle, f 37;
#X obj 50 442 cnv 15 60 15 empty empty 2 10 8 0 14 -128992 -262144
0;
#X obj 115 442 cnv 15 80 15 empty empty float 5 8 0 12 -262144 -1
0;
#X text 200 439 reset phase to value [0 \,1], f 37;
#X obj 530 290 cnv 15 60 15 empty empty 0 10 8 0 14 -128992 -262144
0;
#X obj 595 290 cnv 15 80 15 empty empty signal 5 8 0 12 -260097 -1
0;
#X text 680 287 rectangular waveform, f 37;
#X text 90 650 (1) frequency [float];
#X obj 100 800 vs.blrect~-example;
#X obj 300 800 pddp/pddplink vs.__objects_list__.pd -text VIRTUAL SOUND LIBRARY object list;
#N canvas 1184 100 150 210 see_also 0;
#X obj 10 10 osc~;
#X obj 10 35 cos~;
#X obj 10 60 vs.blrect~;
#X obj 10 85 vs.blsaw~;
#X obj 10 110 vs.blsquare~;
#X obj 10 135 vs.bltri~;
#X obj 10 160 vs.osc~;
#X restore 845 795 pd see_also;
