#N canvas 0 22 917 677 10;
#X obj 67 27 inlet;
#X obj 67 632 outlet;
#X obj 67 122 clip 0 22050;
#X obj 604 24 loadbang;
#X obj 604 48 samplerate~;
#X obj 160 98 / 2;
#X obj 465 94 vs.pi;
#X obj 67 602 pack 0 0 0 0 0;
#X obj 67 252 expr 1 / tan($f2 * ($f1 / $f3));
#X text 84 231 c: $f2=PI \, $f1=bw \, $f3=sr;
#X obj 327 252 expr 2 * cos(2 * $f2 * ($f1 / $f3));
#X text 365 229 d: $f1=center \, $f2=PI \, $f3=sr;
#X obj 121 363 expr 1 / (1 + $f1);
#X text 147 344 a0: $f1=c;
#X text 188 388 a2:;
#X obj 176 410 * -1;
#X text 191 602 a1 = 0 (always);
#X text 234 485 b1: $f1=c \, $f2=a0 \, $f3=d;
#X obj 93 557 expr -$f2 * ($f1 - 1);
#X text 108 535 b2: $f1=c \, $f2=a0;
#X obj 274 28 inlet;
#X obj 274 54 max 0;
#X obj 67 277 t f f f;
#X obj 67 484 expr $f2 * $f1 * $f3;
#X obj 67 210 /;
#X obj 67 147 t f f;
#X obj 67 185 f;
#X obj 274 97 t b f;
#X obj 225 634 print coeffs;
#X text 452 600 f.bianchi - M.Giri;
#X connect 0 0 2 0;
#X connect 2 0 25 0;
#X connect 3 0 4 0;
#X connect 3 0 6 0;
#X connect 4 0 5 0;
#X connect 4 0 8 2;
#X connect 4 0 10 2;
#X connect 5 0 2 2;
#X connect 6 0 8 1;
#X connect 6 0 10 1;
#X connect 7 0 1 0;
#X connect 8 0 22 0;
#X connect 10 0 23 2;
#X connect 12 0 15 0;
#X connect 12 0 7 2;
#X connect 12 0 18 1;
#X connect 12 0 23 1;
#X connect 15 0 7 4;
#X connect 18 0 7 1;
#X connect 20 0 21 0;
#X connect 21 0 27 0;
#X connect 22 0 23 0;
#X connect 22 1 18 0;
#X connect 22 2 12 0;
#X connect 23 0 7 0;
#X connect 24 0 8 0;
#X connect 25 0 26 0;
#X connect 25 1 10 0;
#X connect 26 0 24 0;
#X connect 27 0 26 0;
#X connect 27 1 24 1;
