#N canvas 395 350 415 237 10;
#X obj 27 22 inlet~;
#X obj 27 198 outlet~;
#X obj 90 22 inlet;
#X obj 90 128 vs.butterbpc;
#X obj 159 22 inlet;
#X obj 27 152 vs.kbiquad~;
#X obj 202 97 vs.defaulter 440;
#X obj 307 97 vs.defaulter 1;
#X obj 202 22 loadbang;
#X obj 202 44 t b b, f 18;
#X obj 202 70 f \$1;
#X obj 307 70 f \$2;
#X text 278 208 f.bianchi - M.Giri;
#X connect 0 0 5 0;
#X connect 2 0 3 0;
#X connect 3 0 5 1;
#X connect 4 0 3 1;
#X connect 5 0 1 0;
#X connect 6 0 3 0;
#X connect 7 0 3 1;
#X connect 8 0 9 0;
#X connect 9 0 10 0;
#X connect 9 1 11 0;
#X connect 10 0 6 0;
#X connect 11 0 7 0;
