#N canvas 172 22 551 532 10;
#X obj 15 117 phasor~;
#X obj 15 376 *~;
#X obj 197 359 expr~ 1 - $v1;
#X obj 197 76 /~ 44100;
#X obj 15 417 hip~ 5;
#X obj 15 467 *~ 0.5;
#X obj 80 309 rzero_rev~ 0;
#X obj 15 352 +~;
#X obj 15 496 outlet~;
#X obj 80 335 *~ -1.5;
#X obj 15 310 *~ 2.5;
#X obj 15 176 -~ 1;
#X obj 197 334 *~ 2;
#X obj 15 225 fexpr~ ($y1 + sin(3.14159265358979 * ($x1 + ((-1 * pow($y1
\, 2))*$x2)))) * 0.5;
#X obj 366 198 expr~ 54 * pow(0.5-$v1 \, 6);
#X obj 15 142 *~ 2;
#X obj 15 45 vs.argsig~ \$1;
#X obj 15 16 inlet~;
#X text 170 480 f.bianchi \, see http://scp.web.elte.hu/papers/synthesis1.pdf
;
#X connect 0 0 15 0;
#X connect 1 0 4 0;
#X connect 2 0 1 1;
#X connect 3 0 12 0;
#X connect 3 0 14 0;
#X connect 4 0 5 0;
#X connect 5 0 8 0;
#X connect 6 0 9 0;
#X connect 7 0 1 0;
#X connect 9 0 7 1;
#X connect 10 0 7 0;
#X connect 11 0 13 0;
#X connect 12 0 2 0;
#X connect 13 0 6 0;
#X connect 13 0 10 0;
#X connect 14 0 13 1;
#X connect 15 0 11 0;
#X connect 16 0 0 0;
#X connect 16 0 3 0;
#X connect 17 0 16 0;
