#N canvas 214 22 503 515 10;
#X obj 17 381 *~;
#X obj 301 336 *~ 2;
#X obj 301 361 expr~ 1 - $v1;
#X obj 301 126 /~ 44100;
#X obj 17 146 *~ 2;
#X obj 17 171 -~ 1;
#X obj 17 409 hip~ 5;
#X obj 332 157 expr~ 54 * pow(0.5-$v1 \, 6);
#X obj 102 242 rzero_rev~ 0;
#X obj 17 303 *~ 2.5;
#X obj 17 345 +~;
#X obj 102 328 *~ -1.5;
#X obj 17 457 *~ 0.5;
#X obj 17 212 fexpr~ ($y1 + sin(3.14159 * ($x1 + ($y1*$x2)))) * 0.5
;
#X obj 346 101 samplerate~;
#X obj 346 73 loadbang;
#X obj 332 181 *~ 1;
#X obj 17 486 outlet~;
#X obj 17 115 expr~ if ($v1 == 1 \, 0 \, $v1);
#X obj 17 41 vs.argsig~ \$1;
#X obj 17 16 inlet~;
#X obj 17 83 phasor~;
#X text 104 456 f.bianchi \, see http://scp.web.elte.hu/papers/synthesis1.pdf
;
#X connect 0 0 6 0;
#X connect 1 0 2 0;
#X connect 2 0 0 1;
#X connect 3 0 1 0;
#X connect 3 0 7 0;
#X connect 4 0 5 0;
#X connect 5 0 13 0;
#X connect 6 0 12 0;
#X connect 7 0 16 0;
#X connect 8 0 11 0;
#X connect 9 0 10 0;
#X connect 10 0 0 0;
#X connect 11 0 10 1;
#X connect 12 0 17 0;
#X connect 13 0 9 0;
#X connect 13 0 8 0;
#X connect 14 0 3 1;
#X connect 15 0 14 0;
#X connect 16 0 13 1;
#X connect 18 0 4 0;
#X connect 19 0 3 0;
#X connect 19 0 21 0;
#X connect 20 0 19 0;
#X connect 21 0 18 0;
