#N canvas 228 351 599 372 12;
#X obj 121 181 vs.biquad~;
#X obj 184 136 vs.bandpass_c;
#X obj 121 213 outlet~ sig;
#X obj 121 36 inlet~ sig;
#X obj 184 65 inlet~ freq;
#X obj 320 91 inlet~ Q;
#X obj 184 90 vs.argsig~ \$1;
#X obj 320 116 vs.argsig~ \$2;
#X connect 0 0 2 0;
#X connect 1 0 0 1;
#X connect 1 1 0 2;
#X connect 1 2 0 3;
#X connect 1 3 0 4;
#X connect 1 4 0 5;
#X connect 3 0 0 0;
#X connect 4 0 6 0;
#X connect 5 0 7 0;
#X connect 6 0 1 0;
#X connect 7 0 1 1;
