#N canvas 587 28 573 556 10;
#X obj 22 17 inlet~ sig;
#N canvas 688 248 483 396 stepdelay~ 0;
#X obj 122 69 noise~;
#X obj 271 71 inlet~;
#X obj 122 138 samphold~;
#X obj 149 163 vs.delay1~;
#X obj 149 188 samphold~;
#X obj 242 215 vs.delay1~;
#X obj 242 240 samphold~;
#X obj 333 267 vs.delay1~;
#X obj 333 292 samphold~;
#X obj 122 296 outlet~ y3;
#X obj 149 344 outlet~ y2;
#X obj 242 344 outlet~ y1;
#X obj 333 344 outlet~ y0;
#X connect 0 0 2 0;
#X connect 1 0 2 1;
#X connect 1 0 4 1;
#X connect 1 0 6 1;
#X connect 1 0 8 1;
#X connect 2 0 3 0;
#X connect 2 0 9 0;
#X connect 3 0 4 0;
#X connect 4 0 5 0;
#X connect 4 0 10 0;
#X connect 5 0 6 0;
#X connect 6 0 7 0;
#X connect 6 0 11 0;
#X connect 7 0 8 0;
#X connect 8 0 12 0;
#X restore 196 71 pd stepdelay~;
#X obj 353 310 -~;
#X obj 353 335 *~ 0.5;
#X text 408 336 c1;
#X text 488 248 c3;
#X obj 449 193 -~;
#X obj 449 218 *~ 0.5;
#X obj 449 246 +~;
#X obj 512 193 -~;
#X obj 512 218 *~ 1.5;
#X obj 231 258 *~ 0.5;
#X obj 191 229 *~ 2;
#X obj 191 254 +~;
#X obj 275 210 *~ 2.5;
#X obj 241 230 -~;
#X obj 191 279 -~;
#X text 225 284 c2;
#X obj 131 357 *~;
#X obj 131 382 +~;
#X obj 90 402 *~;
#X obj 90 427 +~;
#X obj 35 447 *~;
#X obj 35 493 +~;
#X obj 35 518 outlet~;
#X text 187 465 f.bianchi - M.Giri;
#X connect 0 0 1 0;
#X connect 0 0 18 0;
#X connect 0 0 20 0;
#X connect 0 0 22 0;
#X connect 1 0 6 0;
#X connect 1 0 11 0;
#X connect 1 1 2 0;
#X connect 1 1 9 1;
#X connect 1 1 12 0;
#X connect 1 2 9 0;
#X connect 1 2 14 0;
#X connect 1 2 23 1;
#X connect 1 3 2 1;
#X connect 1 3 6 1;
#X connect 1 3 15 0;
#X connect 2 0 3 0;
#X connect 3 0 21 1;
#X connect 6 0 7 0;
#X connect 7 0 8 0;
#X connect 8 0 18 1;
#X connect 9 0 10 0;
#X connect 10 0 8 1;
#X connect 11 0 16 1;
#X connect 12 0 13 0;
#X connect 13 0 16 0;
#X connect 14 0 15 1;
#X connect 15 0 13 1;
#X connect 16 0 19 1;
#X connect 18 0 19 0;
#X connect 19 0 20 1;
#X connect 20 0 21 0;
#X connect 21 0 22 1;
#X connect 22 0 23 0;
#X connect 23 0 24 0;
