#N canvas 461 328 409 227 10;
#X obj 12 13 inlet~;
#X obj 12 199 outlet~;
#X obj 75 13 inlet;
#X obj 144 13 inlet;
#X obj 75 125 vs.butterbrc;
#X obj 12 153 vs.kbiquad~;
#X obj 196 13 loadbang;
#X obj 196 35 t b b;
#X obj 196 57 f \$1;
#X obj 306 57 f \$2;
#X obj 196 79 vs.defaulter 440;
#X obj 306 79 vs.defaulter 1;
#X text 207 179 f.bianchi - M.Giri;
#X connect 0 0 5 0;
#X connect 2 0 4 0;
#X connect 3 0 4 1;
#X connect 4 0 5 1;
#X connect 5 0 1 0;
#X connect 6 0 7 0;
#X connect 7 0 8 0;
#X connect 7 1 9 0;
#X connect 8 0 10 0;
#X connect 9 0 11 0;
#X connect 10 0 4 0;
#X connect 11 0 4 1;
