#N canvas 200 100 970 850 12;
#X declare -path help_examples;
#X obj 100 20 declare -path help_examples;
#X obj 15 15 cnv 15 940 60 empty empty vs.between 20 20 0 36 -233017 -66577

0;
#X obj 75 105 cnv 15 880 140 empty \$0-canvas-description empty 20
12 0 14 -233017 -66577 0;
#X obj 555 255 cnv 15 400 360 empty \$0-canvas-outlets empty 20 12
0 14 -233017 -66577 0;
#X obj 75 255 cnv 15 400 360 empty \$0-canvas-inlets empty 20 12 0
14 -233017 -66577 0;
#X obj 75 625 cnv 15 880 120 empty \$0-canvas-args empty 20 12 0 14
-233017 -66577 0;
#X obj 75 755 cnv 15 880 80 empty \$0-canvas-see empty 20 12 0 14 -233017
-66577 0;
#X obj 15 90 cnv 15 900 40 empty \$0-description DESCRIPTION 20 20
0 14 -1 -262144 0;
#X obj 15 235 cnv 15 420 40 empty \$0-inlets INLETS 25 20 0 14 -1 -262144
0;
#X obj 496 235 cnv 15 420 40 empty \$0-outlets OUTLETS 25 20 0 14 -1
-262144 0;
#X obj 15 605 cnv 15 900 40 empty \$0-args ARGS 20 20 0 14 -1 -262144
0;
#X obj 15 735 cnv 15 900 40 empty \$0-see SEE 20 20 0 14 -1 -262144
0;
#X text 20 55 Outputs random numbers between a minimum and a maximum ;
#X text 90 140 When receives a bang \, it generates and outputs a random number between min and max. If third argument is 0 \, vs.between generates floats \, otherwise ints (default: 0).;
#X obj 50 290 cnv 15 60 15 empty empty 0 10 8 0 14 -128992 -262144
0;
#X obj 115 290 cnv 15 80 15 empty empty bang 5 8 0 12 -262144 -1
0;
#X text 200 287 performs action, f 37;
#X obj 50 333 cnv 15 60 15 empty empty 1 10 8 0 14 -128992 -262144
0;
#X obj 115 333 cnv 15 80 15 empty empty float 5 8 0 12 -262144 -1
0;
#X text 200 330 min, f 37;
#X obj 50 376 cnv 15 60 15 empty empty 2 10 8 0 14 -128992 -262144
0;
#X obj 115 376 cnv 15 80 15 empty empty float 5 8 0 12 -262144 -1
0;
#X text 200 373 max, f 37;
#X obj 530 290 cnv 15 60 15 empty empty 0 10 8 0 14 -128992 -262144
0;
#X obj 595 290 cnv 15 80 15 empty empty float 5 8 0 12 -262144 -1
0;
#X text 680 287 generated value, f 37;
#X text 90 650 (1) min [float];
#X text 90 665 (2) max [float];
#X text 90 680 (3) type: 0 for floats \, otherwise integers [int];
#X obj 100 800 vs.between-example;
#X obj 300 800 pddp/pddplink vs.__objects_list__.pd -text VIRTUAL SOUND LIBRARY object list;
#N canvas 1184 100 150 360 see_also 0;
#X obj 10 10 vs.choose;
#X obj 10 35 random;
#X obj 10 60 vs.between;
#X obj 10 85 vs.decide;
#X obj 10 110 vs.drunk;
#X obj 10 135 vs.listfrand;
#X obj 10 160 vs.listrand;
#X obj 10 185 vs.random;
#X obj 10 210 vs.scramble;
#X obj 10 235 vs.urn;
#X obj 10 260 vs.wrandom;
#X obj 10 285 vs.xrandom;
#X restore 845 795 pd see_also;
