#N canvas 283 98 749 620 10;
#X obj 314 30 inlet~ freq;
#X obj 282 163 vs.filternorm~;
#X obj 261 99 *~;
#X text 209 101 K * K;
#X obj 137 490 outlet~ a1;
#X obj 137 146 -~ 1;
#X obj 137 183 *~;
#X obj 137 208 *~ -2;
#X obj 293 348 sig~ 1;
#X obj 453 314 /~;
#X obj 261 438 *~;
#X obj 261 465 *~ -1;
#X obj 261 490 outlet~ a2;
#X text 269 512 a2 = (1 - K / Q + K * K) * norm \;;
#X text 25 513 a1 = 2 * (K * K - 1) * norm;
#X obj 432 368 *~;
#X obj 432 483 outlet~ b0;
#X obj 531 483 outlet~ b1;
#X obj 531 454 sig~ 0;
#X obj 632 450 *~ -1;
#X obj 632 483 outlet~ b2;
#X text 465 370 b0 = K / Q * norm;
#X obj 261 413 +~;
#X obj 293 393 -~;
#X obj 474 143 max~ 0.001;
#X obj 474 30 inlet~ Q;
#X text 26 573 f.bianchi \, Thank's to Nigel Redmond: http://www.earlevel.com/main/2011/01/02/biquad-formulas/
;
#X obj 314 60 vs.fattorek~;
#X connect 0 0 27 0;
#X connect 1 0 6 1;
#X connect 1 0 10 1;
#X connect 1 0 15 0;
#X connect 2 0 1 1;
#X connect 2 0 5 0;
#X connect 2 0 22 0;
#X connect 5 0 6 0;
#X connect 6 0 7 0;
#X connect 7 0 4 0;
#X connect 8 0 23 0;
#X connect 9 0 15 1;
#X connect 9 0 23 1;
#X connect 10 0 11 0;
#X connect 11 0 12 0;
#X connect 15 0 16 0;
#X connect 15 0 19 0;
#X connect 18 0 17 0;
#X connect 19 0 20 0;
#X connect 22 0 10 0;
#X connect 23 0 22 1;
#X connect 24 0 1 2;
#X connect 24 0 9 1;
#X connect 25 0 24 0;
#X connect 27 0 2 0;
#X connect 27 0 2 1;
#X connect 27 0 1 0;
#X connect 27 0 9 0;
