#N canvas 41 35 447 507 10;
#X obj 27 27 inlet;
#X obj 27 472 outlet;
#X obj 27 102 clip 0 22050;
#X obj 375 14 loadbang;
#X obj 120 50 samplerate~;
#X obj 120 78 / 2;
#X obj 133 133 vs.pi;
#X msg 375 177 2;
#X obj 375 202 sqrt;
#X obj 27 442 pack 0 0 0 0 0;
#X text 7 163 C;
#X obj 27 187 t f f;
#X obj 27 162 expr tan($f2 * ($f1 / $f3));
#X obj 74 233 expr 1 / (1 + $f2 * $f1 + ($f1 * $f1));
#X obj 108 415 * -2;
#X obj 27 330 expr -2 * $f2 * ($f1 * $f1 - 1);
#X text 50 306 b1: $f2=a0 \, $f1=c;
#X obj 54 381 expr -$f3 * (1 - $f2 * $f1 + ($f1 * $f1));
#X text 274 448 f.bianchi - M.Giri;
#X connect 0 0 2 0;
#X connect 2 0 12 0;
#X connect 3 0 4 0;
#X connect 3 0 6 0;
#X connect 3 0 7 0;
#X connect 4 0 5 0;
#X connect 4 0 12 2;
#X connect 5 0 2 2;
#X connect 6 0 12 1;
#X connect 7 0 8 0;
#X connect 8 0 13 1;
#X connect 8 0 17 1;
#X connect 9 0 1 0;
#X connect 11 0 15 0;
#X connect 11 1 13 0;
#X connect 11 1 17 0;
#X connect 12 0 11 0;
#X connect 13 0 14 0;
#X connect 13 0 9 2;
#X connect 13 0 9 4;
#X connect 13 0 15 1;
#X connect 13 0 17 2;
#X connect 14 0 9 3;
#X connect 15 0 9 0;
#X connect 17 0 9 1;
