#N canvas 41 35 390 513 10;
#X obj 27 17 inlet;
#X obj 27 472 outlet;
#X obj 27 92 clip 0 22050;
#X obj 272 14 loadbang;
#X obj 272 39 samplerate~;
#X obj 120 68 / 2;
#X obj 149 118 vs.pi;
#X obj 27 152 expr 1 / (tan($f2 * $f1 / $f3));
#X msg 312 158 2;
#X obj 312 183 sqrt;
#X obj 27 223 expr 1 / (1 + $f2 * $f1 + $f1 * $f1);
#X obj 108 414 * 2;
#X text 46 202 a0: $f1 -> c $f2 -> sqrt(2);
#X text 32 285 b1: $f1->c $f2: a0;
#X obj 27 442 pack 0 0 0 0 0;
#X text 7 153 C;
#X obj 27 248 t f f;
#X obj 27 308 expr -2 * $f1 * (1 - $f2 * $f2);
#X obj 54 376 expr -1 * $f1 * (1 - ($f2 * $f3) + ($f3 * $f3));
#X obj 27 177 t f f;
#X text 223 438 f.bianchi - M.Giri;
#X connect 0 0 2 0;
#X connect 2 0 7 0;
#X connect 3 0 4 0;
#X connect 3 0 6 0;
#X connect 3 0 8 0;
#X connect 4 0 5 0;
#X connect 4 0 7 2;
#X connect 5 0 2 2;
#X connect 6 0 7 1;
#X connect 7 0 19 0;
#X connect 8 0 9 0;
#X connect 9 0 10 1;
#X connect 9 0 18 1;
#X connect 10 0 16 0;
#X connect 11 0 14 3;
#X connect 14 0 1 0;
#X connect 16 0 17 0;
#X connect 16 1 14 2;
#X connect 16 1 11 0;
#X connect 16 1 14 4;
#X connect 16 1 18 0;
#X connect 17 0 14 0;
#X connect 18 0 14 1;
#X connect 19 0 10 0;
#X connect 19 1 17 1;
#X connect 19 1 18 2;
