#N canvas 0 22 353 272 10;
#X obj 21 186 outlet~;
#X obj 21 19 inlet;
#X obj 21 133 vs.delta~;
#X obj 21 158 expr~ $v1 < 0;
#X obj 21 77 vline~;
#X obj 201 197 array set \$0-click;
#X msg 201 170 1 0;
#X obj 21 105 tabread~ \$0-click;
#X msg 21 52 0 \, 1 2;
#X obj 202 110 array define \$0-click 2;
#X obj 201 142 loadbang;
#X text 254 239 f.bianchi;
#X connect 1 0 8 0;
#X connect 2 0 3 0;
#X connect 3 0 0 0;
#X connect 4 0 7 0;
#X connect 6 0 5 0;
#X connect 7 0 2 0;
#X connect 8 0 4 0;
#X connect 10 0 6 0;
