#N canvas 442 41 392 670 10;
#X obj 220 522 vs.lookup;
#X obj 220 353 list length;
#X obj 220 435 until;
#X obj 220 460 f;
#X obj 270 460 + 1;
#X obj 220 378 t f b;
#X obj 288 522 vs.lookup;
#X obj 339 491 list;
#X obj 203 321 t l l l b;
#X obj 220 485 t f f;
#X obj 220 582 sel 1;
#X obj 220 557 !=;
#X obj 156 615 list;
#X obj 150 266 t l l;
#X obj 14 12 inlet;
#X obj 96 640 outlet;
#X obj 96 95 list length;
#X obj 111 166 list length;
#X obj 96 191 ==;
#X obj 77 63 t l l l;
#X obj 96 216 sel 0 1;
#X obj 96 266 list;
#X obj 150 245 list;
#X obj 235 409 f 0;
#X obj 14 34 route clear;
#X obj 14 63 f -876543;
#X text 285 623 f.bianchi;
#X connect 0 0 11 0;
#X connect 1 0 5 0;
#X connect 2 0 3 0;
#X connect 3 0 4 0;
#X connect 3 0 9 0;
#X connect 4 0 3 1;
#X connect 5 0 2 0;
#X connect 5 1 23 0;
#X connect 6 0 11 1;
#X connect 7 0 6 1;
#X connect 8 0 7 1;
#X connect 8 1 1 0;
#X connect 8 2 0 1;
#X connect 8 3 7 0;
#X connect 9 0 0 0;
#X connect 9 1 6 0;
#X connect 10 0 2 1;
#X connect 10 0 12 0;
#X connect 11 0 10 0;
#X connect 12 0 15 0;
#X connect 13 0 8 0;
#X connect 13 1 12 1;
#X connect 14 0 24 0;
#X connect 16 0 18 0;
#X connect 17 0 18 1;
#X connect 18 0 20 0;
#X connect 19 0 17 0;
#X connect 19 1 16 0;
#X connect 19 2 21 1;
#X connect 19 2 22 1;
#X connect 20 0 21 0;
#X connect 20 1 22 0;
#X connect 21 0 7 1;
#X connect 21 0 15 0;
#X connect 22 0 13 0;
#X connect 23 0 3 1;
#X connect 24 0 25 0;
#X connect 24 1 19 0;
#X connect 25 0 7 1;
