#N canvas 441 315 263 310 10;
#X obj 39 136 list length;
#X floatatom 39 161 5 0 0 0 - - -, f 5;
#X obj 39 245 vs.lookup;
#X obj 39 183 t b f;
#X obj 39 57 inlet;
#X obj 39 270 outlet;
#X text 8 11 choose randomly an element of a list;
#X obj 39 107 t a a;
#X obj 39 80 list;
#X obj 39 215 random;
#X text 121 277 f.bianchi - M.Giri;
#X connect 0 0 1 0;
#X connect 1 0 3 0;
#X connect 2 0 5 0;
#X connect 3 0 9 0;
#X connect 3 1 9 1;
#X connect 4 0 8 0;
#X connect 7 0 0 0;
#X connect 7 1 2 1;
#X connect 8 0 7 0;
#X connect 9 0 2 0;
