#N canvas 200 100 970 850 12;
#X declare -path help_examples;
#X obj 100 20 declare -path help_examples;
#X obj 15 15 cnv 15 940 60 empty empty vs.counter 20 20 0 36 -233017 -66577

0;
#X obj 75 105 cnv 15 880 140 empty \$0-canvas-description empty 20
12 0 14 -233017 -66577 0;
#X obj 555 255 cnv 15 400 360 empty \$0-canvas-outlets empty 20 12
0 14 -233017 -66577 0;
#X obj 75 255 cnv 15 400 360 empty \$0-canvas-inlets empty 20 12 0
14 -233017 -66577 0;
#X obj 75 625 cnv 15 880 120 empty \$0-canvas-args empty 20 12 0 14
-233017 -66577 0;
#X obj 75 755 cnv 15 880 80 empty \$0-canvas-see empty 20 12 0 14 -233017
-66577 0;
#X obj 15 90 cnv 15 900 40 empty \$0-description DESCRIPTION 20 20
0 14 -1 -262144 0;
#X obj 15 235 cnv 15 420 40 empty \$0-inlets INLETS 25 20 0 14 -1 -262144
0;
#X obj 496 235 cnv 15 420 40 empty \$0-outlets OUTLETS 25 20 0 14 -1
-262144 0;
#X obj 15 605 cnv 15 900 40 empty \$0-args ARGS 20 20 0 14 -1 -262144
0;
#X obj 15 735 cnv 15 900 40 empty \$0-see SEE 20 20 0 14 -1 -262144
0;
#X text 20 55 Keeps count based on bang messages;
#X text 90 140 Outputs the current count of bang message constrained to a specified range. Can be set to count up or down;
#X obj 50 290 cnv 15 60 15 empty empty 0 10 8 0 14 -128992 -262144
0;
#X obj 115 290 cnv 15 80 15 empty empty bang 5 8 0 12 -262144 -1
0;
#X text 200 287 performs action, f 37;
#X obj 50 333 cnv 15 60 15 empty empty 1 10 8 0 14 -128992 -262144
0;
#X obj 115 333 cnv 15 80 15 empty empty int 5 8 0 12 -262144 -1
0;
#X text 200 330 min, f 37;
#X obj 50 376 cnv 15 60 15 empty empty 2 10 8 0 14 -128992 -262144
0;
#X obj 115 376 cnv 15 80 15 empty empty int 5 8 0 12 -262144 -1
0;
#X text 200 373 max, f 37;
#X obj 50 419 cnv 15 60 15 empty empty 3 10 8 0 14 -128992 -262144
0;
#X obj 115 419 cnv 15 80 15 empty empty int 5 8 0 12 -262144 -1
0;
#X text 200 416 direction \, 0 for up \, 1 for down (default: 0), f 37;
#X obj 50 462 cnv 15 60 15 empty empty 4 10 8 0 14 -128992 -262144
0;
#X obj 115 462 cnv 15 80 15 empty empty bang 5 8 0 12 -262144 -1
0;
#X text 200 459 reset to min, f 37;
#X obj 530 290 cnv 15 60 15 empty empty 0 10 8 0 14 -128992 -262144
0;
#X obj 595 290 cnv 15 80 15 empty empty int 5 8 0 12 -262144 -1
0;
#X text 680 287 value, f 37;
#X obj 530 333 cnv 15 60 15 empty empty 1 10 8 0 14 -128992 -262144
0;
#X obj 595 333 cnv 15 80 15 empty empty int 5 8 0 12 -262144 -1
0;
#X text 680 330 output 0 if min is reachied \, 1 if max is reached, f 37;
#X text 90 650 (1) min [int];
#X text 90 665 (2) max [int];
#X text 90 680 (3) direction \, 0 for up \, 1 for down (default: 0);
#X obj 100 800 vs.counter-example;
#X obj 300 800 pddp/pddplink vs.__objects_list__.pd -text VIRTUAL SOUND LIBRARY object list;
#N canvas 1184 100 150 180 see_also 0;
#X obj 10 10 until;
#X obj 10 35 vs.uzi;
#X obj 10 60 f;
#X obj 10 85 float;
#X obj 10 110 i;
#X obj 10 135 int;
#X restore 845 795 pd see_also;
