#N canvas 336 73 465 635 10;
#X obj 208 408 delay;
#X obj 208 435 list;
#X obj 208 381 t b f;
#X obj 173 330 list split 1;
#X obj 64 11 inlet;
#X obj 64 551 outlet~;
#X obj 64 252 list split 3;
#X obj 135 405 t f b f;
#X obj 64 282 t l l l;
#X obj 208 356 unpack;
#X obj 64 513 vs.kcurvescale~ 0 1 0 1 0;
#X obj 64 401 line~ \$1;
#X obj 242 11 inlet;
#X obj 283 11 inlet;
#X obj 110 64 pack 0 0 0;
#X obj 64 33 route list float;
#X msg 318 208 \$2;
#X obj 318 281 +;
#X obj 352 281 f;
#X msg 338 247 0;
#X obj 299 313 f;
#X obj 299 151 t b l b;
#X obj 318 186 vs.niter 3;
#X obj 299 503 outlet;
#X text 342 505 bang when finished;
#X obj 299 471 delay;
#X obj 135 437 f;
#X text 316 603 f.bianchi;
#X connect 0 0 1 0;
#X connect 1 0 6 0;
#X connect 2 0 0 0;
#X connect 2 1 0 1;
#X connect 3 0 7 0;
#X connect 3 1 9 0;
#X connect 4 0 15 0;
#X connect 6 0 8 0;
#X connect 6 1 1 1;
#X connect 7 0 26 1;
#X connect 7 1 26 0;
#X connect 7 2 10 2;
#X connect 7 2 10 4;
#X connect 8 0 11 0;
#X connect 8 1 3 0;
#X connect 9 0 2 0;
#X connect 9 1 10 5;
#X connect 10 0 5 0;
#X connect 11 0 10 0;
#X connect 12 0 14 1;
#X connect 13 0 14 2;
#X connect 14 0 6 0;
#X connect 15 0 6 0;
#X connect 15 0 21 0;
#X connect 15 1 14 0;
#X connect 16 0 17 0;
#X connect 17 0 18 0;
#X connect 17 0 20 1;
#X connect 18 0 17 1;
#X connect 19 0 17 1;
#X connect 20 0 25 0;
#X connect 21 0 20 0;
#X connect 21 1 22 0;
#X connect 21 2 19 0;
#X connect 22 0 16 0;
#X connect 25 0 23 0;
#X connect 26 0 10 1;
#X connect 26 0 10 3;
