#N canvas 465 209 175 132 10;
#X obj 20 18 inlet~;
#X obj 20 92 outlet~;
#X obj 35 45 rzero_rev~ 0;
#X obj 20 69 -~;
#X text 97 103 f.bianchi;
#X connect 0 0 2 0;
#X connect 0 0 3 0;
#X connect 2 0 3 1;
#X connect 3 0 1 0;
