#N canvas 440 304 234 176 10;
#X obj 10 74 t f f;
#X obj 37 112 -;
#X obj 10 11 inlet;
#X obj 149 34 inlet;
#X obj 96 95 f 0;
#X obj 96 73 t b;
#X obj 37 134 outlet;
#X obj 10 34 route float bang clear;
#X text 99 143 f.bianchi - M.Giri;
#X connect 0 0 1 1;
#X connect 0 1 1 0;
#X connect 1 0 6 0;
#X connect 2 0 7 0;
#X connect 3 0 5 0;
#X connect 4 0 1 1;
#X connect 5 0 4 0;
#X connect 7 0 0 0;
#X connect 7 1 5 0;
#X connect 7 2 5 0;
