#N canvas 211 55 835 638 10;
#X obj 106 291 +;
#X obj 156 291 f;
#X obj 641 7 loadbang;
#X obj 421 194 random 100;
#X obj 106 15 inlet bang;
#X obj 106 60 route bang set seed;
#X msg 180 87 seed \$1;
#X obj 361 15 inlet max;
#X obj 451 170 t b f;
#X obj 489 15 inlet step;
#X obj 641 81 f \$1;
#X obj 719 49 f \$2;
#X obj 641 106 vs.defaulter 100;
#X obj 719 77 vs.defaulter 10;
#X obj 641 32 t b b;
#X obj 641 131 t f f;
#X obj 137 493 !=;
#X obj 92 460 t f f f, f 8;
#X obj 92 567 route 1 0;
#X obj 197 569 t b;
#X obj 92 531 list prepend;
#X obj 106 351 expr if ($f1 > $f2 \, $f2 - ($f1 - $f2) \, $f1);
#X text 374 354 $f2 = max;
#X obj 53 611 outlet;
#X obj 53 427 vs.gate;
#X obj 53 353 < 0;
#X obj 53 378 + 1;
#X obj 719 176 s \$0-repetition;
#X obj 172 150 abs;
#X obj 53 322 r \$0-repetition;
#X obj 106 386 expr if ($f1 < 0 \, abs($f1) \, $f1);
#X obj 106 211 random 15;
#X obj 106 236 - 7;
#X obj 189 172 * 2;
#X obj 189 194 - 1;
#X obj 172 219 - 1;
#X obj 361 325 abs;
#X text 395 604 f.bianchi;
#X connect 0 0 21 0;
#X connect 1 0 0 1;
#X connect 2 0 14 0;
#X connect 3 0 0 1;
#X connect 4 0 5 0;
#X connect 5 0 31 0;
#X connect 5 1 0 1;
#X connect 5 2 6 0;
#X connect 6 0 31 0;
#X connect 7 0 8 0;
#X connect 7 0 36 0;
#X connect 8 0 3 0;
#X connect 8 1 3 1;
#X connect 9 0 27 0;
#X connect 9 0 28 0;
#X connect 10 0 12 0;
#X connect 11 0 13 0;
#X connect 12 0 15 0;
#X connect 13 0 27 0;
#X connect 13 0 28 0;
#X connect 14 0 10 0;
#X connect 14 1 11 0;
#X connect 15 0 8 0;
#X connect 15 1 36 0;
#X connect 16 0 20 1;
#X connect 17 0 20 0;
#X connect 17 1 16 1;
#X connect 17 2 16 0;
#X connect 18 0 23 0;
#X connect 18 0 1 0;
#X connect 18 1 19 0;
#X connect 19 0 5 0;
#X connect 20 0 18 0;
#X connect 21 0 30 0;
#X connect 24 0 23 0;
#X connect 24 0 1 0;
#X connect 24 1 17 0;
#X connect 25 0 26 0;
#X connect 26 0 24 0;
#X connect 28 0 33 0;
#X connect 28 0 35 0;
#X connect 29 0 25 0;
#X connect 30 0 24 1;
#X connect 31 0 32 0;
#X connect 32 0 0 0;
#X connect 33 0 34 0;
#X connect 34 0 31 1;
#X connect 35 0 32 1;
#X connect 36 0 21 1;
