#N canvas 535 278 252 218 10;
#X obj 18 139 *~;
#X obj 168 97 noise~;
#X obj 168 122 abs~;
#X obj 18 164 outlet~;
#X obj 18 15 inlet~;
#X obj 18 40 vs.argsig~ \$1;
#X obj 18 94 vs.randclick~;
#X text 115 188 f.bianchi - M.Giri;
#X connect 0 0 3 0;
#X connect 1 0 2 0;
#X connect 2 0 0 1;
#X connect 4 0 5 0;
#X connect 5 0 6 0;
#X connect 6 0 0 0;
