#N canvas 505 335 374 276 10;
#X obj 100 100 tgl 15 0 \$0-dspturn \$0-dspturntoggle DSP 19 9 1 11
-262144 -1 -1 0 1;
#X msg 101 210 \; pd dsp \$1;
#X obj 101 164 r \$0-dspturn;
#X obj 193 140 r pd;
#X obj 193 163 route dsp;
#X obj 193 184 vs.pset;
#X obj 193 206 s \$0-dspturntoggle;
#X obj 55 37 r pd-dsp-stopped;
#X text 256 252 f.bianchi;
#X connect 2 0 1 0;
#X connect 3 0 4 0;
#X connect 4 0 5 0;
#X connect 5 0 6 0;
#X coords 0 -1 1 1 45 15 2 100 100;
