#N canvas 260 392 255 200 10;
#X obj 13 13 inlet;
#X obj 13 120 outlet;
#X obj 13 75 *;
#X obj 115 14 loadbang;
#X obj 115 36 vs.pi;
#X obj 115 58 / 180;
#X text 66 121 degree to radians;
#X text 120 169 f.bianchi - M.Giri;
#X connect 0 0 2 0;
#X connect 2 0 1 0;
#X connect 3 0 4 0;
#X connect 4 0 5 0;
#X connect 5 0 2 1;
