#N canvas 277 215 221 416 10;
#X obj 77 189 vs.iter;
#X obj 77 263 +;
#X obj 106 264 f;
#X obj 77 327 list prepend;
#X obj 165 327 list;
#X obj 56 359 list;
#X obj 59 141 t b l b b;
#X obj 92 229 f \$1;
#X obj 13 18 inlet;
#X obj 56 384 outlet;
#X obj 59 114 list;
#X obj 59 72 t b f;
#X obj 136 21 inlet list;
#X obj 13 40 route bang float;
#X text 134 383 f.bianchi;
#X connect 0 0 1 0;
#X connect 1 0 2 0;
#X connect 1 0 3 0;
#X connect 2 0 1 1;
#X connect 3 0 4 0;
#X connect 3 0 5 1;
#X connect 4 0 3 1;
#X connect 5 0 9 0;
#X connect 6 0 5 0;
#X connect 6 1 0 0;
#X connect 6 2 7 0;
#X connect 6 3 3 1;
#X connect 7 0 1 1;
#X connect 7 0 3 0;
#X connect 8 0 13 0;
#X connect 10 0 6 0;
#X connect 11 0 10 0;
#X connect 11 1 7 1;
#X connect 12 0 10 1;
#X connect 13 0 10 0;
#X connect 13 1 11 0;
