#N canvas 570 305 312 213 10;
#X obj 25 17 inlet bangfloat;
#X obj 217 68 inlet curve;
#X obj 165 17 inlet omin;
#X obj 191 42 inlet omax;
#X obj 25 99 vs.uzi \$1 1;
#X obj 71 71 t f f;
#X obj 25 42 route bang float;
#X obj 88 183 outlet;
#X obj 88 154 vs.group \$1;
#X obj 88 125 vs.scale 1 \$1 \$2 \$3 \$4;
#X text 183 180 f.bianchi - M.Giri;
#X connect 0 0 6 0;
#X connect 1 0 9 5;
#X connect 2 0 9 3;
#X connect 3 0 9 4;
#X connect 4 2 9 0;
#X connect 5 0 4 0;
#X connect 5 1 8 1;
#X connect 5 1 9 2;
#X connect 6 0 4 0;
#X connect 6 1 5 0;
#X connect 8 0 7 0;
#X connect 9 0 8 0;
