#N canvas 124 39 1066 678 10;
#X text 15 16 4 point envelope;
#X obj 91 277 vs.uzi;
#X obj 124 299 t f f;
#X obj 124 235 r \$0-adim;
#X obj 226 232 t b l;
#X obj 226 416 moses;
#X obj 287 433 moses;
#X obj 328 106 vs.pak4, f 29;
#X floatatom 328 58 5 0 100 0 - #0-ay -, f 5;
#X floatatom 385 58 5 0 100 0 - #0-by -, f 5;
#X floatatom 442 58 5 0 100 0 - #0-cy -, f 5;
#X floatatom 499 58 5 0 100 0 - #0-dy -, f 5;
#X obj 226 181 list, f 22;
#X obj 328 128 t b l;
#X text 397 35 (0 - 1);
#X floatatom 226 58 5 0 100 0 - #0-bx -, f 5;
#X floatatom 271 58 5 0 100 0 - #0-cx -, f 5;
#X obj 226 159 vs.pak, f 8;
#X obj 253 279 / 100;
#X obj 253 301 * 512;
#X obj 314 279 / 100;
#X obj 314 301 * 512;
#X obj 253 323 int;
#X obj 314 323 int;
#X obj 848 179 loadbang;
#X obj 875 246 s \$0-adim;
#X obj 226 499 /;
#X obj 226 530 vs.scale 0 1 0 1;
#X obj 287 465 -;
#X obj 336 498 /;
#X obj 336 530 vs.scale 0 1 0 1;
#X obj 446 530 vs.scale 0 1 0 1;
#X text 200 502 AB;
#X text 314 499 BC;
#X obj 446 498 /;
#X text 424 499 CD;
#X obj 491 433 vs.!-;
#X obj 518 386 r \$0-adim;
#X obj 924 203 bng 15 250 50 0 empty empty empty 17 7 0 10 -262144
-1 -1;
#X obj 446 470 -;
#X obj 351 471 vs.!-;
#X obj 328 81 / 100;
#X obj 385 81 / 100;
#X obj 442 81 / 100;
#X obj 499 81 / 100;
#X obj 586 60 vs.pak3, f 15;
#X floatatom 586 36 5 0 0 0 - #0-abcurve -, f 5;
#X floatatom 629 36 5 0 0 0 - #0-bccurve -, f 5;
#X floatatom 673 36 5 0 0 0 - #0-cdcurve -, f 5;
#X text 627 13 curves;
#X obj 586 82 t b l;
#X obj 226 206 list, f 65;
#X obj 253 257 unpack 0 0 0 0 0 0 0 0 0, f 82;
#X floatatom 720 465 5 0 100 0 - - #0-ay, f 5;
#X floatatom 757 465 5 0 100 0 - - #0-by, f 5;
#X floatatom 794 465 5 0 100 0 - - #0-cy, f 5;
#X floatatom 831 465 5 0 100 0 - - #0-dy, f 5;
#X text 704 465 Y:;
#X floatatom 757 441 5 0 100 0 - - #0-bx, f 5;
#X floatatom 794 441 5 0 100 0 - - #0-cx, f 5;
#X text 704 441 X:;
#X text 720 441 0;
#X text 719 421 A;
#X text 757 421 B;
#X text 794 421 C;
#X text 831 421 D;
#X floatatom 747 495 5 0 0 2 AB - #0-abcurve, f 5;
#X floatatom 789 495 5 0 0 2 BC - #0-bccurve, f 5;
#X floatatom 831 495 5 0 0 2 CD - #0-cdcurve, f 5;
#X text 703 495 Curve:;
#X text 829 441 100;
#X obj 875 224 array size \$1;
#X obj 88 584 tabwrite \$1;
#X obj 848 201 t b b;
#X obj 814 276 f 30;
#X obj 849 276 f 60;
#X obj 762 296 f 50;
#X obj 797 296 f 20;
#X obj 830 296 f 100;
#X obj 873 296 f 60;
#X obj 691 326 inlet;
#X obj 691 348 route bx cx ay by cy dy abcurve bccurve cdcurve;
#X obj 864 374 unpack 0 0 0 0 0 0 0 0 0;
#X text 639 596 f.bianchi;
#X connect 1 2 2 0;
#X connect 2 0 5 0;
#X connect 2 1 72 1;
#X connect 3 0 1 1;
#X connect 3 0 19 1;
#X connect 3 0 21 1;
#X connect 4 0 1 0;
#X connect 4 1 52 0;
#X connect 5 0 26 0;
#X connect 5 1 6 0;
#X connect 6 0 28 0;
#X connect 6 1 39 0;
#X connect 7 0 13 0;
#X connect 8 0 41 0;
#X connect 9 0 42 0;
#X connect 10 0 43 0;
#X connect 11 0 44 0;
#X connect 12 0 51 0;
#X connect 13 0 17 0;
#X connect 13 1 12 1;
#X connect 15 0 17 0;
#X connect 16 0 17 1;
#X connect 17 0 12 0;
#X connect 18 0 19 0;
#X connect 19 0 22 0;
#X connect 20 0 21 0;
#X connect 21 0 23 0;
#X connect 22 0 5 1;
#X connect 22 0 26 1;
#X connect 22 0 28 1;
#X connect 22 0 40 0;
#X connect 23 0 6 1;
#X connect 23 0 36 0;
#X connect 23 0 39 1;
#X connect 23 0 40 1;
#X connect 24 0 73 0;
#X connect 26 0 27 0;
#X connect 27 0 72 0;
#X connect 28 0 29 0;
#X connect 29 0 30 0;
#X connect 30 0 72 0;
#X connect 31 0 72 0;
#X connect 34 0 31 0;
#X connect 36 0 34 1;
#X connect 37 0 36 1;
#X connect 38 0 71 0;
#X connect 39 0 34 0;
#X connect 40 0 29 1;
#X connect 41 0 7 0;
#X connect 42 0 7 1;
#X connect 43 0 7 2;
#X connect 44 0 7 3;
#X connect 45 0 50 0;
#X connect 46 0 45 0;
#X connect 47 0 45 1;
#X connect 48 0 45 2;
#X connect 50 0 7 0;
#X connect 50 1 51 1;
#X connect 51 0 4 0;
#X connect 52 0 18 0;
#X connect 52 1 20 0;
#X connect 52 2 27 3;
#X connect 52 3 27 4;
#X connect 52 3 30 3;
#X connect 52 4 30 4;
#X connect 52 4 31 3;
#X connect 52 5 31 4;
#X connect 52 6 27 5;
#X connect 52 7 30 5;
#X connect 52 8 31 5;
#X connect 71 0 25 0;
#X connect 73 0 74 0;
#X connect 73 0 75 0;
#X connect 73 0 76 0;
#X connect 73 0 77 0;
#X connect 73 0 78 0;
#X connect 73 0 79 0;
#X connect 73 1 71 0;
#X connect 74 0 58 0;
#X connect 75 0 59 0;
#X connect 76 0 53 0;
#X connect 77 0 54 0;
#X connect 78 0 55 0;
#X connect 79 0 56 0;
#X connect 80 0 81 0;
#X connect 81 0 58 0;
#X connect 81 1 59 0;
#X connect 81 2 53 0;
#X connect 81 3 54 0;
#X connect 81 4 55 0;
#X connect 81 5 56 0;
#X connect 81 6 66 0;
#X connect 81 7 67 0;
#X connect 81 8 68 0;
#X connect 81 9 82 0;
#X connect 82 0 58 0;
#X connect 82 1 59 0;
#X connect 82 2 53 0;
#X connect 82 3 54 0;
#X connect 82 4 55 0;
#X connect 82 5 56 0;
#X connect 82 6 66 0;
#X connect 82 7 67 0;
#X connect 82 8 68 0;
#X coords 0 -1 1 1 170 115 1 700 400;
