#N canvas 139 163 887 560 10;
#X floatatom 166 33 5 0 100 2 atk #0-atk -, f 5;
#X floatatom 209 33 5 0 100 2 rel #0-rel -, f 5;
#X obj 31 228 vs.uzi;
#X obj 64 180 r \$0-adim;
#X obj 166 157 t b l;
#X obj 193 215 / 100;
#X obj 193 237 * 512;
#X obj 532 23 loadbang;
#X obj 637 94 s \$0-adim;
#X floatatom 251 33 5 0 0 2 atkcurve #0-atkcurve -, f 5;
#X obj 166 435 vs.scale 0 1 0 1 0;
#X obj 371 261 int;
#X obj 371 213 / 100;
#X obj 371 238 * 512;
#X obj 193 259 int;
#X obj 371 289 vs.!-;
#X obj 166 289 moses;
#X obj 301 306 moses;
#X obj 166 331 /;
#X obj 64 253 t f f;
#X obj 301 348 t b;
#X obj 356 346 -;
#X obj 414 373 /;
#X floatatom 305 33 5 0 0 2 relcurve #0-relcurve -, f 5;
#X floatatom 628 321 5 0 100 0 atk - #0-atk, f 5;
#X floatatom 629 341 5 0 100 0 rel - #0-rel, f 5;
#X floatatom 678 321 5 0 0 1 atk_curve - #0-atkcurve, f 5;
#X floatatom 678 341 5 0 0 1 rel_curve - #0-relcurve, f 5;
#X msg 47 447 0 \$1;
#X obj 47 402 v \$0-aadim;
#X obj 47 424 - 2;
#X obj 571 115 v \$0-aadim;
#X obj 605 196 inlet;
#X obj 532 45 t b b b;
#X msg 551 144 const 0;
#X obj 551 166 s \$1;
#X obj 550 268 f 25;
#X obj 532 300 f 25;
#X obj 239 531 tabwrite \$1;
#X obj 571 71 array size \$1;
#X obj 605 220 route atk rel atkcurve relcurve;
#X obj 301 434 f 1;
#X obj 414 440 vs.scale 0 1 1 0;
#X obj 193 182 unpack 0 0 0 0, f 45;
#X obj 166 124 vs.pak4;
#X obj 788 243 unpack 0 0 0 0;
#X text 664 467 f.bianchi;
#X connect 0 0 44 0;
#X connect 1 0 44 1;
#X connect 2 1 29 0;
#X connect 2 2 19 0;
#X connect 3 0 2 1;
#X connect 4 0 2 0;
#X connect 4 1 43 0;
#X connect 5 0 6 0;
#X connect 6 0 14 0;
#X connect 7 0 33 0;
#X connect 9 0 44 2;
#X connect 10 0 38 0;
#X connect 11 0 15 0;
#X connect 11 0 22 1;
#X connect 12 0 13 0;
#X connect 13 0 11 0;
#X connect 14 0 16 1;
#X connect 14 0 18 1;
#X connect 15 0 17 1;
#X connect 15 0 21 1;
#X connect 16 0 18 0;
#X connect 16 1 17 0;
#X connect 17 0 20 0;
#X connect 17 1 21 0;
#X connect 18 0 10 0;
#X connect 19 0 16 0;
#X connect 19 1 38 1;
#X connect 20 0 41 0;
#X connect 21 0 22 0;
#X connect 22 0 42 0;
#X connect 23 0 44 3;
#X connect 28 0 38 0;
#X connect 29 0 30 0;
#X connect 30 0 28 0;
#X connect 32 0 40 0;
#X connect 33 0 36 0;
#X connect 33 0 37 0;
#X connect 33 1 34 0;
#X connect 33 2 39 0;
#X connect 34 0 35 0;
#X connect 36 0 24 0;
#X connect 37 0 25 0;
#X connect 39 0 6 1;
#X connect 39 0 8 0;
#X connect 39 0 13 1;
#X connect 39 0 15 1;
#X connect 39 0 31 0;
#X connect 40 0 24 0;
#X connect 40 1 25 0;
#X connect 40 2 26 0;
#X connect 40 3 27 0;
#X connect 40 4 45 0;
#X connect 41 0 38 0;
#X connect 42 0 38 0;
#X connect 43 0 5 0;
#X connect 43 1 12 0;
#X connect 43 2 10 5;
#X connect 43 3 42 5;
#X connect 44 0 4 0;
#X connect 45 0 24 0;
#X connect 45 1 25 0;
#X connect 45 2 26 0;
#X connect 45 3 27 0;
#X coords 0 -1 1 1 170 60 1 600 300;
