#N canvas 73 43 1107 718 10;
#X floatatom 253 56 5 0 100 2 atk #0-atk -, f 5;
#X floatatom 316 53 5 0 100 2 dec #0-dec -, f 5;
#X floatatom 379 38 5 0 100 2 sus #0-sus -, f 5;
#X floatatom 442 53 5 0 100 2 rel #0-rel -, f 5;
#X obj 253 259 int;
#X obj 342 260 int;
#X obj 253 82 vs.pak4, f 32;
#X obj 253 137 unpack 0 0 0 0, f 45;
#X obj 610 221 int;
#X obj 124 350 moses;
#X obj 253 367 moses;
#X obj 280 312 +;
#X obj 440 384 moses;
#X obj 610 289 vs.!-;
#X obj 542 401 -;
#X obj 91 207 vs.uzi;
#X obj 124 419 /;
#X obj 253 402 -;
#X obj 253 427 /;
#X obj 440 424 t b;
#X obj 440 452 f 0.75;
#X obj 124 239 t f f;
#X obj 542 426 /;
#X obj 910 227 loadbang;
#X obj 954 343 s \$0-adim;
#X obj 703 131 r \$0-adim;
#X obj 124 135 r \$0-adim;
#X obj 226 112 t b l;
#X obj 557 71 vs.pak3, f 24;
#X floatatom 557 46 5 0 0 2 atk_curve #0-atkcurve -, f 5;
#X floatatom 627 46 5 0 0 2 dec_curve #0-deccurve -, f 5;
#X floatatom 698 46 5 0 0 2 rel_curve #0-relcurve -, f 5;
#X obj 557 93 t b l;
#X obj 584 116 unpack 0 0 0;
#X obj 342 349 - 1;
#X obj 124 452 vs.scale 0 1 0 1;
#X obj 253 452 vs.scale 0 1 1 0.75;
#X obj 542 452 vs.scale 0 1 0.75 0;
#X obj 253 170 / 100;
#X obj 253 192 * 512;
#X obj 342 170 / 100;
#X obj 342 192 * 512;
#X obj 610 174 / 100;
#X obj 610 196 * 512;
#X floatatom 626 617 5 0 100 0 atk - #0-atk, f 5;
#X floatatom 626 638 5 0 100 0 dec - #0-dec, f 5;
#X floatatom 626 659 5 0 100 0 sus - #0-sus, f 5;
#X floatatom 626 680 5 0 100 0 rel - #0-rel, f 5;
#X floatatom 676 617 5 0 0 1 atk_curve - #0-atkcurve, f 5;
#X floatatom 676 638 5 0 0 1 dec_curve - #0-deccurve, f 5;
#X floatatom 676 680 5 0 0 1 rel_curve - #0-relcurve, f 5;
#X obj 536 631 f 75;
#X obj 379 57 / 100;
#X obj 720 509 route atk dec sus rel atkcurve deccurve relcurve;
#X obj 720 485 inlet;
#X obj 954 298 array size \$1;
#X obj 253 653 tabwrite \$1;
#X obj 536 580 f 10;
#X obj 536 605 f 10;
#X obj 536 658 f 20;
#X msg 107 584 0 \$1;
#X obj 974 322 v \$0-aadim;
#X obj 107 539 v \$0-aadim;
#X obj 107 561 - 2;
#X obj 910 250 t b b b;
#X msg 929 378 const 0;
#X obj 929 400 s \$1;
#X obj 958 541 unpack 0 0 0 0 0 0 0;
#X text 983 668 f.bianchi;
#X connect 0 0 6 0;
#X connect 1 0 6 1;
#X connect 2 0 52 0;
#X connect 3 0 6 3;
#X connect 4 0 11 0;
#X connect 4 0 17 1;
#X connect 4 0 9 1;
#X connect 4 0 16 1;
#X connect 5 0 11 1;
#X connect 5 0 34 0;
#X connect 6 0 27 0;
#X connect 7 0 38 0;
#X connect 7 1 40 0;
#X connect 7 2 20 1;
#X connect 7 2 36 4;
#X connect 7 2 37 3;
#X connect 7 3 42 0;
#X connect 8 0 22 1;
#X connect 8 0 13 0;
#X connect 9 0 16 0;
#X connect 9 1 10 0;
#X connect 10 0 17 0;
#X connect 10 1 12 0;
#X connect 11 0 10 1;
#X connect 12 0 19 0;
#X connect 12 1 14 0;
#X connect 13 0 14 1;
#X connect 13 0 12 1;
#X connect 14 0 22 0;
#X connect 15 1 62 0;
#X connect 15 2 21 0;
#X connect 16 0 35 0;
#X connect 17 0 18 0;
#X connect 18 0 36 0;
#X connect 19 0 20 0;
#X connect 20 0 56 0;
#X connect 21 0 9 0;
#X connect 21 1 56 1;
#X connect 22 0 37 0;
#X connect 23 0 64 0;
#X connect 25 0 39 1;
#X connect 25 0 41 1;
#X connect 25 0 43 1;
#X connect 25 0 13 1;
#X connect 26 0 15 1;
#X connect 27 0 15 0;
#X connect 27 1 7 0;
#X connect 28 0 32 0;
#X connect 29 0 28 0;
#X connect 30 0 28 1;
#X connect 31 0 28 2;
#X connect 32 0 6 0;
#X connect 32 1 33 0;
#X connect 33 0 35 5;
#X connect 33 1 36 5;
#X connect 33 2 37 5;
#X connect 34 0 18 1;
#X connect 35 0 56 0;
#X connect 36 0 56 0;
#X connect 37 0 56 0;
#X connect 38 0 39 0;
#X connect 39 0 4 0;
#X connect 40 0 41 0;
#X connect 41 0 5 0;
#X connect 42 0 43 0;
#X connect 43 0 8 0;
#X connect 51 0 46 0;
#X connect 52 0 6 2;
#X connect 53 0 44 0;
#X connect 53 1 45 0;
#X connect 53 2 46 0;
#X connect 53 3 47 0;
#X connect 53 4 48 0;
#X connect 53 5 49 0;
#X connect 53 6 50 0;
#X connect 53 7 67 0;
#X connect 54 0 53 0;
#X connect 55 0 24 0;
#X connect 55 0 61 0;
#X connect 57 0 44 0;
#X connect 58 0 45 0;
#X connect 59 0 47 0;
#X connect 60 0 56 0;
#X connect 62 0 63 0;
#X connect 63 0 60 0;
#X connect 64 0 51 0;
#X connect 64 0 57 0;
#X connect 64 0 58 0;
#X connect 64 0 59 0;
#X connect 64 1 65 0;
#X connect 64 2 55 0;
#X connect 65 0 66 0;
#X connect 67 0 44 0;
#X connect 67 1 45 0;
#X connect 67 2 46 0;
#X connect 67 3 47 0;
#X connect 67 4 48 0;
#X connect 67 5 49 0;
#X connect 67 6 50 0;
#X coords 0 -1 1 1 170 100 1 600 600;
