#N canvas 591 312 347 350 10;
#X obj 63 187 vs.iter;
#X obj 63 216 route float;
#X obj 231 25 loadbang;
#X obj 231 54 symbol \$1;
#X obj 44 124 inlet;
#X obj 63 245 list prepend;
#X obj 155 246 list;
#X obj 44 273 list;
#X obj 44 298 outlet;
#X obj 44 149 t b a b;
#X obj 167 27 inlet;
#X obj 181 70 symbol;
#X msg 167 150 symbol symbol;
#X msg 192 174 symbol float;
#X obj 167 123 route s f;
#X obj 231 83 list trim;
#X text 245 308 f.bianchi;
#X connect 0 0 1 0;
#X connect 1 0 5 0;
#X connect 2 0 3 0;
#X connect 3 0 15 0;
#X connect 4 0 9 0;
#X connect 5 0 6 0;
#X connect 5 0 7 1;
#X connect 6 0 5 1;
#X connect 7 0 8 0;
#X connect 9 0 7 0;
#X connect 9 1 0 0;
#X connect 9 2 5 1;
#X connect 10 0 11 0;
#X connect 10 0 14 0;
#X connect 12 0 1 1;
#X connect 13 0 1 1;
#X connect 14 0 12 0;
#X connect 14 1 13 0;
#X connect 15 0 14 0;
