#N canvas 453 86 802 589 10;
#N canvas 0 22 450 300 \$0-filterbank 0;
#X restore 9 11 pd \$0-filterbank;
#X obj 242 394 s pd-\$0-filterbank;
#X obj 157 146 loadbang;
#X obj 242 225 * 10;
#X obj 281 225 f \$0;
#X obj 258 17 inlet~;
#X obj 258 42 send~ \$0-source;
#X text 281 94 arg: \$0 basefreq \, mult \, Q \, gain \,;
#X text 206 444 vs.filterbank~ nr basefreq mult Q gain;
#X obj 60 470 catch~ \$0-snd;
#N canvas 108 287 208 233 multi 0;
#X obj 27 24 inlet;
#X obj 27 172 outlet;
#X obj 27 101 * 100;
#X obj 88 101 f;
#X obj 83 62 f \$2;
#X obj 27 62 f \$3;
#X obj 27 133 / \$3;
#X obj 83 38 loadbang;
#X connect 0 0 5 0;
#X connect 2 0 3 0;
#X connect 2 0 6 0;
#X connect 3 0 2 1;
#X connect 4 0 2 1;
#X connect 5 0 2 0;
#X connect 6 0 1 0;
#X connect 7 0 4 0;
#X restore 359 224 pd multi;
#X obj 242 283 pack 0 0 0 0 0 0, f 33;
#X obj 398 254 f \$4;
#X obj 437 224 f \$5;
#X text 481 224 gain;
#X text 437 254 Q;
#X text 310 225 frqs;
#X obj 157 171 vs.uzi \$1 1;
#X obj 242 198 t f b f b b b, f 33;
#X obj 60 520 outlet~;
#X obj 157 365 s \$0-active;
#N canvas 188 42 964 702 freq 0;
#X obj 87 46 inlet;
#X obj 87 463 send;
#X obj 132 363 f \$0;
#X obj 132 388 pack, f 5;
#X msg 132 415 \$1-frq-\$2;
#X obj 132 443 symbol;
#X obj 87 342 t f b;
#X obj 87 246 vs.listfunnel;
#X obj 87 145 list split 1;
#X obj 87 216 list;
#X obj 87 170 t b f;
#X obj 87 314 swap;
#X connect 0 0 8 0;
#X connect 2 0 3 0;
#X connect 3 0 4 0;
#X connect 4 0 5 0;
#X connect 5 0 1 1;
#X connect 6 0 1 0;
#X connect 6 1 2 0;
#X connect 7 0 11 0;
#X connect 8 0 10 0;
#X connect 8 1 9 1;
#X connect 9 0 7 0;
#X connect 10 0 9 0;
#X connect 10 1 7 1;
#X connect 11 0 6 0;
#X connect 11 1 3 1;
#X restore 625 82 pd freq;
#X obj 625 46 route freq Q gain;
#X obj 625 14 inlet;
#N canvas 188 42 964 702 Q 0;
#X obj 87 46 inlet;
#X obj 87 463 send;
#X obj 132 363 f \$0;
#X obj 132 388 pack, f 5;
#X obj 132 443 symbol;
#X obj 87 342 t f b;
#X obj 87 246 vs.listfunnel;
#X obj 87 145 list split 1;
#X obj 87 216 list;
#X obj 87 170 t b f;
#X obj 87 314 swap;
#X msg 132 415 \$1-Q-\$2;
#X connect 0 0 7 0;
#X connect 2 0 3 0;
#X connect 3 0 11 0;
#X connect 4 0 1 1;
#X connect 5 0 1 0;
#X connect 5 1 2 0;
#X connect 6 0 10 0;
#X connect 7 0 9 0;
#X connect 7 1 8 1;
#X connect 8 0 6 0;
#X connect 9 0 8 0;
#X connect 9 1 6 1;
#X connect 10 0 5 0;
#X connect 10 1 3 1;
#X connect 11 0 4 0;
#X restore 669 112 pd Q;
#N canvas 188 42 964 702 gain 0;
#X obj 87 46 inlet;
#X obj 87 463 send;
#X obj 132 363 f \$0;
#X obj 132 388 pack, f 5;
#X obj 132 443 symbol;
#X obj 87 342 t f b;
#X obj 87 314 swap;
#X msg 132 415 \$1-gain-\$2;
#X obj 87 246 vs.listfunnel;
#X obj 87 145 list split 1;
#X obj 87 216 list;
#X obj 87 170 t b f;
#X connect 0 0 9 0;
#X connect 2 0 3 0;
#X connect 3 0 7 0;
#X connect 4 0 1 1;
#X connect 5 0 1 0;
#X connect 5 1 2 0;
#X connect 6 0 5 0;
#X connect 6 1 3 1;
#X connect 7 0 4 0;
#X connect 8 0 6 0;
#X connect 9 0 11 0;
#X connect 9 1 10 1;
#X connect 10 0 8 0;
#X connect 11 0 10 0;
#X connect 11 1 8 1;
#X restore 713 112 pd gain;
#X text 374 360 \$0 num freq Q gain;
#X msg 242 338 obj \$1 \$1 vs.fbsingle~ \$2 \$3 \$4 \$5 \$6 \, loadbang
;
#X text 690 551 f.bianchi;
#X connect 2 0 17 0;
#X connect 3 0 11 0;
#X connect 4 0 11 1;
#X connect 5 0 6 0;
#X connect 9 0 19 0;
#X connect 10 0 11 3;
#X connect 11 0 27 0;
#X connect 12 0 11 4;
#X connect 13 0 11 5;
#X connect 17 2 18 0;
#X connect 18 0 3 0;
#X connect 18 1 4 0;
#X connect 18 2 11 2;
#X connect 18 3 10 0;
#X connect 18 4 12 0;
#X connect 18 5 13 0;
#X connect 22 0 21 0;
#X connect 22 1 24 0;
#X connect 22 2 25 0;
#X connect 23 0 22 0;
#X connect 27 0 1 0;
