#N canvas 421 122 223 204 10;
#X obj 13 12 inlet~ freq;
#X obj 13 128 *~;
#X obj 110 12 loadbang;
#X obj 110 62 vs.pi;
#X obj 137 91 samplerate~;
#X obj 110 37 t b b;
#X obj 110 108 /;
#X obj 13 153 expr~ tan($v1);
#X obj 13 178 outlet~;
#X text 140 160 f.bianchi;
#X connect 0 0 1 0;
#X connect 1 0 7 0;
#X connect 2 0 5 0;
#X connect 3 0 6 0;
#X connect 4 0 6 1;
#X connect 5 0 3 0;
#X connect 5 1 4 0;
#X connect 6 0 1 1;
#X connect 7 0 8 0;
