#N canvas 413 164 522 483 10;
#X obj 42 360 spigot;
#X obj 138 263 ==;
#X obj 138 293 vs.group;
#X obj 138 318 vs.sum;
#X obj 138 343 == 0;
#X obj 263 18 inlet;
#X text 304 18 atomi da eliminare (float o lista);
#X obj 23 18 inlet;
#X obj 23 452 outlet;
#X obj 138 161 list \$1;
#X obj 42 394 list prepend;
#X obj 135 394 list;
#X obj 23 424 list;
#X obj 23 69 t b l b;
#X obj 133 60 list length;
#X obj 42 97 vs.iter;
#X obj 138 191 vs.iter;
#X obj 23 43 t a a;
#X obj 42 122 t a b b a;
#X text 422 444 f.bianchi;
#X connect 0 0 10 0;
#X connect 1 0 2 0;
#X connect 2 0 3 0;
#X connect 3 0 4 0;
#X connect 4 0 0 1;
#X connect 5 0 9 1;
#X connect 7 0 17 0;
#X connect 9 0 16 0;
#X connect 10 0 11 0;
#X connect 10 0 12 1;
#X connect 11 0 10 1;
#X connect 12 0 8 0;
#X connect 13 0 12 0;
#X connect 13 1 15 0;
#X connect 13 2 10 1;
#X connect 13 2 12 1;
#X connect 14 0 2 1;
#X connect 15 0 18 0;
#X connect 16 0 1 0;
#X connect 17 0 13 0;
#X connect 17 1 14 0;
#X connect 18 0 0 0;
#X connect 18 1 2 0;
#X connect 18 2 9 0;
#X connect 18 3 1 1;
