#N canvas 422 222 297 209 12;
#X obj 56 90 sig~ 1;
#X obj 56 147 /~;
#X obj 173 82 /~;
#X obj 173 107 +~ 1;
#X obj 95 127 +~;
#X obj 194 12 inlet~ Q;
#X obj 15 12 inlet~ K;
#X obj 95 12 inlet~ K*K;
#X obj 56 172 outlet~;
#X text 196 173 f.bianchi;
#X connect 0 0 1 0;
#X connect 1 0 8 0;
#X connect 2 0 3 0;
#X connect 3 0 4 1;
#X connect 4 0 1 1;
#X connect 5 0 2 1;
#X connect 6 0 2 0;
#X connect 7 0 4 0;
