#N canvas 200 100 970 850 12;
#X declare -path help_examples;
#X obj 100 20 declare -path help_examples;
#X obj 15 15 cnv 15 940 60 empty empty vs.filterbank~ 20 20 0 36 -233017 -66577

0;
#X obj 75 105 cnv 15 880 140 empty \$0-canvas-description empty 20
12 0 14 -233017 -66577 0;
#X obj 555 255 cnv 15 400 360 empty \$0-canvas-outlets empty 20 12
0 14 -233017 -66577 0;
#X obj 75 255 cnv 15 400 360 empty \$0-canvas-inlets empty 20 12 0
14 -233017 -66577 0;
#X obj 75 625 cnv 15 880 120 empty \$0-canvas-args empty 20 12 0 14
-233017 -66577 0;
#X obj 75 755 cnv 15 880 80 empty \$0-canvas-see empty 20 12 0 14 -233017
-66577 0;
#X obj 15 90 cnv 15 900 40 empty \$0-description DESCRIPTION 20 20
0 14 -1 -262144 0;
#X obj 15 235 cnv 15 420 40 empty \$0-inlets INLETS 25 20 0 14 -1 -262144
0;
#X obj 496 235 cnv 15 420 40 empty \$0-outlets OUTLETS 25 20 0 14 -1
-262144 0;
#X obj 15 605 cnv 15 900 40 empty \$0-args ARGS 20 20 0 14 -1 -262144
0;
#X obj 15 735 cnv 15 900 40 empty \$0-see SEE 20 20 0 14 -1 -262144
0;
#X text 20 55 Filter bank;
#X text 90 140 Bank of bandpass filters. Every filter is a second order (resonant) bandpass filter. The output signal is the sum of every filtered signal.;
#X obj 50 290 cnv 15 60 15 empty empty 0 10 8 0 14 -128992 -262144
0;
#X obj 115 290 cnv 15 80 15 empty empty signal 5 8 0 12 -260097 -1
0;
#X text 200 287 source, f 37;
#X obj 50 333 cnv 15 60 15 empty empty 1 10 8 0 14 -128992 -262144
0;
#X obj 115 333 cnv 15 80 15 empty empty freq 5 8 0 12 -262144 -1
0;
#X text 200 330 frequencies prepended by idx of first filter (first by 1) [list[float]], f 37;
#X obj 115 366 cnv 15 80 15 empty empty Q 5 8 0 12 -262144 -1
0;
#X text 200 363 list of Q's prepended by idx of first filter [list[float]], f 37;
#X obj 115 399 cnv 15 80 15 empty empty gain 5 8 0 12 -262144 -1
0;
#X text 200 396 list of gains prepended by idx of first filter [list[float]], f 37;
#X obj 530 290 cnv 15 60 15 empty empty 0 10 8 0 14 -128992 -262144
0;
#X obj 595 290 cnv 15 80 15 empty empty signal 5 8 0 12 -260097 -1
0;
#X text 680 287 filtered signal, f 37;
#X text 90 650 (1) nr of filters [int];
#X text 90 665 (2) base freq [float];
#X text 90 680 (3) multiplication factor [float];
#X text 90 695 (4) Q [float];
#X text 90 710 (5) gain [float];
#X obj 100 800 vs.filterbank~-example;
#X obj 300 800 pddp/pddplink vs.__objects_list__.pd -text VIRTUAL SOUND LIBRARY object list;
#N canvas 1184 100 150 50 see_also 0;
#X obj 10 10 vs.oscbank~;
#X restore 845 795 pd see_also;
