#N canvas 474 146 551 357 10;
#X obj 16 326 throw~ \$1-snd;
#X obj 211 40 r \$1-frq-\$2;
#X obj 309 40 r \$1-Q-\$2;
#X obj 433 181 r \$1-gain-\$2;
#X obj 16 15 receive~ \$1-source;
#X msg 433 216 \$1 20;
#X obj 511 98 f \$5;
#X obj 323 13 r \$1-active;
#X obj 433 242 vline~;
#X obj 211 92 line \$3 1;
#X msg 309 67 \$1 50;
#X obj 309 92 line \$4 1;
#X obj 423 62 loadbang;
#X obj 423 98 f \$3;
#X obj 467 98 f \$4;
#X obj 16 261 *~ 1;
#X obj 16 172 vs.kreson~, f 37;
#X msg 211 67 \$1 50;
#X text 235 308 f.bianchi;
#X connect 1 0 17 0;
#X connect 2 0 10 0;
#X connect 3 0 5 0;
#X connect 4 0 16 0;
#X connect 5 0 8 0;
#X connect 6 0 5 0;
#X connect 8 0 16 1;
#X connect 9 0 16 2;
#X connect 10 0 11 0;
#X connect 11 0 16 3;
#X connect 12 0 6 0;
#X connect 12 0 13 0;
#X connect 12 0 14 0;
#X connect 13 0 16 2;
#X connect 14 0 16 3;
#X connect 15 0 0 0;
#X connect 16 0 15 0;
#X connect 17 0 9 0;
