#N canvas 0 22 275 351 10;
#X declare -path ./;
#X obj 11 172 openpanel;
#X obj 11 18 inlet;
#X obj 11 123 t b b;
#X obj 11 197 list;
#X obj 95 140 symbol \$1;
#X obj 11 291 soundfiler;
#X obj 11 316 outlet;
#X msg 11 258 read -resize \$1 \$2;
#X obj 11 40 route bang;
#X obj 68 66 t a b;
#X obj 139 232 list length;
#X obj 139 254 print l;
#X obj 161 54 declare -path ./;
#X text 135 308 f.bianchi;
#X connect 0 0 3 0;
#X connect 1 0 8 0;
#X connect 2 0 0 0;
#X connect 2 1 4 0;
#X connect 3 0 10 0;
#X connect 3 0 7 0;
#X connect 4 0 3 1;
#X connect 5 0 6 0;
#X connect 7 0 5 0;
#X connect 8 0 2 0;
#X connect 8 1 9 0;
#X connect 9 0 3 0;
#X connect 9 1 4 0;
#X connect 10 0 11 0;
