#N canvas 200 100 970 850 12;
#X declare -path help_examples;
#X obj 100 20 declare -path help_examples;
#X obj 15 15 cnv 15 940 60 empty empty vs.gate~ 20 20 0 36 -233017 -66577

0;
#X obj 75 105 cnv 15 880 140 empty \$0-canvas-description empty 20
12 0 14 -233017 -66577 0;
#X obj 555 255 cnv 15 400 360 empty \$0-canvas-outlets empty 20 12
0 14 -233017 -66577 0;
#X obj 75 255 cnv 15 400 360 empty \$0-canvas-inlets empty 20 12 0
14 -233017 -66577 0;
#X obj 75 625 cnv 15 880 120 empty \$0-canvas-args empty 20 12 0 14
-233017 -66577 0;
#X obj 75 755 cnv 15 880 80 empty \$0-canvas-see empty 20 12 0 14 -233017
-66577 0;
#X obj 15 90 cnv 15 900 40 empty \$0-description DESCRIPTION 20 20
0 14 -1 -262144 0;
#X obj 15 235 cnv 15 420 40 empty \$0-inlets INLETS 25 20 0 14 -1 -262144
0;
#X obj 496 235 cnv 15 420 40 empty \$0-outlets OUTLETS 25 20 0 14 -1
-262144 0;
#X obj 15 605 cnv 15 900 40 empty \$0-args ARGS 20 20 0 14 -1 -262144
0;
#X obj 15 735 cnv 15 900 40 empty \$0-see SEE 20 20 0 14 -1 -262144
0;
#X text 20 55 Route a signal to one of several outlets;
#X text 90 140 Use gate~ to route an input signal at the second inlet to one of several outlets \, or to no outlet at all. When there is only one outlet (the default case) \, it acts as a simple switch. Unlike the Max gate object \, any outlet which is not selected outputs a signal composed of zero values.;
#X obj 50 290 cnv 15 60 15 empty empty 0 10 8 0 14 -128992 -262144
0;
#X obj 115 290 cnv 15 80 15 empty empty int 5 8 0 12 -262144 -1
0;
#X text 200 287 choose outlet to route on. Index start from 1 \, 0 close all, f 37;
#X obj 115 323 cnv 15 80 15 empty empty signal 5 8 0 12 -260097 -1
0;
#X text 200 320 choose outlet to route on. Index start from 1 \, 0 close all, f 37;
#X obj 50 366 cnv 15 60 15 empty empty 1 10 8 0 14 -128992 -262144
0;
#X obj 115 366 cnv 15 80 15 empty empty signal 5 8 0 12 -260097 -1
0;
#X text 200 363 Signal to route, f 37;
#X obj 530 290 cnv 15 60 15 empty empty 0 10 8 0 14 -128992 -262144
0;
#X obj 595 290 cnv 15 80 15 empty empty signal 5 8 0 12 -260097 -1
0;
#X text 680 287 signa pass here if index == 1, f 37;
#X obj 530 333 cnv 15 60 15 empty empty 1 10 8 0 14 -128992 -262144
0;
#X obj 595 333 cnv 15 80 15 empty empty signal 5 8 0 12 -260097 -1
0;
#X text 680 330 signa pass here if index == 2, f 37;
#X obj 530 376 cnv 15 60 15 empty empty 2 10 8 0 14 -128992 -262144
0;
#X obj 595 376 cnv 15 80 15 empty empty signal 5 8 0 12 -260097 -1
0;
#X text 680 373 index pass here if index > 2, f 37;
#X text 90 650 None;
#X obj 100 800 vs.gate~-example;
#X obj 300 800 pddp/pddplink vs.__objects_list__.pd -text VIRTUAL SOUND LIBRARY object list;
#N canvas 1184 100 150 390 see_also 0;
#X obj 10 10 vs.gate~;
#X obj 10 35 vs.gate3~;
#X obj 10 60 vs.gate4~;
#X obj 10 85 vs.sel~;
#X obj 10 110 vs.sel3~;
#X obj 10 135 vs.sel4~;
#X obj 10 160 vs.gate;
#X obj 10 185 vs.gate3;
#X obj 10 210 vs.gate4;
#X obj 10 235 vs.switch;
#X obj 10 260 vs.switch3;
#X obj 10 285 vs.switch4;
#X obj 10 310 spigot;
#X restore 845 795 pd see_also;
