#N canvas 178 213 838 252 10;
#X obj 15 140 vs.selout~ 1;
#X obj 237 143 vs.selout~ 2;
#X obj 15 165 outlet~;
#X obj 237 168 outlet~;
#X obj 626 17 inlet~;
#X obj 84 18 inlet~;
#X obj 447 168 outlet~;
#X obj 447 143 vs.selout~ 3;
#X obj 626 169 outlet~;
#X obj 626 144 vs.selout~ 4;
#X obj 774 174 outlet~;
#X obj 774 143 max~ 0;
#X obj 774 110 -~ 4;
#X text 708 219 f.bianchi - M.Giri;
#X connect 0 0 2 0;
#X connect 1 0 3 0;
#X connect 4 0 0 0;
#X connect 4 0 1 0;
#X connect 4 0 7 0;
#X connect 4 0 9 0;
#X connect 5 0 0 1;
#X connect 5 0 1 1;
#X connect 5 0 7 1;
#X connect 5 0 9 1;
#X connect 5 0 12 0;
#X connect 7 0 6 0;
#X connect 9 0 8 0;
#X connect 11 0 10 0;
#X connect 12 0 11 0;
