#N canvas 137 118 767 418 10;
#X obj 115 314 spigot;
#X obj 258 314 spigot;
#X obj 258 21 inlet;
#X obj 115 351 outlet;
#X obj 258 351 outlet;
#X obj 148 289 == 1;
#X obj 291 291 == 2;
#X obj 408 314 spigot;
#X obj 408 351 outlet;
#X obj 441 284 == 3;
#X obj 78 21 inlet;
#X obj 639 226 outlet;
#X obj 639 163 - 3;
#X obj 78 73 int;
#X obj 639 185 max 0;
#X text 569 351 f.bianchi - M.Giri;
#X connect 0 0 3 0;
#X connect 1 0 4 0;
#X connect 2 0 0 0;
#X connect 2 0 1 0;
#X connect 2 0 7 0;
#X connect 5 0 0 1;
#X connect 6 0 1 1;
#X connect 7 0 8 0;
#X connect 9 0 7 1;
#X connect 10 0 13 0;
#X connect 12 0 14 0;
#X connect 13 0 5 0;
#X connect 13 0 6 0;
#X connect 13 0 9 0;
#X connect 13 0 12 0;
#X connect 14 0 11 0;
