#N canvas 518 116 689 454 10;
#X obj 34 11 inlet~;
#X obj 34 164 *~;
#X obj 49 138 line~;
#X obj 34 195 outlet~;
#X floatatom 49 35 6 0 0 0 - #0-amp -, f 6;
#X obj 423 62 s \$0-ampval;
#X obj 49 114 pack 0 25;
#X obj 201 137 cnv 15 28 18 empty \$0-lab -inf 2 12 1 11 -262144 -1
0;
#X obj 173 412 s \$0-lab;
#X floatatom 36 251 6 0 0 0 - #0-amp -, f 6;
#X obj 173 360 list prepend label;
#X obj 173 385 list trim;
#X obj 92 227 loadbang;
#X obj 530 88 s \$0-ampval;
#X obj 423 11 inlet db;
#X obj 530 11 inlet amp;
#X obj 88 82 vs.dbtoa;
#X obj 49 57 sel -70;
#X obj 49 82 f 0;
#X obj 36 275 sel -70;
#X obj 530 36 vs.atodb;
#X obj 423 36 clip -70 6;
#X obj 530 62 clip -70 6;
#X obj 200 59 vsl 30 77 -70 6 0 0 \$0-amp \$0-ampval empty 1 -11 0
14 -262144 -1 -257985 0 1;
#X obj 173 292 makefilename %5.1f;
#X msg 36 301 symbol -inf;
#X obj 36 329 makefilename %s;
#X obj 356 286 loadbang;
#X obj 356 346 s \$0-amp;
#X obj 427 346 s \$0-ampval;
#X obj 523 346 outlet;
#X obj 523 311 r \$0-amp;
#X msg 92 250 -70;
#X obj 356 311 f -70;
#X text 591 421 f.bianchi;
#X connect 0 0 1 0;
#X connect 1 0 3 0;
#X connect 2 0 1 1;
#X connect 4 0 17 0;
#X connect 6 0 2 0;
#X connect 9 0 19 0;
#X connect 10 0 11 0;
#X connect 11 0 8 0;
#X connect 12 0 32 0;
#X connect 14 0 21 0;
#X connect 15 0 20 0;
#X connect 16 0 6 0;
#X connect 17 0 18 0;
#X connect 17 1 16 0;
#X connect 18 0 6 0;
#X connect 19 0 25 0;
#X connect 19 1 24 0;
#X connect 20 0 22 0;
#X connect 21 0 5 0;
#X connect 22 0 13 0;
#X connect 24 0 10 0;
#X connect 25 0 26 0;
#X connect 26 0 10 0;
#X connect 27 0 33 0;
#X connect 31 0 30 0;
#X connect 32 0 19 0;
#X connect 33 0 28 0;
#X connect 33 0 29 0;
#X connect 33 0 30 0;
#X coords 0 -1 1 1 30 107 2 200 50;
