#N canvas 251 376 419 300 10;
#X floatatom 263 123 5 0 0 1 len - -, f 5;
#X obj 16 23 inlet;
#X obj 16 48 route bang float;
#X obj 62 75 t b f;
#X obj 263 27 inlet;
#X obj 314 27 inlet;
#X obj 366 27 inlet;
#X obj 67 261 outlet;
#X obj 16 137 vs.uzi \$1;
#X obj 67 236 vs.group \$1;
#X text 272 7 length \, start \, grow;
#X obj 67 176 f \$2;
#X obj 107 176 * \$3;
#X obj 88 147 f \$2;
#X obj 16 98 t b b;
#X text 329 265 f.bianchi;
#X connect 0 0 8 1;
#X connect 0 0 9 1;
#X connect 1 0 2 0;
#X connect 2 0 14 0;
#X connect 2 1 3 0;
#X connect 3 0 14 0;
#X connect 3 1 8 1;
#X connect 3 1 9 1;
#X connect 4 0 0 0;
#X connect 5 0 13 1;
#X connect 6 0 12 1;
#X connect 8 0 11 0;
#X connect 9 0 7 0;
#X connect 11 0 9 0;
#X connect 11 0 12 0;
#X connect 12 0 11 1;
#X connect 13 0 11 1;
#X connect 14 0 8 0;
#X connect 14 1 13 0;
