#N canvas 70 189 977 334 10;
#X obj 115 216 spigot;
#X obj 258 216 spigot;
#X obj 258 25 inlet;
#X obj 115 283 outlet;
#X obj 258 283 outlet;
#X obj 148 185 == 1;
#X obj 291 186 == 2;
#X obj 408 216 spigot;
#X obj 408 283 outlet;
#X obj 441 186 == 3;
#X obj 558 216 spigot;
#X obj 558 283 outlet;
#X obj 591 186 == 4;
#X obj 148 25 inlet;
#X obj 705 285 outlet;
#X obj 705 163 - 4;
#X obj 705 185 max 0;
#X obj 148 78 int;
#X text 817 290 f.bianchi - M.Giri;
#X connect 0 0 3 0;
#X connect 1 0 4 0;
#X connect 2 0 0 0;
#X connect 2 0 1 0;
#X connect 2 0 7 0;
#X connect 2 0 10 0;
#X connect 5 0 0 1;
#X connect 6 0 1 1;
#X connect 7 0 8 0;
#X connect 9 0 7 1;
#X connect 10 0 11 0;
#X connect 12 0 10 1;
#X connect 13 0 17 0;
#X connect 15 0 16 0;
#X connect 16 0 14 0;
#X connect 17 0 5 0;
#X connect 17 0 6 0;
#X connect 17 0 9 0;
#X connect 17 0 12 0;
#X connect 17 0 15 0;
