#N canvas 178 213 962 231 10;
#X obj 15 140 vs.selout~ 1;
#X obj 237 143 vs.selout~ 2;
#X obj 15 165 outlet~;
#X obj 237 168 outlet~;
#X obj 237 17 inlet~;
#X obj 84 16 inlet~;
#X obj 447 168 outlet~;
#X obj 447 143 vs.selout~ 3;
#X obj 609 172 outlet~;
#X obj 609 141 max~ 0;
#X obj 609 108 -~ 3;
#X text 708 180 f.bianchi - M.Giri;
#X connect 0 0 2 0;
#X connect 1 0 3 0;
#X connect 4 0 0 0;
#X connect 4 0 1 0;
#X connect 4 0 7 0;
#X connect 5 0 0 1;
#X connect 5 0 1 1;
#X connect 5 0 7 1;
#X connect 5 0 10 0;
#X connect 7 0 6 0;
#X connect 9 0 8 0;
#X connect 10 0 9 0;
