#N canvas 49 154 389 407 10;
#X obj 20 16 inlet~;
#X obj 20 270 rpole~;
#X obj 20 374 outlet~;
#X obj 143 16 inlet~;
#X obj 244 76 samplerate~;
#X obj 324 16 loadbang;
#X obj 244 115 / 2;
#X obj 143 155 clip~ 0 22050;
#X obj 143 250 clip~ 0 1;
#X obj 324 161 vs.pi;
#X obj 143 42 vs.argsig~ \$1;
#X obj 20 325 rzero~ 1;
#X obj 143 190 expr~ 1 - $v1 * $f3/$f2;
#X text 132 354 thank's to .mmb;
#X connect 0 0 1 0;
#X connect 1 0 11 0;
#X connect 3 0 10 0;
#X connect 4 0 6 0;
#X connect 4 0 12 1;
#X connect 5 0 4 0;
#X connect 5 0 9 0;
#X connect 6 0 7 2;
#X connect 7 0 12 0;
#X connect 8 0 1 1;
#X connect 9 0 12 2;
#X connect 10 0 7 0;
#X connect 11 0 2 0;
#X connect 12 0 8 0;
