#N canvas 247 324 254 209 10;
#X obj 18 145 vs.biquad~;
#X obj 18 170 outlet~;
#X obj 18 17 inlet~ sig;
#X obj 29 54 inlet~ cut;
#X obj 150 57 inlet~ Q;
#X obj 29 112 vs.highpass_c;
#X obj 29 79 vs.argsig~ \$1;
#X obj 150 95 vs.argsig~ \$2;
#X text 157 154 f.bianchi;
#X connect 0 0 1 0;
#X connect 2 0 0 0;
#X connect 3 0 6 0;
#X connect 4 0 7 0;
#X connect 5 0 0 1;
#X connect 5 1 0 2;
#X connect 5 2 0 3;
#X connect 5 3 0 4;
#X connect 5 4 0 5;
#X connect 6 0 5 0;
#X connect 7 0 5 1;
