#N canvas 105 147 1030 542 10;
#X obj 72 52 inlet~ freq;
#X obj 580 77 inlet~ Q;
#X obj 89 473 outlet~ a1;
#X obj 497 466 outlet~ b0;
#X obj 617 463 outlet~ b1;
#X obj 191 445 *~ -1;
#X obj 774 464 outlet~ b2;
#X text 40 27 var K = Math.tan(Math.PI * Fc / Fs) \;;
#X text 130 303 b1 = 2 * (K * K - 1) * norm;
#X text 229 415 b2 = (1 - K / Q + K * K) * norm;
#X obj 191 475 outlet~ a2;
#X text 604 260 norm = 1 / (1 + K / Q + K * K);
#X obj 617 434 *~ -2;
#X text 69 182 K;
#X obj 169 52 loadbang;
#X obj 169 109 vs.pi;
#X obj 220 104 samplerate~;
#X obj 169 77 t b b;
#X obj 169 138 /;
#X obj 89 193 expr~ tan($v1);
#X obj 89 158 *~;
#X obj 89 236 *~;
#X obj 89 301 -~ 1;
#X obj 89 326 *~;
#X obj 89 397 *~ -2;
#X obj 497 246 sig~ 1;
#X obj 559 232 /~;
#X obj 559 257 +~ 1;
#X obj 538 284 +~;
#X obj 497 305 /~;
#X obj 212 343 sig~ 1;
#X obj 212 368 -~;
#X obj 276 347 /~;
#X obj 191 394 +~;
#X obj 191 419 *~;
#X text 678 139 f.bianchi \, Thank's to Nigel Redmond: http://www.earlevel.com/main/2011/01/02/biquad-formulas/
;
#X connect 0 0 20 0;
#X connect 1 0 26 1;
#X connect 1 0 32 1;
#X connect 5 0 10 0;
#X connect 12 0 4 0;
#X connect 14 0 17 0;
#X connect 15 0 18 0;
#X connect 16 0 18 1;
#X connect 17 0 15 0;
#X connect 17 1 16 0;
#X connect 18 0 20 1;
#X connect 19 0 21 0;
#X connect 19 0 21 1;
#X connect 19 0 26 0;
#X connect 19 0 32 0;
#X connect 20 0 19 0;
#X connect 21 0 22 0;
#X connect 21 0 28 0;
#X connect 21 0 33 0;
#X connect 22 0 23 0;
#X connect 23 0 24 0;
#X connect 24 0 2 0;
#X connect 25 0 29 0;
#X connect 26 0 27 0;
#X connect 27 0 28 1;
#X connect 28 0 29 1;
#X connect 29 0 3 0;
#X connect 29 0 12 0;
#X connect 29 0 6 0;
#X connect 29 0 23 1;
#X connect 29 0 34 1;
#X connect 30 0 31 0;
#X connect 31 0 33 1;
#X connect 32 0 31 1;
#X connect 33 0 34 0;
#X connect 34 0 5 0;
