#N canvas 76 358 245 207 10;
#X obj 14 176 outlet~;
#X obj 14 79 phasor~ \$1;
#X obj 14 15 inlet~ frq;
#X obj 114 63 inlet resetph;
#X obj 14 104 vs.delta~;
#X obj 14 129 expr~ $v1 < 0;
#X obj 14 48 vs.argsig~ \$1;
#X text 112 174 f.bianchi - M.Giri;
#X connect 1 0 4 0;
#X connect 2 0 6 0;
#X connect 3 0 1 1;
#X connect 4 0 5 0;
#X connect 5 0 0 0;
#X connect 6 0 1 0;
