#N canvas 362 236 331 220 10;
#X obj 34 33 inlet list;
#X obj 206 32 inlet pos;
#X obj 115 32 inlet val;
#X obj 34 178 outlet;
#X obj 34 153 list append;
#X obj 124 181 outlet;
#X obj 206 57 route float bang;
#X obj 34 74 list split;
#X obj 34 128 list append;
#X text 246 190 f.bianchi;
#X connect 0 0 7 0;
#X connect 1 0 6 0;
#X connect 2 0 8 1;
#X connect 4 0 3 0;
#X connect 6 0 7 1;
#X connect 6 1 8 1;
#X connect 7 0 8 0;
#X connect 7 1 4 1;
#X connect 7 2 5 0;
#X connect 8 0 4 0;
