#N canvas 299 317 479 267 10;
#X obj 131 173 vs.klowshelf_c;
#X obj 23 209 biquad~;
#X obj 23 36 inlet~ sig;
#X obj 131 36 inlet cut;
#X obj 171 60 inlet slope;
#X obj 212 83 inlet dbgain;
#X obj 23 234 outlet~;
#X obj 313 19 loadbang;
#X obj 313 44 t b b b, f 11;
#X obj 313 69 f \$1;
#X obj 344 69 f \$2;
#X obj 376 69 f \$3;
#X obj 313 91 vs.defaulter 1200;
#X obj 344 111 vs.defaulter 1;
#X obj 376 131 vs.defaulter 1;
#X text 268 222 f.bianchi;
#X connect 0 0 1 0;
#X connect 1 0 6 0;
#X connect 2 0 1 0;
#X connect 3 0 0 0;
#X connect 4 0 0 1;
#X connect 5 0 0 2;
#X connect 7 0 8 0;
#X connect 8 0 9 0;
#X connect 8 1 10 0;
#X connect 8 2 11 0;
#X connect 9 0 12 0;
#X connect 10 0 13 0;
#X connect 11 0 14 0;
#X connect 12 0 0 0;
#X connect 13 0 0 1;
#X connect 14 0 0 2;
