#N canvas 188 337 446 255 10;
#X obj 81 147 vs.kreson_c;
#X obj 18 177 biquad~;
#X obj 18 13 inlet~ sig;
#X obj 33 41 inlet~ gain;
#X obj 18 202 *~;
#X obj 81 98 inlet cf;
#X obj 144 98 inlet Q;
#X obj 18 227 outlet~;
#X obj 246 21 loadbang;
#X obj 350 100 vs.defaulter 1;
#X obj 246 100 vs.defaulter 440;
#X obj 246 46 t b b;
#X obj 246 75 f \$1;
#X obj 350 75 f \$2;
#X text 240 210 f.bianchi;
#X connect 0 0 1 0;
#X connect 1 0 4 0;
#X connect 2 0 1 0;
#X connect 3 0 4 1;
#X connect 4 0 7 0;
#X connect 5 0 0 0;
#X connect 6 0 0 1;
#X connect 8 0 11 0;
#X connect 9 0 0 1;
#X connect 10 0 0 0;
#X connect 11 0 12 0;
#X connect 11 1 13 0;
#X connect 12 0 10 0;
#X connect 13 0 9 0;
