#N canvas 0 22 1078 666 10;
#X text 259 244 alpha;
#X text 319 175 w0 = 2*pi*f0/Fs;
#X obj 300 115 loadbang;
#X obj 205 147 vs.pi;
#X obj 300 149 samplerate~;
#X obj 284 21 inlet dbgain;
#X obj 579 145 / 40;
#X msg 579 170 10 \$1;
#X obj 579 197 pow;
#X obj 197 21 inlet q;
#X obj 413 173 clip 0.001 1;
#X obj 111 21 inlet cut;
#X obj 111 174 expr 2 * $f2 * $f1 / $f3;
#X obj 111 270 cos;
#X obj 249 265 expr sin($f1) * sqrt(($f3*$f3 + 1)*(1/$f2 - 1) + 2*$f3)
;
#X obj 111 375 expr -2*(($f3-1) + ($f3+1)*$f1) \; ($f3+1) + ($f3-1)*$f1
- $f2 \; $f3*(($f3+1) - ($f3-1)*$f1 + $f2) \; 2*$f3*(($f3-1) - ($f3+1)*$f1)
\; $f3*(($f3+1) - ($f3-1)*$f1 - $f2) \; ($f3+1) + ($f3-1)*$f1 + $f2
\;, f 35;
#X obj 111 485 * -1;
#X obj 166 485 * -1;
#X obj 111 522 /;
#X obj 166 522 /;
#X obj 221 522 /;
#X obj 277 522 /;
#X obj 332 522 /;
#X obj 111 547 pack 0 0 0 0 0, f 28;
#X obj 111 572 outlet;
#X obj 111 56 vs.pak3, f 22;
#X obj 111 81 unpack 0 0 0, f 72;
#X text 365 423 thank's to Robert Bristow-Johnson (Audio-EQ-cookbook)
;
#X connect 2 0 3 0;
#X connect 2 0 4 0;
#X connect 3 0 12 1;
#X connect 4 0 12 2;
#X connect 5 0 25 2;
#X connect 6 0 7 0;
#X connect 7 0 8 0;
#X connect 8 0 14 2;
#X connect 8 0 15 2;
#X connect 9 0 25 1;
#X connect 10 0 14 1;
#X connect 11 0 25 0;
#X connect 12 0 13 0;
#X connect 12 0 14 0;
#X connect 13 0 15 0;
#X connect 14 0 15 1;
#X connect 15 0 16 0;
#X connect 15 1 17 0;
#X connect 15 2 20 0;
#X connect 15 3 21 0;
#X connect 15 4 22 0;
#X connect 15 5 18 1;
#X connect 15 5 19 1;
#X connect 15 5 20 1;
#X connect 15 5 21 1;
#X connect 15 5 22 1;
#X connect 16 0 18 0;
#X connect 17 0 19 0;
#X connect 18 0 23 0;
#X connect 19 0 23 1;
#X connect 20 0 23 2;
#X connect 21 0 23 3;
#X connect 22 0 23 4;
#X connect 23 0 24 0;
#X connect 25 0 26 0;
#X connect 26 0 12 0;
#X connect 26 1 10 0;
#X connect 26 2 6 0;
