#N canvas 268 145 490 350 10;
#X obj 58 255 vs.kpeaknotch_c;
#X obj 25 292 biquad~;
#X obj 25 56 inlet~ sig;
#X obj 25 317 outlet~;
#X obj 58 88 inlet cf;
#X obj 101 113 inlet Q;
#X obj 145 137 inlet dbgain;
#X obj 325 12 loadbang;
#X obj 325 37 t b b b, f 11;
#X obj 325 62 f \$1;
#X obj 356 62 f \$2;
#X obj 388 62 f \$3;
#X obj 325 84 vs.defaulter 1200;
#X obj 356 104 vs.defaulter 1;
#X obj 388 124 vs.defaulter 24;
#X text 380 313 f.bianchi;
#X connect 0 0 1 0;
#X connect 1 0 3 0;
#X connect 2 0 1 0;
#X connect 4 0 0 0;
#X connect 5 0 0 1;
#X connect 6 0 0 2;
#X connect 7 0 8 0;
#X connect 8 0 9 0;
#X connect 8 1 10 0;
#X connect 8 2 11 0;
#X connect 9 0 12 0;
#X connect 10 0 13 0;
#X connect 11 0 14 0;
#X connect 12 0 0 0;
#X connect 13 0 0 1;
#X connect 14 0 0 2;
