#N canvas 189 24 583 660 10;
#X text 175 124 K;
#X text 377 438 a0 = K * K * norm;
#X obj 72 123 vs.kfattorek;
#X obj 357 169 vs.kfilternorm;
#X obj 438 83 max 0.001;
#X obj 178 24 inlet Q;
#X obj 72 16 inlet freq;
#X obj 72 229 *;
#X obj 72 199 t f f;
#X obj 72 319 - 1;
#X obj 72 348 *;
#X obj 72 376 * -2;
#X obj 228 322 /;
#X obj 228 347 vs.!- 1;
#X obj 207 392 +;
#X obj 72 254 t f f;
#X obj 207 473 * -1;
#X obj 342 440 *;
#X obj 403 460 * 2;
#X obj 72 41 vs.pak;
#X obj 72 66 unpack 0 0;
#X obj 72 509 pack 0 0 0 0 0, f 68;
#X obj 72 544 outlet coeffs;
#X obj 72 91 clip 20 20000;
#X obj 207 446 *;
#X obj 72 152 t f f f;
#X text 70 590 f.bianchi \, Thank's to Nigel Redmond: http://www.earlevel.com/main/2011/01/02/biquad-formulas/
;
#X connect 2 0 25 0;
#X connect 3 0 10 1;
#X connect 3 0 17 1;
#X connect 3 0 24 1;
#X connect 4 0 3 1;
#X connect 4 0 12 1;
#X connect 5 0 19 1;
#X connect 6 0 19 0;
#X connect 7 0 15 0;
#X connect 8 0 7 0;
#X connect 8 1 7 1;
#X connect 9 0 10 0;
#X connect 10 0 11 0;
#X connect 11 0 21 0;
#X connect 12 0 13 0;
#X connect 13 0 14 1;
#X connect 14 0 24 0;
#X connect 15 0 9 0;
#X connect 15 1 14 0;
#X connect 15 1 17 0;
#X connect 16 0 21 1;
#X connect 17 0 18 0;
#X connect 17 0 21 2;
#X connect 17 0 21 4;
#X connect 18 0 21 3;
#X connect 19 0 20 0;
#X connect 20 0 23 0;
#X connect 20 1 4 0;
#X connect 21 0 22 0;
#X connect 23 0 2 0;
#X connect 24 0 16 0;
#X connect 25 0 8 0;
#X connect 25 1 12 0;
#X connect 25 2 3 0;
