#N canvas 96 257 215 202 10;
#X obj 105 10 loadbang;
#X obj 105 60 vs.pi;
#X obj 132 89 samplerate~;
#X obj 105 35 t b b;
#X obj 105 106 /;
#X obj 9 10 inlet freq;
#X obj 9 126 *;
#X obj 9 176 outlet;
#X obj 9 151 tan;
#X text 143 161 f.bianchi;
#X connect 0 0 3 0;
#X connect 1 0 4 0;
#X connect 2 0 4 1;
#X connect 3 0 1 0;
#X connect 3 1 2 0;
#X connect 4 0 6 1;
#X connect 5 0 6 0;
#X connect 6 0 8 0;
#X connect 8 0 7 0;
