#N canvas 554 349 415 216 10;
#X obj 18 156 biquad~;
#X obj 33 123 vs.klowpass_c;
#X obj 18 47 inlet~ sig;
#X obj 33 75 inlet cut;
#X obj 108 75 inlet Q;
#X obj 18 184 outlet~;
#X obj 164 15 loadbang;
#X obj 164 36 t b b;
#X obj 164 59 f \$1;
#X obj 304 59 f \$2;
#X obj 164 84 vs.defaulter 440;
#X obj 304 84 vs.defaulter 10;
#X text 157 175 f.bianchi;
#X connect 0 0 5 0;
#X connect 1 0 0 0;
#X connect 2 0 0 0;
#X connect 3 0 1 0;
#X connect 4 0 1 1;
#X connect 6 0 7 0;
#X connect 7 0 8 0;
#X connect 7 1 9 0;
#X connect 8 0 10 0;
#X connect 9 0 11 0;
#X connect 10 0 1 0;
#X connect 11 0 1 1;
