#N canvas 228 55 583 615 10;
#X text 373 324 b1 = 2 * (K * K - 1) * norm;
#X text 376 301 b2 = (1 - K / Q + K * K) * norm;
#X obj 15 123 vs.kfattorek;
#X obj 306 168 vs.kfilternorm;
#X obj 415 82 max 0.001;
#X obj 123 17 inlet Q;
#X obj 15 12 inlet freq;
#X obj 15 225 *;
#X obj 15 195 t f f;
#X obj 15 315 - 1;
#X obj 15 344 *;
#X obj 15 372 * -2;
#X obj 171 318 /;
#X obj 171 343 vs.!- 1;
#X obj 150 388 +;
#X obj 15 250 t f f;
#X obj 150 469 * -1;
#X obj 285 436 *;
#X obj 15 37 vs.pak;
#X obj 15 62 unpack 0 0;
#X obj 15 505 pack 0 0 0 0 0, f 68;
#X obj 15 540 outlet coeffs;
#X obj 15 87 clip 20 20000;
#X obj 150 442 *;
#X obj 15 148 t f f f;
#X text 320 434 a0 = K / Q * norm;
#X obj 285 398 /;
#X obj 420 480 * -1;
#X text 378 351 b2 = (1 - K / Q + K * K) * norm;
#X text 112 575 f.bianchi \, Thank's to Nigel Redmond: http://www.earlevel.com/main/2011/01/02/biquad-formulas/
;
#X connect 2 0 24 0;
#X connect 3 0 10 1;
#X connect 3 0 17 1;
#X connect 3 0 23 1;
#X connect 4 0 3 1;
#X connect 4 0 12 1;
#X connect 4 0 26 1;
#X connect 5 0 18 1;
#X connect 6 0 18 0;
#X connect 7 0 15 0;
#X connect 8 0 7 0;
#X connect 8 1 7 1;
#X connect 9 0 10 0;
#X connect 10 0 11 0;
#X connect 11 0 20 0;
#X connect 12 0 13 0;
#X connect 13 0 14 1;
#X connect 14 0 23 0;
#X connect 15 0 9 0;
#X connect 15 1 14 0;
#X connect 16 0 20 1;
#X connect 17 0 20 2;
#X connect 17 0 27 0;
#X connect 18 0 19 0;
#X connect 19 0 22 0;
#X connect 19 1 4 0;
#X connect 20 0 21 0;
#X connect 22 0 2 0;
#X connect 23 0 16 0;
#X connect 24 0 8 0;
#X connect 24 1 12 0;
#X connect 24 1 26 0;
#X connect 24 2 3 0;
#X connect 26 0 17 0;
#X connect 27 0 20 4;
