#N canvas 245 272 405 241 10;
#X obj 44 153 vs.kbandpass_c;
#X obj 29 185 biquad~;
#X obj 44 55 inlet freq;
#X obj 125 56 inlet Q;
#X obj 29 25 inlet~ sig;
#X obj 29 210 outlet~;
#X obj 182 30 loadbang;
#X obj 182 55 t b b;
#X obj 182 80 f \$1;
#X obj 301 79 f \$2;
#X obj 182 103 vs.defaulter 440;
#X obj 301 102 vs.defaulter 1;
#X text 213 175 f.bianchi;
#X connect 0 0 1 0;
#X connect 1 0 5 0;
#X connect 2 0 0 0;
#X connect 3 0 0 1;
#X connect 4 0 1 0;
#X connect 6 0 7 0;
#X connect 7 0 8 0;
#X connect 7 1 9 0;
#X connect 8 0 10 0;
#X connect 9 0 11 0;
#X connect 10 0 0 0;
#X connect 11 0 0 1;
