#N canvas 509 212 365 276 10;
#X obj 39 136 vs.khighpass_c;
#X obj 39 109 inlet cut;
#X obj 120 54 inlet Q;
#X obj 20 241 outlet~;
#X obj 20 49 inlet~ sig;
#X obj 20 196 vs.biquad~;
#X obj 39 161 unpack 0 0 0 0 0;
#X obj 150 105 vs.defaulter 440;
#X obj 260 119 vs.defaulter 1;
#X obj 223 27 loadbang;
#X obj 223 52 t b b;
#X obj 223 77 f \$1;
#X obj 260 77 f \$2;
#X text 178 233 f.bianchi;
#X connect 0 0 6 0;
#X connect 1 0 0 0;
#X connect 2 0 0 1;
#X connect 4 0 5 0;
#X connect 5 0 3 0;
#X connect 6 0 5 1;
#X connect 6 1 5 2;
#X connect 6 2 5 3;
#X connect 6 3 5 4;
#X connect 6 4 5 5;
#X connect 7 0 0 0;
#X connect 8 0 0 1;
#X connect 9 0 10 0;
#X connect 10 0 11 0;
#X connect 10 1 12 0;
#X connect 11 0 7 0;
#X connect 12 0 8 0;
