#N canvas 177 22 789 660 10;
#X obj 30 113 inlet~ sig;
#X obj 269 113 inlet inMin;
#X obj 372 113 inlet inMax;
#X obj 475 114 inlet outMin;
#X obj 578 114 inlet outMax;
#X obj 269 165 vs.pak4, f 39;
#X obj 696 115 inlet curve;
#X obj 269 215 unpack 0 0 0 0 0, f 41;
#X obj 269 190 list append, f 57;
#X obj 594 240 exp;
#X obj 468 267 swap;
#X obj 468 292 -;
#X obj 468 317 /;
#X obj 594 300 vs.!- 1;
#X text 451 316 a;
#X obj 431 243 t f f;
#X obj 431 352 +;
#X text 411 352 b;
#X obj 30 338 expr~ ($v1 - $f2) / ($f3 - $f2);
#X obj 30 403 expr~ $f3 - ($f2 * pow($f4 \, $v1));
#X obj 11 630 outlet~ scaledsig;
#X obj 64 537 vs.kscale~;
#X obj 11 564 vs.sel~;
#X obj 735 256 == 0;
#X obj 696 138 t b f f;
#X obj 735 281 + 1;
#X obj 413 68 f \$1;
#X obj 458 68 f \$2;
#X obj 503 68 f \$3;
#X obj 548 68 f \$4;
#X obj 594 68 f \$5;
#X obj 413 17 loadbang;
#X obj 413 42 t b b b b b, f 23;
#X text 293 554 f.bianchi \, thank's to J. McCartney;
#X connect 0 0 18 0;
#X connect 0 0 21 0;
#X connect 1 0 5 0;
#X connect 1 0 21 1;
#X connect 2 0 5 1;
#X connect 2 0 21 2;
#X connect 3 0 5 2;
#X connect 3 0 21 3;
#X connect 4 0 5 3;
#X connect 4 0 21 4;
#X connect 5 0 8 0;
#X connect 6 0 24 0;
#X connect 7 0 18 1;
#X connect 7 1 18 2;
#X connect 7 2 15 0;
#X connect 7 3 10 1;
#X connect 7 4 9 0;
#X connect 8 0 7 0;
#X connect 9 0 13 0;
#X connect 9 0 19 3;
#X connect 10 0 11 0;
#X connect 10 1 11 1;
#X connect 11 0 12 0;
#X connect 12 0 16 1;
#X connect 12 0 19 1;
#X connect 13 0 12 1;
#X connect 15 0 16 0;
#X connect 15 1 10 0;
#X connect 16 0 19 2;
#X connect 18 0 19 0;
#X connect 19 0 22 1;
#X connect 21 0 22 2;
#X connect 22 0 20 0;
#X connect 23 0 25 0;
#X connect 24 0 5 0;
#X connect 24 1 8 1;
#X connect 24 2 23 0;
#X connect 25 0 22 0;
#X connect 26 0 5 0;
#X connect 26 0 21 1;
#X connect 27 0 5 1;
#X connect 27 0 21 2;
#X connect 28 0 5 2;
#X connect 28 0 21 3;
#X connect 29 0 5 3;
#X connect 29 0 21 4;
#X connect 30 0 24 0;
#X connect 31 0 32 0;
#X connect 32 0 26 0;
#X connect 32 1 27 0;
#X connect 32 2 28 0;
#X connect 32 3 29 0;
#X connect 32 4 30 0;
