#N canvas 487 115 484 595 10;
#X obj 19 86 inlet~;
#X obj 99 87 inlet;
#X obj 19 371 *~;
#X obj 19 529 +~;
#X obj 19 564 outlet~;
#X obj 99 114 route float;
#X obj 199 87 inlet;
#X obj 199 114 route float;
#X obj 299 87 inlet;
#X obj 299 114 route float;
#X obj 399 87 inlet;
#X obj 399 114 route float;
#X obj 176 512 +;
#X obj 261 320 * -1;
#X obj 261 431 *;
#X obj 294 354 *;
#X obj 399 166 t b f;
#X obj 399 195 vs.!-;
#X obj 294 196 t b f;
#X obj 294 225 vs.!-;
#X obj 152 11 loadbang;
#X obj 152 36 t b b b b, f 16;
#X obj 152 61 f \$1;
#X obj 193 61 f \$2;
#X obj 235 61 f \$3;
#X obj 277 61 f \$4;
#X obj 261 394 vs.pak;
#X obj 294 320 vs.pak 0 0;
#X msg 294 257 1 \$1;
#X obj 294 279 /;
#X obj 176 448 vs.pak;
#X text 339 556 f.bianchi - M.Giri;
#X connect 0 0 2 0;
#X connect 1 0 5 0;
#X connect 2 0 3 0;
#X connect 3 0 4 0;
#X connect 5 0 13 0;
#X connect 5 0 19 0;
#X connect 6 0 7 0;
#X connect 7 0 18 0;
#X connect 8 0 9 0;
#X connect 9 0 17 0;
#X connect 9 0 30 0;
#X connect 10 0 11 0;
#X connect 11 0 16 0;
#X connect 12 0 3 1;
#X connect 13 0 26 0;
#X connect 14 0 30 1;
#X connect 15 0 2 1;
#X connect 15 0 26 1;
#X connect 16 0 17 0;
#X connect 16 1 17 1;
#X connect 17 0 27 1;
#X connect 18 0 19 0;
#X connect 18 1 19 1;
#X connect 19 0 28 0;
#X connect 20 0 21 0;
#X connect 21 0 22 0;
#X connect 21 1 23 0;
#X connect 21 2 24 0;
#X connect 21 3 25 0;
#X connect 22 0 5 0;
#X connect 23 0 7 0;
#X connect 24 0 9 0;
#X connect 25 0 11 0;
#X connect 26 0 14 0;
#X connect 27 0 15 0;
#X connect 28 0 29 0;
#X connect 29 0 27 0;
#X connect 30 0 12 0;
