#N canvas 553 338 257 197 10;
#X obj 15 15 inlet K;
#X obj 192 21 inlet Q;
#X obj 15 124 expr 1 / (1 + $f1 / $f3 + $f2);
#X obj 15 40 t f f f;
#X obj 103 101 *;
#X obj 15 154 outlet;
#X text 180 166 f.bianchi;
#X connect 0 0 3 0;
#X connect 1 0 2 2;
#X connect 2 0 5 0;
#X connect 3 0 2 0;
#X connect 3 1 4 0;
#X connect 3 2 4 1;
#X connect 4 0 2 1;
