#N canvas 0 22 397 641 10;
#X obj 231 197 expr $f1 / $f2;
#X obj 231 74 loadbang;
#X obj 231 109 t b b;
#X obj 312 126 samplerate~;
#X obj 231 140 vs.pi;
#X obj 231 165 * 2;
#X obj 343 77 bng 15 250 50 0 empty empty empty 17 7 0 10 -262144 -1
-1;
#X obj 121 23 inlet Q;
#X obj 24 16 inlet freq;
#X obj 24 214 *;
#X obj 24 239 * -1;
#X obj 24 266 exp;
#X obj 216 323 cos;
#X obj 216 295 *;
#X obj 24 340 *;
#X obj 24 473 * 2;
#X obj 115 536 vs.!- 1;
#X obj 207 475 expr (1 - $f1) * $f1 * -1;
#X obj 69 475 expr $f1 * $f1 * -1;
#X obj 24 182 /;
#X obj 24 141 t f f;
#X obj 24 291 t f f;
#X obj 24 83 vs.pak;
#X obj 24 108 unpack;
#X obj 24 585 pack 0 0 0 0 0, f 31;
#X obj 24 610 outlet;
#X obj 121 66 max 0.01;
#X text 301 583 f.bianchi;
#X connect 0 0 9 1;
#X connect 0 0 13 1;
#X connect 1 0 2 0;
#X connect 2 0 4 0;
#X connect 2 1 3 0;
#X connect 3 0 0 1;
#X connect 4 0 5 0;
#X connect 5 0 0 0;
#X connect 6 0 2 0;
#X connect 7 0 26 0;
#X connect 8 0 22 0;
#X connect 9 0 10 0;
#X connect 10 0 11 0;
#X connect 11 0 21 0;
#X connect 12 0 14 1;
#X connect 13 0 12 0;
#X connect 14 0 15 0;
#X connect 15 0 24 0;
#X connect 16 0 24 2;
#X connect 17 0 24 4;
#X connect 18 0 24 1;
#X connect 19 0 9 0;
#X connect 20 0 19 0;
#X connect 20 1 13 0;
#X connect 21 0 14 0;
#X connect 21 1 18 0;
#X connect 21 1 16 0;
#X connect 21 1 17 0;
#X connect 22 0 23 0;
#X connect 23 0 20 0;
#X connect 23 1 19 1;
#X connect 24 0 25 0;
#X connect 26 0 22 1;
