#N canvas 165 117 540 622 10;
#X text 127 216 w0 = 2*pi*f0/Fs;
#X obj 216 111 loadbang;
#X obj 121 169 vs.pi;
#X obj 216 141 samplerate~;
#X text 261 285 alpha;
#X obj 199 21 inlet dbgain;
#X obj 487 101 / 40;
#X msg 487 126 10 \$1;
#X obj 487 238 pow;
#X obj 121 21 inlet Q;
#X obj 323 249 clip 0.001 1;
#X obj 27 21 inlet cut;
#X obj 27 196 expr 2 * $f2 * $f1 / $f3;
#X obj 27 309 cos;
#X obj 160 305 expr sin($f1) * sqrt(($f3*$f3 + 1)*(1/$f2 - 1) + 2*$f3)
;
#X obj 26 378 expr 2*(($f3-1) - ($f3+1)*$f1) \; ($f3+1) - ($f3-1)*$f1
- $f2 \; $f3*(($f3+1) + ($f3-1)*$f1 + $f2) \; -2*$f3*(($f3-1) + ($f3+1)*$f1)
\; $f3*(($f3+1) + ($f3-1)*$f1 - $f2) \; ($f3+1) - ($f3-1)*$f1 + $f2
\;;
#X obj 26 556 pack 0 0 0 0 0, f 27;
#X obj 26 529 /;
#X obj 26 491 * -1;
#X obj 79 491 * -1;
#X obj 79 529 /;
#X obj 133 529 /;
#X obj 187 529 /;
#X obj 241 530 /;
#X obj 26 581 outlet;
#X obj 27 56 vs.pak3;
#X obj 27 81 unpack 0 0 0;
#X text 197 587 thank's to Robert Bristow-Johnson (Audio-EQ-cookbook)
;
#X connect 1 0 2 0;
#X connect 1 0 3 0;
#X connect 2 0 12 1;
#X connect 3 0 12 2;
#X connect 5 0 25 2;
#X connect 6 0 7 0;
#X connect 7 0 8 0;
#X connect 8 0 14 2;
#X connect 8 0 15 2;
#X connect 9 0 25 1;
#X connect 10 0 14 1;
#X connect 11 0 25 0;
#X connect 12 0 13 0;
#X connect 12 0 14 0;
#X connect 13 0 15 0;
#X connect 14 0 15 1;
#X connect 15 0 18 0;
#X connect 15 1 19 0;
#X connect 15 2 21 0;
#X connect 15 3 22 0;
#X connect 15 4 23 0;
#X connect 15 5 17 1;
#X connect 15 5 20 1;
#X connect 15 5 21 1;
#X connect 15 5 22 1;
#X connect 15 5 23 1;
#X connect 16 0 24 0;
#X connect 17 0 16 0;
#X connect 18 0 17 0;
#X connect 19 0 20 0;
#X connect 20 0 16 1;
#X connect 21 0 16 2;
#X connect 22 0 16 3;
#X connect 23 0 16 4;
#X connect 25 0 26 0;
#X connect 26 0 12 0;
#X connect 26 1 10 0;
#X connect 26 2 6 0;
