#N canvas 251 61 636 659 10;
#X text 125 194 w0 = 2*pi*f0/Fs;
#X obj 133 114 loadbang;
#X obj 78 143 vs.pi;
#X obj 133 168 samplerate~;
#X obj 30 11 inlet;
#X obj 30 163 *;
#X obj 30 188 /;
#X obj 472 227 / 40;
#X obj 472 277 pow;
#X obj 30 217 * 2;
#X obj 101 13 inlet q;
#X obj 341 224 max 0.01;
#X obj 300 306 sin;
#X obj 341 313 * 2;
#X obj 300 333 /;
#X obj 456 391 /;
#X obj 456 418 + 1;
#X obj 571 472 vs.!- 1;
#X obj 300 399 *;
#X obj 571 538 /;
#X obj 435 538 /;
#X obj 300 538 /;
#X obj 300 513 + 1;
#X obj 30 295 cos;
#X obj 30 332 * -2;
#X obj 30 448 * -1;
#X obj 30 483 /;
#X obj 186 463 vs.!- 1;
#X obj 165 513 * -1;
#X obj 165 538 /;
#X obj 30 566 pack 0 0 0 0 0, f 68;
#X obj 30 591 outlet;
#X obj 300 358 t f f;
#X obj 30 242 t f f;
#X obj 165 488 f;
#X obj 30 357 t f b f;
#X msg 472 252 10 \$1;
#X obj 30 51 vs.pak3;
#X obj 174 13 inlet dbgain;
#X obj 30 76 unpack 0 0 0, f 56;
#X text 134 626 thank's to Robert Bristow-Johnson (Audio-EQ-cookbook)
;
#X connect 1 0 2 0;
#X connect 1 0 3 0;
#X connect 2 0 5 1;
#X connect 3 0 6 1;
#X connect 4 0 37 0;
#X connect 5 0 6 0;
#X connect 6 0 9 0;
#X connect 7 0 36 0;
#X connect 8 0 15 1;
#X connect 8 0 18 1;
#X connect 9 0 33 0;
#X connect 10 0 37 1;
#X connect 11 0 13 0;
#X connect 12 0 14 0;
#X connect 13 0 14 1;
#X connect 14 0 32 0;
#X connect 15 0 16 0;
#X connect 15 0 27 0;
#X connect 16 0 19 1;
#X connect 16 0 20 1;
#X connect 16 0 21 1;
#X connect 16 0 26 1;
#X connect 16 0 29 1;
#X connect 17 0 19 0;
#X connect 18 0 17 0;
#X connect 18 0 22 0;
#X connect 19 0 30 4;
#X connect 20 0 30 3;
#X connect 21 0 30 2;
#X connect 22 0 21 0;
#X connect 23 0 24 0;
#X connect 24 0 35 0;
#X connect 25 0 26 0;
#X connect 26 0 30 0;
#X connect 27 0 34 1;
#X connect 28 0 29 0;
#X connect 29 0 30 1;
#X connect 30 0 31 0;
#X connect 32 0 18 0;
#X connect 32 1 15 0;
#X connect 33 0 23 0;
#X connect 33 1 12 0;
#X connect 34 0 28 0;
#X connect 35 0 25 0;
#X connect 35 1 34 0;
#X connect 35 2 20 0;
#X connect 36 0 8 0;
#X connect 37 0 39 0;
#X connect 38 0 37 2;
#X connect 39 0 5 0;
#X connect 39 1 11 0;
#X connect 39 2 7 0;
