#N canvas 435 88 425 388 10;
#X obj 51 214 until;
#X obj 51 262 list;
#X obj 103 263 list;
#X obj 24 176 t b f;
#X obj 24 287 list;
#X obj 24 353 outlet;
#X obj 187 19 inlet min;
#X obj 251 19 inlet max;
#X obj 97 19 inlet howmany;
#X obj 24 19 inlet bang;
#X obj 24 100 t b b;
#X obj 318 19 loadbang;
#X obj 318 123 vs.defaulter 8;
#X obj 24 140 f \$1;
#X obj 318 56 f \$1;
#X obj 51 239 vs.between \$2 \$3 1;
#X obj 24 41 route bang float;
#X obj 70 65 t b f;
#X text 343 358 f.bianchi;
#X connect 0 0 15 0;
#X connect 1 0 2 0;
#X connect 1 0 4 1;
#X connect 2 0 1 1;
#X connect 3 0 4 0;
#X connect 3 1 0 0;
#X connect 4 0 5 0;
#X connect 6 0 15 1;
#X connect 7 0 15 2;
#X connect 8 0 13 1;
#X connect 9 0 16 0;
#X connect 10 0 13 0;
#X connect 10 1 1 1;
#X connect 11 0 14 0;
#X connect 12 0 13 1;
#X connect 13 0 3 0;
#X connect 14 0 12 0;
#X connect 15 0 1 0;
#X connect 16 0 10 0;
#X connect 16 1 17 0;
#X connect 17 0 10 0;
#X connect 17 1 13 1;
