#N canvas 276 194 398 442 10;
#X obj 116 308 vs.lookup;
#X obj 55 106 vs.uzi 5;
#X obj 116 262 t f f;
#X obj 116 342 +, f 14;
#X obj 197 308 vs.lookup;
#X obj 167 86 list length;
#X obj 116 376 vs.group 1;
#X obj 248 48 t l l;
#X obj 275 81 list length;
#X obj 206 212 vs.switch;
#X obj 206 150 >;
#X obj 148 46 t b l l;
#X obj 275 112 t f f;
#X obj 260 155 f;
#X obj 167 111 t f b f;
#X obj 206 175 + 1;
#X obj 148 18 inlet;
#X obj 248 21 inlet;
#X obj 116 401 outlet;
#X text 309 410 f.bianchi;
#X connect 0 0 3 0;
#X connect 1 2 2 0;
#X connect 2 0 0 0;
#X connect 2 1 4 0;
#X connect 3 0 6 0;
#X connect 4 0 3 1;
#X connect 5 0 14 0;
#X connect 6 0 18 0;
#X connect 7 0 4 1;
#X connect 7 1 8 0;
#X connect 8 0 12 0;
#X connect 9 0 6 1;
#X connect 9 0 1 1;
#X connect 10 0 15 0;
#X connect 11 0 1 0;
#X connect 11 1 5 0;
#X connect 11 2 0 1;
#X connect 12 0 13 1;
#X connect 12 1 10 1;
#X connect 13 0 9 2;
#X connect 14 0 9 1;
#X connect 14 1 13 0;
#X connect 14 2 10 0;
#X connect 15 0 9 0;
#X connect 16 0 11 0;
#X connect 17 0 7 0;
