#N canvas 163 74 910 607 10;
#X obj 72 52 inlet~ freq;
#X text 180 106 K;
#X obj 72 556 outlet~ a1;
#X obj 595 479 outlet~ b0;
#X obj 684 479 outlet~ b1;
#X obj 280 523 *~ -1;
#X obj 771 479 outlet~ b2;
#X text 40 27 var K = Math.tan(Math.PI * Fc / Fs) \;;
#X text 715 236 norm = 1 / (1 + K / Q + K * K);
#X text 109 397 b1 = 2 * (K * K - 1) * norm;
#X text 317 473 b2 = (1 - K / Q + K * K) * norm;
#X text 635 384 a0 = K * K * norm;
#X obj 280 561 outlet~ a2;
#X obj 684 430 *~ 2;
#X obj 595 385 *~;
#X obj 595 410 *~;
#X obj 72 157 *~;
#X obj 72 369 -~ 1;
#X obj 72 398 *~;
#X obj 72 426 *~ -2;
#X obj 361 422 /~;
#X obj 280 471 +~;
#X obj 301 421 sig~ 1;
#X obj 301 446 -~;
#X obj 280 496 *~;
#X obj 695 142 max~ 0.001;
#X obj 695 109 inlet~ Q;
#X obj 72 107 vs.fattorek~;
#X obj 586 288 vs.filternorm~;
#X text 459 556 f.bianchi \, Thank's to Nigel Redmond: http://www.earlevel.com/main/2011/01/02/biquad-formulas/
;
#X connect 0 0 27 0;
#X connect 5 0 12 0;
#X connect 13 0 4 0;
#X connect 14 0 15 0;
#X connect 15 0 3 0;
#X connect 15 0 13 0;
#X connect 15 0 6 0;
#X connect 16 0 17 0;
#X connect 16 0 21 0;
#X connect 16 0 28 1;
#X connect 17 0 18 0;
#X connect 18 0 19 0;
#X connect 19 0 2 0;
#X connect 20 0 23 1;
#X connect 21 0 24 0;
#X connect 22 0 23 0;
#X connect 23 0 21 1;
#X connect 24 0 5 0;
#X connect 25 0 20 1;
#X connect 25 0 28 2;
#X connect 26 0 25 0;
#X connect 27 0 14 0;
#X connect 27 0 14 1;
#X connect 27 0 16 0;
#X connect 27 0 16 1;
#X connect 27 0 20 0;
#X connect 27 0 28 0;
#X connect 28 0 18 1;
#X connect 28 0 24 1;
#X connect 28 0 15 1;
