#N canvas 517 120 382 407 10;
#X obj 16 15 inlet~;
#X obj 16 269 rpole~;
#X obj 16 325 *~;
#X obj 16 373 outlet~;
#X obj 139 15 inlet~;
#X obj 240 85 samplerate~;
#X obj 316 15 loadbang;
#X obj 240 112 / 2;
#X obj 139 154 clip~ 0 22050;
#X obj 139 216 clip~ 0 1;
#X obj 139 249 expr~ 1-$v1;
#X obj 316 169 vs.pi;
#X obj 139 41 vs.argsig~ \$1;
#X obj 139 189 expr~ $v1/$f2*$f3;
#X text 206 320 thank's to .mmb;
#X connect 0 0 1 0;
#X connect 1 0 2 0;
#X connect 2 0 3 0;
#X connect 4 0 12 0;
#X connect 5 0 7 0;
#X connect 5 0 13 1;
#X connect 6 0 5 0;
#X connect 6 0 11 0;
#X connect 7 0 8 2;
#X connect 8 0 13 0;
#X connect 9 0 10 0;
#X connect 9 0 2 1;
#X connect 10 0 1 1;
#X connect 11 0 13 2;
#X connect 12 0 8 0;
#X connect 13 0 9 0;
