#N canvas 261 375 299 239 10;
#X obj 126 134 list length;
#X obj 59 129 f;
#X obj 96 128 + 1;
#X obj 59 182 vs.lookup;
#X obj 59 66 t b l l;
#X obj 59 151 %;
#X obj 16 15 inlet;
#X obj 123 37 inlet reset;
#X msg 123 59 0;
#X obj 59 204 outlet;
#X obj 16 37 route bang list;
#X text 168 208 f.bianchi - M.Giri;
#X connect 0 0 5 1;
#X connect 1 0 2 0;
#X connect 1 0 5 0;
#X connect 2 0 1 1;
#X connect 3 0 9 0;
#X connect 4 0 1 0;
#X connect 4 1 3 1;
#X connect 4 2 0 0;
#X connect 5 0 3 0;
#X connect 6 0 10 0;
#X connect 7 0 8 0;
#X connect 8 0 1 1;
#X connect 10 0 1 0;
#X connect 10 1 4 0;
