#N canvas 210 98 342 208 10;
#X obj 186 53 list length;
#X obj 8 36 t b l l;
#X obj 186 82 array size \$0-minimum;
#X obj 27 82 array set \$0-minimum;
#X obj 8 111 array min \$0-minimum;
#X obj 8 8 inlet;
#X obj 8 143 outlet;
#X obj 186 143 array define \$0-minimum;
#X text 260 181 f.bianchi;
#X connect 0 0 2 0;
#X connect 1 0 4 0;
#X connect 1 1 3 0;
#X connect 1 2 0 0;
#X connect 4 0 6 0;
#X connect 5 0 1 0;
