#N canvas 391 386 199 152 10;
#X obj 9 11 inlet;
#X obj 84 11 inlet;
#X obj 121 11 inlet;
#X obj 9 43 list split \$2;
#X obj 46 70 list split \$1;
#X obj 46 92 outlet;
#X text 121 125 f.bianchi;
#X connect 0 0 3 0;
#X connect 1 0 3 1;
#X connect 2 0 4 1;
#X connect 3 1 4 0;
#X connect 4 0 5 0;
