#N canvas 509 148 330 412 10;
#X obj 46 13 inlet;
#X obj 211 12 inlet;
#X obj 14 257 vs.lookup;
#X obj 113 250 vs.lookup;
#X obj 238 82 list length;
#X obj 46 71 list length;
#X obj 46 99 min;
#X obj 113 169 until;
#X obj 113 194 f;
#X obj 148 195 + 1;
#X obj 113 219 t f f;
#X obj 14 333 vs.group;
#X obj 102 316 * 2;
#X msg 128 104 0;
#X obj 46 42 t a a b;
#X obj 211 37 t a a;
#X obj 46 129 t f f;
#X obj 14 358 list trim;
#X obj 14 383 outlet;
#X text 253 381 f.bianchi;
#X connect 0 0 14 0;
#X connect 1 0 15 0;
#X connect 2 0 11 0;
#X connect 3 0 11 0;
#X connect 4 0 6 1;
#X connect 5 0 6 0;
#X connect 6 0 16 0;
#X connect 7 0 8 0;
#X connect 8 0 9 0;
#X connect 8 0 10 0;
#X connect 9 0 8 1;
#X connect 10 0 3 0;
#X connect 10 1 2 0;
#X connect 11 0 17 0;
#X connect 12 0 11 1;
#X connect 13 0 8 1;
#X connect 14 0 5 0;
#X connect 14 1 2 1;
#X connect 14 2 13 0;
#X connect 15 0 3 1;
#X connect 15 1 4 0;
#X connect 16 0 7 0;
#X connect 16 1 12 0;
#X connect 17 0 18 0;
