#N canvas 251 26 373 645 10;
#X obj 22 83 list length;
#X obj 22 134 + 1;
#X obj 22 109 > 1;
#X obj 181 287 unpack 0 0;
#X obj 181 215 t l b;
#X obj 296 351 f 0;
#X obj 181 417 pack 0 0 0;
#X obj 257 400 + 0;
#X obj 257 371 + 0;
#X obj 238 314 t f b f;
#X obj 22 459 vline~;
#X obj 22 484 outlet~;
#X obj 61 21 inlet list;
#X obj 181 262 vs.niter 2;
#X obj 22 165 vs.gate;
#X obj 154 468 list;
#X obj 61 49 t l l;
#X obj 154 191 t b l;
#X msg 154 490 \$2 \$3;
#X obj 154 512 +;
#X obj 154 536 delay;
#X obj 154 558 outlet;
#X text 198 559 outlput bang when finished;
#X obj 169 20 inlet;
#X text 300 613 f.bianchi;
#X connect 0 0 2 0;
#X connect 1 0 14 0;
#X connect 2 0 1 0;
#X connect 3 0 6 0;
#X connect 3 1 9 0;
#X connect 4 0 13 0;
#X connect 4 1 5 0;
#X connect 5 0 7 1;
#X connect 5 0 8 1;
#X connect 6 0 10 0;
#X connect 6 0 15 1;
#X connect 7 0 6 2;
#X connect 7 0 8 1;
#X connect 8 0 7 0;
#X connect 9 0 7 1;
#X connect 9 1 8 0;
#X connect 9 2 6 1;
#X connect 10 0 11 0;
#X connect 12 0 16 0;
#X connect 13 0 3 0;
#X connect 14 0 10 0;
#X connect 14 1 17 0;
#X connect 15 0 18 0;
#X connect 16 0 14 1;
#X connect 16 1 0 0;
#X connect 17 0 15 0;
#X connect 17 1 4 0;
#X connect 18 0 19 0;
#X connect 19 0 20 0;
#X connect 20 0 21 0;
#X connect 23 0 10 1;
