#N canvas 374 177 298 193 10;
#X obj 18 129 vs.biquad~, f 15;
#X obj 41 101 vs.lowpass_c;
#X obj 18 17 inlet~ sig;
#X obj 18 154 outlet~;
#X obj 41 45 inlet~ cut;
#X obj 164 56 inlet~ Q;
#X obj 164 81 vs.argsig~ \$2;
#X obj 41 70 vs.argsig~ \$1;
#X text 218 165 f.bianchi;
#X connect 0 0 3 0;
#X connect 1 0 0 1;
#X connect 1 1 0 2;
#X connect 1 2 0 3;
#X connect 1 3 0 4;
#X connect 1 4 0 5;
#X connect 2 0 0 0;
#X connect 4 0 7 0;
#X connect 5 0 6 0;
#X connect 6 0 1 1;
#X connect 7 0 1 0;
