#N canvas 220 255 212 156 10;
#X obj 15 40 inlet ms;
#X obj 15 82 *;
#X obj 80 15 loadbang;
#X obj 80 40 samplerate~;
#X obj 80 65 / 1000;
#X obj 15 104 outlet samps;
#X text 134 128 f.bianchi;
#X connect 0 0 1 0;
#X connect 1 0 5 0;
#X connect 2 0 3 0;
#X connect 3 0 4 0;
#X connect 4 0 1 1;
