#N canvas 220 142 268 486 10;
#X obj 97 14 inlet list;
#X obj 194 14 inlet idx;
#X obj 136 234 list length;
#X obj 136 269 - 1;
#X obj 97 196 t b l l;
#X obj 54 351 spigot;
#X obj 54 296 t f f;
#X obj 9 269 vs.uzi;
#X obj 54 382 vs.lookup;
#X obj 91 416 vs.group;
#X obj 44 161 vs.gate;
#X obj 134 71 list length;
#X obj 97 44 t l l;
#X obj 134 127 + 1;
#X obj 134 102 >= \$1;
#X obj 91 451 outlet;
#X obj 87 323 != \$1;
#X text 186 458 f.bianchi;
#X connect 0 0 12 0;
#X connect 1 0 14 1;
#X connect 1 0 16 1;
#X connect 2 0 3 0;
#X connect 2 0 7 1;
#X connect 3 0 9 1;
#X connect 4 0 7 0;
#X connect 4 1 8 1;
#X connect 4 2 2 0;
#X connect 5 0 8 0;
#X connect 6 0 5 0;
#X connect 6 1 16 0;
#X connect 7 2 6 0;
#X connect 8 0 9 0;
#X connect 9 0 15 0;
#X connect 10 0 15 0;
#X connect 10 1 4 0;
#X connect 11 0 14 0;
#X connect 12 0 10 1;
#X connect 12 1 11 0;
#X connect 13 0 10 0;
#X connect 14 0 13 0;
#X connect 16 0 5 1;
