#N canvas 551 158 310 205 10;
#X obj 18 123 vs.lookup;
#X obj 18 62 t b l;
#X obj 209 20 inlet idx;
#X obj 18 148 outlet;
#X obj 18 20 inlet list;
#X obj 134 148 outlet less;
#X obj 18 93 f \$1;
#X obj 134 123 vs.mthless \$1;
#X text 229 178 f.bianchi;
#X connect 0 0 3 0;
#X connect 1 0 6 0;
#X connect 1 1 0 1;
#X connect 2 0 6 1;
#X connect 2 0 7 1;
#X connect 4 0 1 0;
#X connect 4 0 7 0;
#X connect 6 0 0 0;
#X connect 7 0 5 0;
