#N canvas 359 124 726 607 10;
#N canvas 181 119 1050 576 controller 0;
#X obj 20 78 r \$0-key-0;
#X obj 86 78 r \$0-key-1;
#X obj 152 78 r \$0-key-2;
#X text 20 12 mode 0: monophonic;
#X text 20 32 mode 1: polyphonic;
#X text 20 52 mode 2: touchscreen (via keyboard);
#X msg 20 103 0 \$1;
#X msg 86 103 1 \$1;
#X msg 152 103 2 \$1;
#X obj 359 134 s \$0-ctrl;
#X msg 220 103 3 \$1;
#X msg 286 103 4 \$1;
#X msg 352 103 5 \$1;
#X obj 220 78 r \$0-key-3;
#X obj 286 78 r \$0-key-4;
#X obj 352 78 r \$0-key-5;
#X obj 420 78 r \$0-key-6;
#X obj 486 78 r \$0-key-7;
#X obj 552 78 r \$0-key-8;
#X obj 620 78 r \$0-key-9;
#X obj 686 78 r \$0-key-10;
#X obj 759 78 r \$0-key-11;
#X msg 420 103 6 \$1;
#X msg 486 103 7 \$1;
#X msg 552 103 8 \$1;
#X msg 620 103 9 \$1;
#X msg 686 103 10 \$1;
#X msg 759 103 11 \$1;
#X obj 439 232 s \$0-ctrl;
#X obj 20 168 r \$0-key-12;
#X obj 96 168 r \$0-key-13;
#X obj 172 168 r \$0-key-14;
#X obj 250 168 r \$0-key-15;
#X obj 326 168 r \$0-key-16;
#X obj 402 168 r \$0-key-17;
#X obj 480 168 r \$0-key-18;
#X obj 556 168 r \$0-key-19;
#X obj 632 168 r \$0-key-20;
#X obj 710 168 r \$0-key-21;
#X obj 786 168 r \$0-key-22;
#X obj 859 168 r \$0-key-23;
#X msg 20 193 12 \$1;
#X msg 96 193 13 \$1;
#X msg 172 193 14 \$1;
#X msg 250 193 15 \$1;
#X msg 326 193 16 \$1;
#X msg 402 193 17 \$1;
#X msg 480 193 18 \$1;
#X msg 556 193 19 \$1;
#X msg 632 193 20 \$1;
#X msg 710 193 21 \$1;
#X msg 786 193 22 \$1;
#X msg 859 193 23 \$1;
#X obj 939 168 r \$0-key-24;
#X msg 939 193 24 \$1;
#N canvas 8 22 1280 749 polyphonic 0;
#X obj 17 105 route 0 1 2 3 4 5 6 7 8 9 10 11 12 13 14 15 16 17 18
19 20 21 22 23 24, f 138;
#X obj 17 487 s \$0-rkey-0;
#X obj 17 296 > 0;
#X obj 17 318 sel 1;
#X obj 17 341 tgl 15 0 empty empty empty 17 7 0 10 -262144 -1 -1 0
1;
#X obj 136 167 > 0;
#X obj 136 189 sel 1;
#X obj 136 215 tgl 15 0 empty empty empty 17 7 0 10 -262144 -1 -1 0
1;
#X obj 136 320 s \$0-rkey-1;
#X obj 136 239 sel 0 1;
#X obj 136 269 f 22;
#X msg 17 450 color \$1 \$1 \$1;
#X msg 136 296 color \$1 \$1 \$1;
#X obj 297 356 > 0;
#X obj 297 378 sel 1;
#X obj 297 404 tgl 15 0 empty empty empty 17 7 0 10 -262144 -1 -1 0
1;
#X msg 297 450 color \$1 \$1 \$1;
#X obj 677 356 > 0;
#X obj 677 378 sel 1;
#X obj 677 404 tgl 15 0 empty empty empty 17 7 0 10 -262144 -1 -1 0
1;
#X msg 677 450 color \$1 \$1 \$1;
#X obj 907 356 > 0;
#X obj 907 378 sel 1;
#X obj 907 404 tgl 15 0 empty empty empty 17 7 0 10 -262144 -1 -1 0
1;
#X msg 907 450 color \$1 \$1 \$1;
#X obj 1087 356 > 0;
#X obj 1087 378 sel 1;
#X obj 1087 404 tgl 15 0 empty empty empty 17 7 0 10 -262144 -1 -1
0 1;
#X msg 1087 450 color \$1 \$1 \$1;
#X obj 1240 373 > 0;
#X obj 1240 395 sel 1;
#X obj 1240 421 tgl 15 0 empty empty empty 17 7 0 10 -262144 -1 -1
0 1;
#X msg 1240 467 color \$1 \$1 \$1;
#X obj 416 167 > 0;
#X obj 416 189 sel 1;
#X obj 416 215 tgl 15 0 empty empty empty 17 7 0 10 -262144 -1 -1 0
1;
#X obj 416 239 sel 0 1;
#X obj 416 269 f 22;
#X msg 416 296 color \$1 \$1 \$1;
#X obj 786 167 > 0;
#X obj 786 189 sel 1;
#X obj 786 215 tgl 15 0 empty empty empty 17 7 0 10 -262144 -1 -1 0
1;
#X obj 786 239 sel 0 1;
#X obj 786 269 f 22;
#X msg 786 296 color \$1 \$1 \$1;
#X obj 1006 167 > 0;
#X obj 1006 189 sel 1;
#X obj 1006 215 tgl 15 0 empty empty empty 17 7 0 10 -262144 -1 -1
0 1;
#X obj 1006 239 sel 0 1;
#X obj 1006 269 f 22;
#X msg 1006 296 color \$1 \$1 \$1;
#X obj 1206 157 > 0;
#X obj 1206 179 sel 1;
#X obj 1206 205 tgl 15 0 empty empty empty 17 7 0 10 -262144 -1 -1
0 1;
#X obj 1206 229 sel 0 1;
#X obj 1206 259 f 22;
#X msg 1206 286 color \$1 \$1 \$1;
#X obj 297 487 s \$0-rkey-2;
#X obj 416 320 s \$0-rkey-3;
#X obj 517 356 > 0;
#X obj 517 378 sel 1;
#X obj 517 404 tgl 15 0 empty empty empty 17 7 0 10 -262144 -1 -1 0
1;
#X msg 517 450 color \$1 \$1 \$1;
#X obj 517 487 s \$0-rkey-4;
#X obj 677 487 s \$0-rkey-5;
#X obj 786 320 s \$0-rkey-6;
#X obj 907 487 s \$0-rkey-7;
#X obj 1006 320 s \$0-rkey-8;
#X obj 1087 487 s \$0-rkey-9;
#X obj 1206 310 s \$0-rkey-10;
#X obj 1240 504 s \$0-rkey-11;
#X obj 17 766 > 0;
#X obj 17 788 sel 1;
#X obj 17 814 tgl 15 0 empty empty empty 17 7 0 10 -262144 -1 -1 0
1;
#X obj 66 577 > 0;
#X obj 66 599 sel 1;
#X obj 66 625 tgl 15 0 empty empty empty 17 7 0 10 -262144 -1 -1 0
1;
#X obj 66 649 sel 0 1;
#X obj 66 679 f 22;
#X msg 17 860 color \$1 \$1 \$1;
#X msg 66 706 color \$1 \$1 \$1;
#X obj 177 766 > 0;
#X obj 177 788 sel 1;
#X obj 177 814 tgl 15 0 empty empty empty 17 7 0 10 -262144 -1 -1 0
1;
#X msg 177 860 color \$1 \$1 \$1;
#X obj 467 766 > 0;
#X obj 467 788 sel 1;
#X obj 467 814 tgl 15 0 empty empty empty 17 7 0 10 -262144 -1 -1 0
1;
#X msg 467 860 color \$1 \$1 \$1;
#X obj 617 766 > 0;
#X obj 617 788 sel 1;
#X obj 617 814 tgl 15 0 empty empty empty 17 7 0 10 -262144 -1 -1 0
1;
#X msg 617 860 color \$1 \$1 \$1;
#X obj 787 766 > 0;
#X obj 787 788 sel 1;
#X obj 787 814 tgl 15 0 empty empty empty 17 7 0 10 -262144 -1 -1 0
1;
#X msg 787 860 color \$1 \$1 \$1;
#X obj 957 766 > 0;
#X obj 957 788 sel 1;
#X obj 957 814 tgl 15 0 empty empty empty 17 7 0 10 -262144 -1 -1 0
1;
#X msg 957 860 color \$1 \$1 \$1;
#X obj 226 577 > 0;
#X obj 226 599 sel 1;
#X obj 226 625 tgl 15 0 empty empty empty 17 7 0 10 -262144 -1 -1 0
1;
#X obj 226 649 sel 0 1;
#X obj 226 679 f 22;
#X msg 226 706 color \$1 \$1 \$1;
#X obj 556 577 > 0;
#X obj 556 599 sel 1;
#X obj 556 625 tgl 15 0 empty empty empty 17 7 0 10 -262144 -1 -1 0
1;
#X obj 556 649 sel 0 1;
#X obj 556 679 f 22;
#X msg 556 706 color \$1 \$1 \$1;
#X obj 726 577 > 0;
#X obj 726 599 sel 1;
#X obj 726 625 tgl 15 0 empty empty empty 17 7 0 10 -262144 -1 -1 0
1;
#X obj 726 649 sel 0 1;
#X obj 726 679 f 22;
#X msg 726 706 color \$1 \$1 \$1;
#X obj 876 577 > 0;
#X obj 876 599 sel 1;
#X obj 876 625 tgl 15 0 empty empty empty 17 7 0 10 -262144 -1 -1 0
1;
#X obj 876 649 sel 0 1;
#X obj 876 679 f 22;
#X msg 876 706 color \$1 \$1 \$1;
#X obj 327 766 > 0;
#X obj 327 788 sel 1;
#X obj 327 814 tgl 15 0 empty empty empty 17 7 0 10 -262144 -1 -1 0
1;
#X msg 327 860 color \$1 \$1 \$1;
#X obj 17 897 s \$0-rkey-12;
#X obj 66 730 s \$0-rkey-13;
#X obj 177 897 s \$0-rkey-14;
#X obj 226 730 s \$0-rkey-15;
#X obj 327 897 s \$0-rkey-16;
#X obj 467 897 s \$0-rkey-17;
#X obj 556 730 s \$0-rkey-18;
#X obj 617 897 s \$0-rkey-19;
#X obj 726 730 s \$0-rkey-20;
#X obj 787 897 s \$0-rkey-21;
#X obj 876 730 s \$0-rkey-22;
#X obj 957 897 s \$0-rkey-23;
#X obj 1097 736 > 0;
#X obj 1097 758 sel 1;
#X obj 1097 784 tgl 15 0 empty empty empty 17 7 0 10 -262144 -1 -1
0 1;
#X msg 1097 830 color \$1 \$1 \$1;
#X obj 1097 867 s \$0-rkey-24;
#X obj 17 46 r \$0-ctrl;
#X obj 17 77 spigot;
#X obj 105 36 r \$0-mode;
#X obj 105 60 == 1;
#X obj 59 420 s \$0-polydata;
#X obj 59 369 *;
#X obj 17 264 t f f;
#X msg 59 395 0 \$1;
#X obj 136 142 t f f;
#X obj 188 249 s \$0-polydata;
#X obj 188 198 *;
#X msg 188 224 1 \$1;
#X obj 343 426 s \$0-polydata;
#X obj 343 375 *;
#X msg 343 401 2 \$1;
#X obj 297 323 t f f;
#X obj 487 246 s \$0-polydata;
#X obj 487 195 *;
#X obj 430 147 t f f;
#X msg 487 221 3 \$1;
#X obj 568 425 s \$0-polydata;
#X obj 568 374 *;
#X obj 517 334 t f f;
#X msg 568 400 4 \$1;
#X obj 714 430 s \$0-polydata;
#X obj 714 379 *;
#X obj 679 332 t f f;
#X msg 714 405 5 \$1;
#X obj 841 237 s \$0-polydata;
#X obj 841 186 *;
#X obj 787 141 t f f;
#X msg 841 212 6 \$1;
#X obj 960 424 s \$0-polydata;
#X obj 960 373 *;
#X obj 906 328 t f f;
#X msg 960 399 7 \$1;
#X obj 1058 237 s \$0-polydata;
#X obj 1058 186 *;
#X obj 1004 141 t f f;
#X msg 1058 212 8 \$1;
#X obj 1132 425 s \$0-polydata;
#X obj 1132 374 *;
#X obj 1087 333 t f f;
#X msg 1132 400 9 \$1;
#X obj 1260 223 s \$0-polydata;
#X obj 1260 172 *;
#X obj 1215 131 t f f;
#X msg 1260 198 10 \$1;
#X obj 1300 442 s \$0-polydata;
#X obj 1300 391 *;
#X obj 1240 352 t f f;
#X msg 1300 417 11 \$1;
#X obj 114 649 s \$0-polydata;
#X obj 114 598 *;
#X obj 68 546 t f f;
#X msg 114 624 13 \$1;
#X obj 63 839 s \$0-polydata;
#X obj 63 788 *;
#X obj 17 736 t f f;
#X obj 230 839 s \$0-polydata;
#X obj 230 788 *;
#X obj 177 738 t f f;
#X msg 63 814 12 \$1;
#X msg 230 814 14 \$1;
#X obj 280 649 s \$0-polydata;
#X obj 280 598 *;
#X obj 227 548 t f f;
#X msg 280 624 15 \$1;
#X obj 380 840 s \$0-polydata;
#X obj 380 789 *;
#X obj 327 739 t f f;
#X msg 380 815 16 \$1;
#X obj 519 840 s \$0-polydata;
#X obj 519 792 *;
#X obj 466 742 t f f;
#X msg 519 818 17 \$1;
#X obj 608 650 s \$0-polydata;
#X obj 608 602 *;
#X obj 555 552 t f f;
#X msg 608 628 18 \$1;
#X obj 670 835 s \$0-polydata;
#X obj 670 787 *;
#X obj 640 743 t f f;
#X msg 670 813 19 \$1;
#X obj 776 649 s \$0-polydata;
#X obj 776 601 *;
#X obj 730 550 t f f;
#X msg 776 627 20 \$1;
#X obj 845 834 s \$0-polydata;
#X obj 845 786 *;
#X obj 815 742 t f f;
#X msg 845 812 21 \$1;
#X obj 912 629 s \$0-polydata;
#X obj 912 581 *;
#X obj 882 537 t f f;
#X msg 912 607 22 \$1;
#X obj 996 827 s \$0-polydata;
#X obj 996 779 *;
#X obj 966 735 t f f;
#X obj 1138 807 s \$0-polydata;
#X obj 1138 759 *;
#X obj 1109 705 t f f;
#X msg 996 805 23 \$1;
#X msg 1138 785 24 \$1;
#X obj 436 29 r \$0-clear;
#X obj 436 71 vs.pset;
#X obj 436 51 f 0;
#X obj 17 428 * 14;
#X obj 176 269 f 14;
#X obj 297 428 * 14;
#X obj 456 269 f 14;
#X obj 517 428 * 14;
#X obj 677 428 * 14;
#X obj 826 269 f 14;
#X obj 907 428 * 14;
#X obj 1046 269 f 14;
#X obj 1087 429 * 14;
#X obj 1246 259 f 14;
#X obj 1240 445 * 14;
#X obj 1097 808 * 14;
#X obj 957 838 * 14;
#X obj 916 679 f 14;
#X obj 787 838 * 14;
#X obj 766 679 f 14;
#X obj 617 838 * 14;
#X obj 596 679 f 14;
#X obj 467 838 * 14;
#X obj 327 838 * 14;
#X obj 177 838 * 14;
#X obj 17 838 * 14;
#X obj 106 679 f 14;
#X obj 266 679 f 14;
#X connect 0 0 152 0;
#X connect 0 1 154 0;
#X connect 0 2 161 0;
#X connect 0 3 164 0;
#X connect 0 4 168 0;
#X connect 0 5 172 0;
#X connect 0 6 176 0;
#X connect 0 7 180 0;
#X connect 0 8 184 0;
#X connect 0 9 188 0;
#X connect 0 10 192 0;
#X connect 0 11 196 0;
#X connect 0 12 204 0;
#X connect 0 13 200 0;
#X connect 0 14 207 0;
#X connect 0 15 212 0;
#X connect 0 16 216 0;
#X connect 0 17 220 0;
#X connect 0 18 224 0;
#X connect 0 19 228 0;
#X connect 0 20 232 0;
#X connect 0 21 236 0;
#X connect 0 22 240 0;
#X connect 0 23 244 0;
#X connect 0 24 247 0;
#X connect 2 0 3 0;
#X connect 3 0 4 0;
#X connect 4 0 151 0;
#X connect 4 0 253 0;
#X connect 5 0 6 0;
#X connect 6 0 7 0;
#X connect 7 0 9 0;
#X connect 7 0 156 0;
#X connect 9 0 10 0;
#X connect 9 1 254 0;
#X connect 10 0 12 0;
#X connect 11 0 1 0;
#X connect 12 0 8 0;
#X connect 13 0 14 0;
#X connect 14 0 15 0;
#X connect 15 0 159 0;
#X connect 15 0 255 0;
#X connect 16 0 57 0;
#X connect 17 0 18 0;
#X connect 18 0 19 0;
#X connect 19 0 171 0;
#X connect 19 0 258 0;
#X connect 20 0 64 0;
#X connect 21 0 22 0;
#X connect 22 0 23 0;
#X connect 23 0 179 0;
#X connect 23 0 260 0;
#X connect 24 0 66 0;
#X connect 25 0 26 0;
#X connect 26 0 27 0;
#X connect 27 0 187 0;
#X connect 27 0 262 0;
#X connect 28 0 68 0;
#X connect 29 0 30 0;
#X connect 30 0 31 0;
#X connect 31 0 195 0;
#X connect 31 0 264 0;
#X connect 32 0 70 0;
#X connect 33 0 34 0;
#X connect 34 0 35 0;
#X connect 35 0 36 0;
#X connect 35 0 163 0;
#X connect 36 0 37 0;
#X connect 36 1 256 0;
#X connect 37 0 38 0;
#X connect 38 0 58 0;
#X connect 39 0 40 0;
#X connect 40 0 41 0;
#X connect 41 0 42 0;
#X connect 41 0 175 0;
#X connect 42 0 43 0;
#X connect 42 1 259 0;
#X connect 43 0 44 0;
#X connect 44 0 65 0;
#X connect 45 0 46 0;
#X connect 46 0 47 0;
#X connect 47 0 48 0;
#X connect 47 0 183 0;
#X connect 48 0 49 0;
#X connect 48 1 261 0;
#X connect 49 0 50 0;
#X connect 50 0 67 0;
#X connect 51 0 52 0;
#X connect 52 0 53 0;
#X connect 53 0 54 0;
#X connect 53 0 191 0;
#X connect 54 0 55 0;
#X connect 54 1 263 0;
#X connect 55 0 56 0;
#X connect 56 0 69 0;
#X connect 59 0 60 0;
#X connect 60 0 61 0;
#X connect 61 0 167 0;
#X connect 61 0 257 0;
#X connect 62 0 63 0;
#X connect 71 0 72 0;
#X connect 72 0 73 0;
#X connect 73 0 203 0;
#X connect 73 0 275 0;
#X connect 74 0 75 0;
#X connect 75 0 76 0;
#X connect 76 0 77 0;
#X connect 76 0 199 0;
#X connect 77 0 78 0;
#X connect 77 1 276 0;
#X connect 78 0 80 0;
#X connect 79 0 129 0;
#X connect 80 0 130 0;
#X connect 81 0 82 0;
#X connect 82 0 83 0;
#X connect 83 0 206 0;
#X connect 83 0 274 0;
#X connect 84 0 131 0;
#X connect 85 0 86 0;
#X connect 86 0 87 0;
#X connect 87 0 219 0;
#X connect 87 0 272 0;
#X connect 88 0 134 0;
#X connect 89 0 90 0;
#X connect 90 0 91 0;
#X connect 91 0 227 0;
#X connect 91 0 270 0;
#X connect 92 0 136 0;
#X connect 93 0 94 0;
#X connect 94 0 95 0;
#X connect 95 0 235 0;
#X connect 95 0 268 0;
#X connect 96 0 138 0;
#X connect 97 0 98 0;
#X connect 98 0 99 0;
#X connect 99 0 243 0;
#X connect 99 0 266 0;
#X connect 100 0 140 0;
#X connect 101 0 102 0;
#X connect 102 0 103 0;
#X connect 103 0 104 0;
#X connect 103 0 211 0;
#X connect 104 0 105 0;
#X connect 104 1 277 0;
#X connect 105 0 106 0;
#X connect 106 0 132 0;
#X connect 107 0 108 0;
#X connect 108 0 109 0;
#X connect 109 0 110 0;
#X connect 109 0 223 0;
#X connect 110 0 111 0;
#X connect 110 1 271 0;
#X connect 111 0 112 0;
#X connect 112 0 135 0;
#X connect 113 0 114 0;
#X connect 114 0 115 0;
#X connect 115 0 116 0;
#X connect 115 0 231 0;
#X connect 116 0 117 0;
#X connect 116 1 269 0;
#X connect 117 0 118 0;
#X connect 118 0 137 0;
#X connect 119 0 120 0;
#X connect 120 0 121 0;
#X connect 121 0 122 0;
#X connect 122 0 123 0;
#X connect 122 1 267 0;
#X connect 123 0 124 0;
#X connect 124 0 139 0;
#X connect 125 0 126 0;
#X connect 126 0 127 0;
#X connect 127 0 215 0;
#X connect 127 0 273 0;
#X connect 128 0 133 0;
#X connect 141 0 142 0;
#X connect 142 0 143 0;
#X connect 143 0 246 0;
#X connect 143 0 265 0;
#X connect 144 0 145 0;
#X connect 146 0 147 0;
#X connect 147 0 0 0;
#X connect 148 0 149 0;
#X connect 149 0 147 1;
#X connect 151 0 153 0;
#X connect 152 0 2 0;
#X connect 152 1 151 1;
#X connect 153 0 150 0;
#X connect 154 0 5 0;
#X connect 154 1 156 1;
#X connect 156 0 157 0;
#X connect 157 0 155 0;
#X connect 159 0 160 0;
#X connect 160 0 158 0;
#X connect 161 0 13 0;
#X connect 161 1 159 1;
#X connect 163 0 165 0;
#X connect 164 0 33 0;
#X connect 164 1 163 1;
#X connect 165 0 162 0;
#X connect 167 0 169 0;
#X connect 168 0 59 0;
#X connect 168 1 167 1;
#X connect 169 0 166 0;
#X connect 171 0 173 0;
#X connect 172 0 17 0;
#X connect 172 1 171 1;
#X connect 173 0 170 0;
#X connect 175 0 177 0;
#X connect 176 0 39 0;
#X connect 176 1 175 1;
#X connect 177 0 174 0;
#X connect 179 0 181 0;
#X connect 180 0 21 0;
#X connect 180 1 179 1;
#X connect 181 0 178 0;
#X connect 183 0 185 0;
#X connect 184 0 45 0;
#X connect 184 1 183 1;
#X connect 185 0 182 0;
#X connect 187 0 189 0;
#X connect 188 0 25 0;
#X connect 188 1 187 1;
#X connect 189 0 186 0;
#X connect 191 0 193 0;
#X connect 192 0 51 0;
#X connect 192 1 191 1;
#X connect 193 0 190 0;
#X connect 195 0 197 0;
#X connect 196 0 29 0;
#X connect 196 1 195 1;
#X connect 197 0 194 0;
#X connect 199 0 201 0;
#X connect 200 0 74 0;
#X connect 200 1 199 1;
#X connect 201 0 198 0;
#X connect 203 0 208 0;
#X connect 204 0 71 0;
#X connect 204 1 203 1;
#X connect 206 0 209 0;
#X connect 207 0 81 0;
#X connect 207 1 206 1;
#X connect 208 0 202 0;
#X connect 209 0 205 0;
#X connect 211 0 213 0;
#X connect 212 0 101 0;
#X connect 212 1 211 1;
#X connect 213 0 210 0;
#X connect 215 0 217 0;
#X connect 216 0 125 0;
#X connect 216 1 215 1;
#X connect 217 0 214 0;
#X connect 219 0 221 0;
#X connect 220 0 85 0;
#X connect 220 1 219 1;
#X connect 221 0 218 0;
#X connect 223 0 225 0;
#X connect 224 0 107 0;
#X connect 224 1 223 1;
#X connect 225 0 222 0;
#X connect 227 0 229 0;
#X connect 228 0 89 0;
#X connect 228 1 227 1;
#X connect 229 0 226 0;
#X connect 231 0 233 0;
#X connect 232 0 113 0;
#X connect 232 1 231 1;
#X connect 233 0 230 0;
#X connect 235 0 237 0;
#X connect 236 0 93 0;
#X connect 236 1 235 1;
#X connect 237 0 234 0;
#X connect 239 0 241 0;
#X connect 240 0 119 0;
#X connect 240 1 239 1;
#X connect 241 0 238 0;
#X connect 243 0 248 0;
#X connect 244 0 97 0;
#X connect 244 1 243 1;
#X connect 246 0 249 0;
#X connect 247 0 141 0;
#X connect 247 1 246 1;
#X connect 248 0 242 0;
#X connect 249 0 245 0;
#X connect 250 0 252 0;
#X connect 251 0 4 0;
#X connect 251 0 7 0;
#X connect 251 0 15 0;
#X connect 251 0 35 0;
#X connect 251 0 61 0;
#X connect 251 0 19 0;
#X connect 251 0 41 0;
#X connect 251 0 23 0;
#X connect 251 0 47 0;
#X connect 251 0 27 0;
#X connect 251 0 53 0;
#X connect 251 0 31 0;
#X connect 251 0 76 0;
#X connect 251 0 103 0;
#X connect 251 0 109 0;
#X connect 251 0 115 0;
#X connect 251 0 121 0;
#X connect 251 0 73 0;
#X connect 251 0 83 0;
#X connect 251 0 127 0;
#X connect 251 0 87 0;
#X connect 251 0 91 0;
#X connect 251 0 95 0;
#X connect 251 0 99 0;
#X connect 251 0 143 0;
#X connect 252 0 251 0;
#X connect 253 0 11 0;
#X connect 254 0 12 0;
#X connect 255 0 16 0;
#X connect 256 0 38 0;
#X connect 257 0 62 0;
#X connect 258 0 20 0;
#X connect 259 0 44 0;
#X connect 260 0 24 0;
#X connect 261 0 50 0;
#X connect 262 0 28 0;
#X connect 263 0 56 0;
#X connect 264 0 32 0;
#X connect 265 0 144 0;
#X connect 266 0 100 0;
#X connect 267 0 124 0;
#X connect 268 0 96 0;
#X connect 269 0 118 0;
#X connect 270 0 92 0;
#X connect 271 0 112 0;
#X connect 272 0 88 0;
#X connect 273 0 128 0;
#X connect 274 0 84 0;
#X connect 275 0 79 0;
#X connect 276 0 80 0;
#X connect 277 0 106 0;
#X restore 46 318 pd polyphonic;
#N canvas 593 234 521 528 monophonic 0;
#X obj 82 21 r \$0-ctrl;
#X obj 104 446 send;
#X msg 104 391 color \$1 \$1 \$1;
#X obj 223 418 symbol;
#X obj 223 368 list \$0;
#X msg 223 393 \$2-rkey-\$1;
#X obj 104 172 swap;
#X obj 104 219 > 0;
#X obj 196 189 t f f;
#X obj 196 215 sel 1 3 6 8 10 13 15 18 20 22;
#X obj 65 310 vs.gate;
#X obj 65 289 f 1;
#X obj 367 238 t b;
#X obj 367 260 f 2;
#X obj 26 335 sel 0 1;
#X obj 26 365 f 22;
#X text 155 140 mode 0: monophonic;
#X obj 82 58 spigot;
#X obj 170 35 == 0;
#X obj 170 12 r \$0-mode;
#X obj 82 133 poly 1 1;
#X obj 93 80 s \$0-monophonicdata;
#X obj 66 365 f 14;
#X obj 104 366 * 14;
#X connect 0 0 17 0;
#X connect 2 0 1 0;
#X connect 3 0 1 1;
#X connect 4 0 5 0;
#X connect 5 0 3 0;
#X connect 6 0 7 0;
#X connect 6 1 8 0;
#X connect 7 0 10 1;
#X connect 8 0 9 0;
#X connect 8 1 4 0;
#X connect 9 0 11 0;
#X connect 9 1 11 0;
#X connect 9 2 11 0;
#X connect 9 3 11 0;
#X connect 9 4 11 0;
#X connect 9 5 11 0;
#X connect 9 6 11 0;
#X connect 9 7 11 0;
#X connect 9 8 11 0;
#X connect 9 9 11 0;
#X connect 9 10 12 0;
#X connect 10 0 14 0;
#X connect 10 1 23 0;
#X connect 11 0 10 0;
#X connect 12 0 13 0;
#X connect 13 0 10 0;
#X connect 14 0 15 0;
#X connect 14 1 22 0;
#X connect 15 0 2 0;
#X connect 17 0 20 0;
#X connect 17 0 21 0;
#X connect 18 0 17 1;
#X connect 19 0 18 0;
#X connect 20 1 6 0;
#X connect 20 2 6 1;
#X connect 22 0 2 0;
#X connect 23 0 2 0;
#X restore 46 296 pd monophonic;
#N canvas 246 87 521 528 clear 0;
#X obj 104 416 send;
#X msg 104 361 color \$1 \$1 \$1;
#X obj 223 388 symbol;
#X obj 223 338 list \$0;
#X msg 223 363 \$2-rkey-\$1;
#X obj 104 189 > 0;
#X obj 196 159 t f f;
#X obj 196 185 sel 1 3 6 8 10 13 15 18 20 22;
#X obj 65 280 vs.gate;
#X obj 65 259 f 1;
#X obj 367 208 t b;
#X obj 367 230 f 2;
#X obj 26 305 sel 0 1;
#X obj 26 335 f 22;
#X obj 104 124 f 0;
#X obj 104 48 r \$0-clear;
#X obj 104 82 vs.uzi 25;
#X obj 66 335 f 14;
#X obj 104 336 * 14;
#X connect 1 0 0 0;
#X connect 2 0 0 1;
#X connect 3 0 4 0;
#X connect 4 0 2 0;
#X connect 5 0 8 1;
#X connect 6 0 7 0;
#X connect 6 1 3 0;
#X connect 7 0 9 0;
#X connect 7 1 9 0;
#X connect 7 2 9 0;
#X connect 7 3 9 0;
#X connect 7 4 9 0;
#X connect 7 5 9 0;
#X connect 7 6 9 0;
#X connect 7 7 9 0;
#X connect 7 8 9 0;
#X connect 7 9 9 0;
#X connect 7 10 10 0;
#X connect 8 0 12 0;
#X connect 8 1 18 0;
#X connect 9 0 8 0;
#X connect 10 0 11 0;
#X connect 11 0 8 0;
#X connect 12 0 13 0;
#X connect 12 1 17 0;
#X connect 13 0 1 0;
#X connect 14 0 5 0;
#X connect 15 0 16 0;
#X connect 16 0 14 0;
#X connect 16 2 6 0;
#X connect 17 0 1 0;
#X connect 18 0 1 0;
#X restore 47 269 pd clear;
#N canvas 0 22 782 622 touchkey 0;
#N canvas 0 22 1007 401 keydown 0;
#X text 134 67 ottaba bassa;
#X obj 441 96 sel 113 50 119 51 101 114 53 116 54 121 55 117 105 ;
#X text 564 72 ottava alta;
#X obj 11 96 sel 122 115 120 100 99 118 103 98 104 110 106 109;
#X msg 11 140 0;
#X msg 43 168 1;
#X msg 75 140 2;
#X msg 108 168 3;
#X msg 140 140 4;
#X msg 173 168 5;
#X msg 205 140 6;
#X msg 237 168 7;
#X msg 270 140 8;
#X msg 302 168 9;
#X msg 335 140 10;
#X msg 367 168 11;
#X msg 441 140 12;
#X msg 471 168 13;
#X msg 502 140 14;
#X msg 532 168 15;
#X msg 563 140 16;
#X msg 593 168 17;
#X msg 624 140 18;
#X msg 654 168 19;
#X msg 685 140 20;
#X msg 715 168 21;
#X msg 746 140 22;
#X msg 776 168 23;
#X msg 807 140 24;
#X obj 427 311 outlet;
#X obj 427 281 f;
#X obj 229 12 inlet;
#X connect 1 0 16 0;
#X connect 1 1 17 0;
#X connect 1 2 18 0;
#X connect 1 3 19 0;
#X connect 1 4 20 0;
#X connect 1 5 21 0;
#X connect 1 6 22 0;
#X connect 1 7 23 0;
#X connect 1 8 24 0;
#X connect 1 9 25 0;
#X connect 1 10 26 0;
#X connect 1 11 27 0;
#X connect 1 12 28 0;
#X connect 3 0 4 0;
#X connect 3 1 5 0;
#X connect 3 2 6 0;
#X connect 3 3 7 0;
#X connect 3 4 8 0;
#X connect 3 5 9 0;
#X connect 3 6 10 0;
#X connect 3 7 11 0;
#X connect 3 8 12 0;
#X connect 3 9 13 0;
#X connect 3 10 14 0;
#X connect 3 11 15 0;
#X connect 4 0 30 0;
#X connect 5 0 30 0;
#X connect 6 0 30 0;
#X connect 7 0 30 0;
#X connect 8 0 30 0;
#X connect 9 0 30 0;
#X connect 10 0 30 0;
#X connect 11 0 30 0;
#X connect 12 0 30 0;
#X connect 13 0 30 0;
#X connect 14 0 30 0;
#X connect 15 0 30 0;
#X connect 16 0 30 0;
#X connect 17 0 30 0;
#X connect 18 0 30 0;
#X connect 19 0 30 0;
#X connect 20 0 30 0;
#X connect 21 0 30 0;
#X connect 22 0 30 0;
#X connect 23 0 30 0;
#X connect 24 0 30 0;
#X connect 25 0 30 0;
#X connect 26 0 30 0;
#X connect 27 0 30 0;
#X connect 28 0 30 0;
#X connect 30 0 29 0;
#X connect 31 0 1 0;
#X connect 31 0 3 0;
#X restore 134 114 pd keydown;
#N canvas 0 22 1007 401 keyup 0;
#X text 134 67 ottaba bassa;
#X obj 441 96 sel 113 50 119 51 101 114 53 116 54 121 55 117 105;
#X text 564 72 ottava alta;
#X obj 11 96 sel 122 115 120 100 99 118 103 98 104 110 106 109;
#X msg 11 140 0;
#X msg 43 168 1;
#X msg 75 140 2;
#X msg 108 168 3;
#X msg 140 140 4;
#X msg 173 168 5;
#X msg 205 140 6;
#X msg 237 168 7;
#X msg 270 140 8;
#X msg 302 168 9;
#X msg 335 140 10;
#X msg 367 168 11;
#X msg 441 140 12;
#X msg 471 168 13;
#X msg 502 140 14;
#X msg 532 168 15;
#X msg 563 140 16;
#X msg 593 168 17;
#X msg 624 140 18;
#X msg 654 168 19;
#X msg 685 140 20;
#X msg 715 168 21;
#X msg 746 140 22;
#X msg 776 168 23;
#X msg 807 140 24;
#X obj 427 311 outlet;
#X obj 427 281 f;
#X obj 229 12 inlet;
#X connect 1 0 16 0;
#X connect 1 1 17 0;
#X connect 1 2 18 0;
#X connect 1 3 19 0;
#X connect 1 4 20 0;
#X connect 1 5 21 0;
#X connect 1 6 22 0;
#X connect 1 7 23 0;
#X connect 1 8 24 0;
#X connect 1 9 25 0;
#X connect 1 10 26 0;
#X connect 1 11 27 0;
#X connect 1 12 28 0;
#X connect 3 0 4 0;
#X connect 3 1 5 0;
#X connect 3 2 6 0;
#X connect 3 3 7 0;
#X connect 3 4 8 0;
#X connect 3 5 9 0;
#X connect 3 6 10 0;
#X connect 3 7 11 0;
#X connect 3 8 12 0;
#X connect 3 9 13 0;
#X connect 3 10 14 0;
#X connect 3 11 15 0;
#X connect 4 0 30 0;
#X connect 5 0 30 0;
#X connect 6 0 30 0;
#X connect 7 0 30 0;
#X connect 8 0 30 0;
#X connect 9 0 30 0;
#X connect 10 0 30 0;
#X connect 11 0 30 0;
#X connect 12 0 30 0;
#X connect 13 0 30 0;
#X connect 14 0 30 0;
#X connect 15 0 30 0;
#X connect 16 0 30 0;
#X connect 17 0 30 0;
#X connect 18 0 30 0;
#X connect 19 0 30 0;
#X connect 20 0 30 0;
#X connect 21 0 30 0;
#X connect 22 0 30 0;
#X connect 23 0 30 0;
#X connect 24 0 30 0;
#X connect 25 0 30 0;
#X connect 26 0 30 0;
#X connect 27 0 30 0;
#X connect 28 0 30 0;
#X connect 30 0 29 0;
#X connect 31 0 1 0;
#X connect 31 0 3 0;
#X restore 224 115 pd keyup;
#X obj 134 570 send;
#X msg 134 515 color \$1 \$1 \$1;
#X obj 253 542 symbol;
#X obj 253 492 list \$0;
#X msg 253 517 \$2-rkey-\$1;
#X obj 134 343 > 0;
#X obj 226 313 t f f;
#X obj 226 339 sel 1 3 6 8 10 13 15 18 20 22;
#X obj 95 434 vs.gate;
#X obj 95 413 f 1;
#X obj 397 362 t b;
#X obj 397 384 f 2;
#X obj 56 459 sel 0 1;
#X obj 56 489 f 22;
#X msg 224 136 0 \$1;
#X obj 134 296 unpack;
#X obj 134 27 key;
#X obj 224 29 keyup;
#X obj 134 69 spigot;
#X obj 224 71 spigot;
#X obj 281 49 == 2;
#X obj 281 24 r \$0-mode;
#X obj 22 267 send \$0-touchdata;
#X obj 363 25 r \$0-ctrl;
#X obj 382 195 delay 100;
#X obj 205 257 swap;
#X obj 363 171 t l b f;
#X obj 382 241 list;
#X obj 382 217 f 0;
#X obj 363 71 spigot;
#X obj 22 221 swap;
#X obj 22 243 pack;
#X obj 134 184 list;
#X obj 134 137 t b f;
#X obj 491 113 r \$0-basevel;
#X obj 134 161 v \$0-basenotevel;
#X obj 491 135 v \$0-basenotevel;
#X obj 96 489 f 14;
#X obj 134 490 * 14;
#X connect 0 0 35 0;
#X connect 1 0 16 0;
#X connect 3 0 2 0;
#X connect 4 0 2 1;
#X connect 5 0 6 0;
#X connect 6 0 4 0;
#X connect 7 0 10 1;
#X connect 8 0 9 0;
#X connect 8 1 5 0;
#X connect 9 0 11 0;
#X connect 9 1 11 0;
#X connect 9 2 11 0;
#X connect 9 3 11 0;
#X connect 9 4 11 0;
#X connect 9 5 11 0;
#X connect 9 6 11 0;
#X connect 9 7 11 0;
#X connect 9 8 11 0;
#X connect 9 9 11 0;
#X connect 9 10 12 0;
#X connect 10 0 14 0;
#X connect 10 1 40 0;
#X connect 11 0 10 0;
#X connect 12 0 13 0;
#X connect 13 0 10 0;
#X connect 14 0 15 0;
#X connect 14 1 39 0;
#X connect 15 0 3 0;
#X connect 16 0 17 0;
#X connect 16 0 32 0;
#X connect 17 0 7 0;
#X connect 17 1 8 0;
#X connect 18 0 20 0;
#X connect 19 0 21 0;
#X connect 20 0 0 0;
#X connect 21 0 1 0;
#X connect 22 0 21 1;
#X connect 22 0 20 1;
#X connect 22 0 31 1;
#X connect 23 0 22 0;
#X connect 25 0 31 0;
#X connect 26 0 30 0;
#X connect 27 0 7 0;
#X connect 27 1 8 0;
#X connect 28 0 27 0;
#X connect 28 0 24 0;
#X connect 28 1 26 0;
#X connect 28 2 29 1;
#X connect 29 0 17 0;
#X connect 29 0 32 0;
#X connect 30 0 29 0;
#X connect 31 0 28 0;
#X connect 32 0 33 0;
#X connect 32 1 33 1;
#X connect 33 0 24 0;
#X connect 34 0 32 0;
#X connect 34 0 17 0;
#X connect 35 0 37 0;
#X connect 35 1 34 1;
#X connect 36 0 38 0;
#X connect 37 0 34 0;
#X connect 39 0 3 0;
#X connect 40 0 3 0;
#X restore 46 339 pd touchkey;
#X connect 0 0 6 0;
#X connect 1 0 7 0;
#X connect 2 0 8 0;
#X connect 6 0 9 0;
#X connect 7 0 9 0;
#X connect 8 0 9 0;
#X connect 10 0 9 0;
#X connect 11 0 9 0;
#X connect 12 0 9 0;
#X connect 13 0 10 0;
#X connect 14 0 11 0;
#X connect 15 0 12 0;
#X connect 16 0 22 0;
#X connect 17 0 23 0;
#X connect 18 0 24 0;
#X connect 19 0 25 0;
#X connect 20 0 26 0;
#X connect 21 0 27 0;
#X connect 22 0 9 0;
#X connect 23 0 9 0;
#X connect 24 0 9 0;
#X connect 25 0 9 0;
#X connect 26 0 9 0;
#X connect 27 0 9 0;
#X connect 29 0 41 0;
#X connect 30 0 42 0;
#X connect 31 0 43 0;
#X connect 32 0 44 0;
#X connect 33 0 45 0;
#X connect 34 0 46 0;
#X connect 35 0 47 0;
#X connect 36 0 48 0;
#X connect 37 0 49 0;
#X connect 38 0 50 0;
#X connect 39 0 51 0;
#X connect 40 0 52 0;
#X connect 41 0 28 0;
#X connect 42 0 28 0;
#X connect 43 0 28 0;
#X connect 44 0 28 0;
#X connect 45 0 28 0;
#X connect 46 0 28 0;
#X connect 47 0 28 0;
#X connect 48 0 28 0;
#X connect 49 0 28 0;
#X connect 50 0 28 0;
#X connect 51 0 28 0;
#X connect 52 0 28 0;
#X connect 53 0 54 0;
#X connect 54 0 28 0;
#X restore 59 312 pd controller;
#X obj 225 306 s \$0-mode;
#X floatatom 225 260 5 0 0 0 - - -, f 5;
#X obj 294 306 s \$0-clear;
#X obj 366 280 bng 15 250 50 0 empty empty empty 17 7 0 10 -262144
-1 -1;
#X obj 225 279 t f b;
#N canvas 277 138 450 300 config 0;
#X obj 104 105 vradio 13 1 0 3 \$0-mode \$0-setmode empty 0 -8 0 10
-262144 -1 -1 0;
#X text 122 103 mono;
#X text 122 116 poly;
#X text 121 130 touch;
#X floatatom 104 147 3 0 127 1 - #0-setbasekey #0-basekey, f 3;
#X floatatom 104 163 3 1 127 1 - #0-setbasevel #0-basevel, f 3;
#X text 127 147 bkey;
#X text 127 163 bvel;
#X obj 164 118 bng 15 250 50 0 \$0-clear \$0-setclear clear -5 -8 0
10 -262144 -1 -1;
#X coords 0 -1 1 1 90 80 2 100 100;
#X restore 400 140 pd config;
#N canvas 0 22 450 300 keyboard 0;
#X obj 100 137 vsl 20 40 0 127 0 0 \$0-key-0 \$0-rkey-0 empty 0 -9
0 10 -262144 -262144 -262144 0 0;
#X obj 120 137 vsl 20 40 0 127 0 0 \$0-key-2 \$0-rkey-2 empty 0 -9
0 10 -262144 -262144 -262144 0 0;
#X obj 140 137 vsl 20 40 0 127 0 0 \$0-key-4 \$0-rkey-4 empty 0 -9
0 10 -262144 -262144 -262144 0 0;
#X obj 160 137 vsl 20 40 0 127 0 0 \$0-key-5 \$0-rkey-5 empty 0 -9
0 10 -262144 -262144 -262144 0 0;
#X obj 180 137 vsl 20 40 0 127 0 0 \$0-key-7 \$0-rkey-7 empty 0 -9
0 10 -262144 -262144 -262144 0 0;
#X obj 200 137 vsl 20 40 0 127 0 0 \$0-key-9 \$0-rkey-9 empty 0 -9
0 10 -262144 -262144 -262144 0 0;
#X obj 220 137 vsl 20 40 0 127 0 0 \$0-key-11 \$0-rkey-11 empty 0 -9
0 10 -262144 -262144 -262144 0 0;
#X obj 240 137 vsl 20 40 0 127 0 0 \$0-key-12 \$0-rkey-12 empty 0 -9
0 10 -262144 -262144 -262144 0 0;
#X obj 260 137 vsl 20 40 0 127 0 0 \$0-key-14 \$0-rkey-14 empty 0 -9
0 10 -262144 -262144 -262144 0 0;
#X obj 280 137 vsl 20 40 0 127 0 0 \$0-key-16 \$0-rkey-16 empty 0 -9
0 10 -262144 -262144 -262144 0 0;
#X obj 300 137 vsl 20 40 0 127 0 0 \$0-key-17 \$0-rkey-17 empty 0 -9
0 10 -262144 -262144 -262144 0 0;
#X obj 320 137 vsl 20 40 0 127 0 0 \$0-key-19 \$0-rkey-19 empty 0 -9
0 10 -262144 -262144 -262144 0 0;
#X obj 340 137 vsl 20 40 0 127 0 0 \$0-key-21 \$0-rkey-21 empty 0 -9
0 10 -262144 -262144 -262144 0 0;
#X obj 360 137 vsl 20 40 0 127 0 0 \$0-key-23 \$0-rkey-23 empty 0 -9
0 10 -262144 -262144 -262144 0 0;
#X obj 380 137 vsl 20 40 0 127 0 0 \$0-key-24 \$0-rkey-24 empty 0 -9
0 10 -262144 -262144 -262144 0 0;
#X obj 113 102 vsl 15 30 0 127 0 0 \$0-key-1 \$0-rkey-1 empty 0 -9
0 10 -1 -1 -1 0 0;
#X obj 133 102 vsl 15 30 0 127 0 0 \$0-key-3 \$0-rkey-3 empty 0 -9
0 10 -1 -1 -1 0 0;
#X obj 173 102 vsl 15 30 0 127 0 0 \$0-key-6 \$0-rkey-6 empty 0 -9
0 10 -1 -1 -1 0 0;
#X obj 193 102 vsl 15 30 0 127 0 0 \$0-key-8 \$0-rkey-8 empty 0 -9
0 10 -1 -1 -1 0 0;
#X obj 213 102 vsl 15 30 0 127 0 0 \$0-key-10 \$0-rkey-10 empty 0 -9
0 10 -1 -1 -1 0 0;
#X obj 253 102 vsl 15 30 0 127 0 0 \$0-key-13 \$0-rkey-13 empty 0 -9
0 10 -1 -1 -1 0 0;
#X obj 273 102 vsl 15 30 0 127 0 0 \$0-key-15 \$0-rkey-15 empty 0 -9
0 10 -1 -1 -1 0 0;
#X obj 313 102 vsl 15 30 0 127 0 0 \$0-key-18 \$0-rkey-18 empty 0 -9
0 10 -1 -1 -1 0 0;
#X obj 333 102 vsl 15 30 0 127 0 0 \$0-key-20 \$0-rkey-20 empty 0 -9
0 10 -1 -1 -1 0 0;
#X obj 353 102 vsl 15 30 0 127 0 0 \$0-key-22 \$0-rkey-22 empty 0 -9
0 10 -1 -1 -1 0 0;
#X coords 0 -1 1 1 300 80 2 100 100;
#X restore 100 140 pd keyboard;
#X text 516 278 receive \$0-setmode;
#X text 516 298 receive \$0-setbasekey;
#X text 516 318 receive \$0-setbasevel;
#X obj 535 37 loadbang;
#X obj 535 59 f \$0;
#X obj 612 37 bng 15 250 50 0 empty empty empty 17 7 0 10 -262144 -1
-1;
#X obj 223 344 r \$0-monophonicdata;
#X obj 223 426 unpack;
#X obj 223 515 +;
#X obj 238 486 r \$0-basekey;
#X obj 385 523 int;
#X obj 238 366 r \$0-polydata;
#X msg 535 81 \; \$1-setmode 0 \; \$1-setbasekey 48 \; \$1-setbasevel
64 \; \$1-clear bang \;;
#X obj 255 389 r \$0-touchdata;
#X obj 40 6 inlet;
#X obj 223 573 outlet note;
#X obj 385 573 outlet vel;
#X obj 294 259 r \$0-mode;
#X obj 294 281 t b;
#X obj 177 50 unpack 0 0 0;
#X obj 40 28 route basekey basevel mode list;
#X obj 40 102 s \$0-setbasekey;
#X obj 141 101 s \$0-setbasevel;
#X obj 239 101 s \$0-setmode;
#X text 567 540 f.bianchi;
#X connect 2 0 5 0;
#X connect 4 0 3 0;
#X connect 5 0 1 0;
#X connect 11 0 12 0;
#X connect 12 0 20 0;
#X connect 13 0 12 0;
#X connect 14 0 15 0;
#X connect 15 0 16 0;
#X connect 15 1 18 0;
#X connect 16 0 23 0;
#X connect 17 0 16 1;
#X connect 18 0 24 0;
#X connect 19 0 15 0;
#X connect 21 0 15 0;
#X connect 22 0 28 0;
#X connect 25 0 26 0;
#X connect 26 0 3 0;
#X connect 27 0 29 0;
#X connect 27 1 30 0;
#X connect 27 2 31 0;
#X connect 28 0 29 0;
#X connect 28 1 30 0;
#X connect 28 2 31 0;
#X connect 28 3 27 0;
#X coords 0 -1 1 1 390 80 2 100 140;
