#N canvas 195 259 168 175 10;
#X obj 20 72 vs.sum;
#X obj 20 42 t l l;
#X obj 47 93 list length;
#X obj 20 114 /;
#X obj 20 136 outlet;
#X obj 20 16 inlet;
#X text 92 140 f.bianchi;
#X connect 0 0 3 0;
#X connect 1 0 0 0;
#X connect 1 1 2 0;
#X connect 2 0 3 1;
#X connect 3 0 4 0;
#X connect 5 0 1 0;
