#N canvas 212 259 549 426 10;
#X obj 50 209 vs.rev;
#X obj 50 234 list split 1;
#X obj 23 181 t a a;
#X obj 23 267 list;
#X obj 183 180 t a a;
#X obj 183 350 list;
#X obj 210 231 list split 1;
#X obj 244 264 t a a;
#X obj 301 281 list length;
#X obj 301 308 - 1;
#X obj 244 333 list split;
#X obj 210 206 vs.rev;
#X obj 464 279 vs.rev;
#X obj 437 251 t a a;
#X obj 437 307 list;
#X obj 213 15 inlet list;
#X obj 328 15 inlet mode;
#X obj 168 151 vs.gate3;
#X obj 183 390 outlet;
#X obj 328 62 int;
#X obj 448 15 loadbang;
#X obj 448 40 f \$1;
#X obj 328 40 clip 0 2;
#X obj 328 87 + 1;
#X obj 448 110 vs.defaulter 0;
#X obj 448 86 int;
#X obj 448 64 clip 0 2;
#X text 314 388 f.bianchi \, thank's to J. McCartney;
#X connect 0 0 1 0;
#X connect 1 1 3 1;
#X connect 2 0 3 0;
#X connect 2 1 0 0;
#X connect 3 0 18 0;
#X connect 4 0 5 0;
#X connect 4 1 11 0;
#X connect 5 0 18 0;
#X connect 6 1 7 0;
#X connect 7 0 10 0;
#X connect 7 1 8 0;
#X connect 8 0 9 0;
#X connect 9 0 10 1;
#X connect 10 0 5 1;
#X connect 11 0 6 0;
#X connect 12 0 14 1;
#X connect 13 0 14 0;
#X connect 13 1 12 0;
#X connect 14 0 18 0;
#X connect 15 0 17 1;
#X connect 16 0 22 0;
#X connect 17 0 2 0;
#X connect 17 1 4 0;
#X connect 17 2 13 0;
#X connect 19 0 23 0;
#X connect 20 0 21 0;
#X connect 21 0 26 0;
#X connect 22 0 19 0;
#X connect 23 0 17 0;
#X connect 24 0 23 0;
#X connect 25 0 24 0;
#X connect 26 0 25 0;
