#N canvas 143 192 913 500 10;
#X obj 100 98 snapshot~;
#X obj 100 58 inlet~;
#X obj 24 25 nbx 8 18 -1e+37 1e+37 0 0 \$0-sigout \$0-sig empty -40
0 1 12 -228856 -1 -1 0 256;
#X obj 100 218 outlet;
#X obj 176 17 loadbang;
#X obj 176 39 f 1;
#X obj 232 18 r pd;
#X obj 232 40 route dsp;
#X obj 310 30 inlet;
#X obj 100 120 s \$0-sig;
#X obj 100 192 r \$0-sigout;
#X obj 353 390 s \$0-sig;
#X msg 353 364 size \$1 \$2;
#X obj 383 193 vs.defaulter 8;
#X obj 353 340 vs.pak 8 18;
#X obj 353 236 clip 1 8;
#X obj 95 391 namecanvas \$0-numbersig;
#X obj 441 266 * 10;
#X obj 441 388 s \$0-numbersig;
#X obj 310 52 route float dim;
#X msg 441 361 coords 0 1 1 -1 \$1 \$2 2 20 20;
#X obj 383 164 f \$2;
#X obj 199 106 f \$1;
#X obj 176 69 metro 100;
#X obj 199 136 vs.defaulter 50;
#X obj 441 323 pack 0 28;
#X obj 441 288 + 14;
#X text 696 394 f.bianchi;
#X connect 0 0 9 0;
#X connect 1 0 0 0;
#X connect 4 0 5 0;
#X connect 4 0 21 0;
#X connect 4 0 22 0;
#X connect 5 0 23 0;
#X connect 6 0 7 0;
#X connect 7 0 23 0;
#X connect 8 0 19 0;
#X connect 10 0 3 0;
#X connect 12 0 11 0;
#X connect 13 0 15 0;
#X connect 14 0 12 0;
#X connect 15 0 14 0;
#X connect 15 0 17 0;
#X connect 17 0 26 0;
#X connect 19 0 23 1;
#X connect 19 1 15 0;
#X connect 20 0 18 0;
#X connect 21 0 13 0;
#X connect 22 0 24 0;
#X connect 23 0 0 0;
#X connect 24 0 23 1;
#X connect 25 0 20 0;
#X connect 26 0 25 0;
#X coords 0 1 1 -1 94 28 2 20 20;
