#N canvas 275 205 189 231 10;
#X obj 59 100 vs.sum;
#X obj 40 72 vs.iter;
#X obj 40 47 t l l l;
#X obj 85 135 list length;
#X obj 40 127 /;
#X obj 40 157 vs.group;
#X obj 40 17 inlet;
#X obj 40 190 outlet;
#X text 113 202 f.bianchi;
#X connect 0 0 4 1;
#X connect 1 0 4 0;
#X connect 2 0 1 0;
#X connect 2 1 0 0;
#X connect 2 2 3 0;
#X connect 3 0 5 1;
#X connect 4 0 5 0;
#X connect 5 0 7 0;
#X connect 6 0 2 0;
