#N canvas 68 104 1123 561 10;
#X obj 748 349 * 10;
#X obj 806 349 f \$0;
#X obj 46 421 catch~ \$0-snd;
#X text 748 485 singleosc \$0 idx;
#X obj 685 296 vs.uzi \$1 1;
#X obj 46 481 outlet~;
#X obj 149 13 inlet;
#X obj 685 267 loadbang;
#X obj 865 349 f \$3;
#X obj 748 322 t f f b b b, f 20;
#X obj 748 376 pack 0 0 0 0 0, f 20;
#X obj 835 349 f \$2;
#X obj 46 451 /~ \$1;
#X obj 748 460 s pd-\$0-oscs;
#N canvas 0 22 450 300 \$0-oscs 0;
#X restore 18 18 pd \$0-oscs;
#X obj 528 10 inlet;
#X obj 610 10 inlet;
#X obj 386 367 send;
#X obj 431 270 f \$0;
#X obj 431 295 pack, f 5;
#X msg 431 322 \$1-frq-\$2;
#X obj 431 350 symbol;
#X obj 528 366 send;
#X obj 573 269 f \$0;
#X obj 573 294 pack, f 5;
#X obj 573 349 symbol;
#X msg 573 321 \$1-amp-\$2;
#X obj 386 253 t f b;
#X obj 528 252 t f b;
#N canvas 171 184 465 383 freqsl 0;
#X obj 172 297 send;
#X obj 172 130 f \$0;
#X obj 172 158 pack, f 5;
#X obj 172 213 symbol;
#X obj 87 68 vs.uzi \$1 1;
#X obj 87 38 t b f;
#X obj 172 100 t b f;
#X obj 87 12 inlet;
#X obj 172 270 f;
#X obj 172 241 t b a;
#X msg 172 185 \$1-freqslide-\$2;
#X connect 1 0 2 0;
#X connect 2 0 10 0;
#X connect 3 0 9 0;
#X connect 4 2 6 0;
#X connect 5 0 4 0;
#X connect 5 1 8 1;
#X connect 6 0 1 0;
#X connect 6 1 2 1;
#X connect 7 0 5 0;
#X connect 8 0 0 0;
#X connect 9 0 8 0;
#X connect 9 1 0 1;
#X connect 10 0 3 0;
#X restore 149 74 pd freqsl;
#N canvas 171 184 465 383 ampsl 0;
#X obj 172 296 send;
#X obj 172 130 f \$0;
#X obj 172 158 pack, f 5;
#X obj 172 213 symbol;
#X obj 87 68 vs.uzi \$1 1;
#X obj 87 38 t b f;
#X obj 172 100 t b f;
#X obj 87 12 inlet;
#X obj 172 268 f;
#X obj 172 241 t b a;
#X msg 172 185 \$1-ampslide-\$2;
#X connect 1 0 2 0;
#X connect 2 0 10 0;
#X connect 3 0 9 0;
#X connect 4 2 6 0;
#X connect 5 0 4 0;
#X connect 5 1 8 1;
#X connect 6 0 1 0;
#X connect 6 1 2 1;
#X connect 7 0 5 0;
#X connect 8 0 0 0;
#X connect 9 0 8 0;
#X connect 9 1 0 1;
#X connect 10 0 3 0;
#X restore 200 104 pd ampsl;
#X obj 257 85 t b;
#X obj 257 112 vs.uzi \$1 1;
#X obj 257 141 f 0;
#X obj 149 38 route freqslide ampslide clear list;
#X obj 405 91 unpack 0 0 0;
#X msg 748 409 obj \$1 \$1 vs.singleosc~ \$3 \$2 \$4 \$5, f 23;
#X text 416 482 f.bianchi;
#X connect 0 0 10 0;
#X connect 1 0 10 2;
#X connect 2 0 12 0;
#X connect 4 2 9 0;
#X connect 6 0 34 0;
#X connect 7 0 4 0;
#X connect 8 0 10 4;
#X connect 9 0 0 0;
#X connect 9 1 10 1;
#X connect 9 2 1 0;
#X connect 9 3 11 0;
#X connect 9 4 8 0;
#X connect 10 0 36 0;
#X connect 11 0 10 3;
#X connect 12 0 5 0;
#X connect 15 0 28 0;
#X connect 16 0 19 1;
#X connect 16 0 24 1;
#X connect 18 0 19 0;
#X connect 19 0 20 0;
#X connect 20 0 21 0;
#X connect 21 0 17 1;
#X connect 23 0 24 0;
#X connect 24 0 26 0;
#X connect 25 0 22 1;
#X connect 26 0 25 0;
#X connect 27 0 17 0;
#X connect 27 1 18 0;
#X connect 28 0 22 0;
#X connect 28 1 23 0;
#X connect 31 0 32 0;
#X connect 32 0 33 0;
#X connect 32 2 24 1;
#X connect 32 2 19 1;
#X connect 33 0 27 0;
#X connect 33 0 28 0;
#X connect 34 0 29 0;
#X connect 34 1 30 0;
#X connect 34 2 31 0;
#X connect 34 3 35 0;
#X connect 34 4 27 0;
#X connect 35 0 27 0;
#X connect 35 1 28 0;
#X connect 35 2 24 1;
#X connect 35 2 19 1;
#X connect 36 0 13 0;
