#N canvas 0 22 280 179 10;
#X obj 13 17 inlet;
#X obj 93 17 inlet;
#X obj 93 42 t b f;
#X obj 13 107 outlet;
#X obj 172 15 inlet;
#X obj 172 40 t b f;
#X obj 13 82 pack \$1 \$2 \$3;
#X text 195 140 f.bianchi;
#X connect 0 0 6 0;
#X connect 1 0 2 0;
#X connect 2 0 6 0;
#X connect 2 1 6 1;
#X connect 4 0 5 0;
#X connect 5 0 6 0;
#X connect 5 1 6 2;
#X connect 6 0 3 0;
