#N canvas 491 152 378 477 10;
#X obj 203 61 hsl 22 15 0 1 0 0 \$0-pan \$0-pan_rcv empty -2 -8 0 10
-262144 -1 -1 0 1;
#X obj 33 260 outlet~;
#X obj 248 259 outlet~;
#X obj 289 170 pack 0 25;
#X obj 95 196 pack 0 25;
#X obj 33 68 inlet~;
#X obj 33 225 *~;
#X obj 95 221 line~;
#X obj 289 198 line~;
#X obj 289 143 sqrt;
#X obj 95 118 swap 1;
#X obj 95 143 -;
#X obj 95 168 sqrt;
#X obj 248 230 *~;
#X obj 31 450 s \$0-lab;
#X floatatom 31 296 5 0 0 0 - #0-pan -, f 5;
#X obj 31 398 list prepend label;
#X obj 31 423 list trim;
#X obj 31 373 makefilename %5.2f;
#X msg 83 349 0;
#X obj 83 326 loadbang;
#X floatatom 95 93 5 0 0 0 - #0-pan -, f 5;
#X obj 201 77 cnv 15 25 15 empty \$0-lab  0.00 -2 10 1 12 -262144 -1
0;
#X obj 31 318 * 2;
#X obj 31 343 - 1;
#X text 266 398 f.bianchi;
#X connect 3 0 8 0;
#X connect 4 0 7 0;
#X connect 5 0 6 0;
#X connect 5 0 13 0;
#X connect 6 0 1 0;
#X connect 7 0 6 1;
#X connect 8 0 13 1;
#X connect 9 0 3 0;
#X connect 10 0 11 0;
#X connect 10 1 11 1;
#X connect 11 0 12 0;
#X connect 12 0 4 0;
#X connect 13 0 2 0;
#X connect 15 0 23 0;
#X connect 16 0 17 0;
#X connect 17 0 14 0;
#X connect 18 0 16 0;
#X connect 19 0 18 0;
#X connect 20 0 19 0;
#X connect 21 0 10 0;
#X connect 21 0 9 0;
#X connect 23 0 24 0;
#X connect 24 0 18 0;
#X coords 0 -1 1 1 27 34 2 200 60;
