#N canvas 381 359 145 103 10;
#X obj 11 8 inlet;
#X obj 11 75 outlet;
#X obj 11 30 list prepend \$1;
#X obj 98 6 inlet;
#X obj 11 52 list trim;
#X text 71 79 f.bianchi;
#X connect 0 0 2 0;
#X connect 2 0 4 0;
#X connect 3 0 2 1;
#X connect 4 0 1 0;
