#N canvas 294 311 268 224 10;
#X obj 76 119 -~ 1;
#X obj 76 96 *~ 2;
#X obj 76 148 threshold~ 0 2 0 2;
#X obj 15 62 phasor~ 8;
#X obj 181 174 outlet bang;
#X obj 15 174 outlet~;
#X obj 15 16 inlet~;
#X obj 66 16 inlet phase;
#X obj 15 38 vs.argsig~ \$1;
#X text 92 202 f.bianchi;
#X connect 0 0 2 0;
#X connect 1 0 0 0;
#X connect 2 1 4 0;
#X connect 3 0 5 0;
#X connect 3 0 1 0;
#X connect 6 0 8 0;
#X connect 7 0 3 1;
#X connect 8 0 3 0;
