#N canvas 116 291 203 263 10;
#X obj 16 17 inlet~;
#X obj 16 181 outlet~;
#X obj 124 181 outlet~;
#X obj 16 156 *~;
#X obj 124 156 *~;
#X obj 139 50 *~ 0.25;
#X obj 31 123 cos~;
#X obj 31 98 wrap~;
#X obj 139 76 +~ 0.75;
#X obj 139 126 cos~;
#X obj 139 101 wrap~;
#X obj 139 17 inlet~;
#X text 35 238 f.bianchi - M.Giri;
#X connect 0 0 3 0;
#X connect 0 0 4 0;
#X connect 3 0 1 0;
#X connect 4 0 2 0;
#X connect 5 0 7 0;
#X connect 5 0 8 0;
#X connect 6 0 3 1;
#X connect 7 0 6 0;
#X connect 8 0 10 0;
#X connect 9 0 4 1;
#X connect 10 0 9 0;
#X connect 11 0 5 0;
