#N canvas 351 55 489 411 10;
#X obj 19 112 noise~;
#X obj 19 139 samphold~;
#X obj 37 238 samphold~;
#X obj 19 326 +~;
#X obj 37 296 *~;
#X obj 37 267 -~;
#X obj 161 254 -~ 1;
#X obj 161 279 abs~;
#X obj 161 11 inlet~;
#X obj 19 376 outlet~;
#X obj 161 122 phasor~;
#X obj 37 205 rzero_rev~ 0;
#X obj 323 38 vs.random;
#X obj 323 10 loadbang;
#X obj 161 57 vs.argsig~ \$1;
#X obj 434 105 inlet;
#X text 204 362 f.bianchi - M.Giri;
#X connect 0 0 1 0;
#X connect 1 0 3 0;
#X connect 1 0 5 1;
#X connect 1 0 11 0;
#X connect 2 0 5 0;
#X connect 3 0 9 0;
#X connect 4 0 3 1;
#X connect 5 0 4 0;
#X connect 6 0 7 0;
#X connect 7 0 4 1;
#X connect 8 0 14 0;
#X connect 10 0 1 1;
#X connect 10 0 2 1;
#X connect 10 0 6 0;
#X connect 11 0 2 0;
#X connect 12 0 10 1;
#X connect 13 0 12 0;
#X connect 14 0 10 0;
#X connect 15 0 10 1;
