#N canvas 315 314 440 328 10;
#X obj 19 236 list;
#X obj 61 236 list;
#X obj 19 273 list;
#X obj 19 145 t b b a;
#X obj 82 162 list split 1;
#X obj 19 48 t a a;
#X obj 151 65 list length;
#X obj 151 133 expr if ($f2 > 0 \, $f1 - $f2 \, abs($f2));
#X obj 19 18 inlet list;
#X obj 376 13 inlet n;
#X obj 19 295 outlet;
#X obj 305 14 loadbang;
#X obj 305 46 f \$1;
#X text 363 303 f.bianchi;
#X connect 0 0 2 0;
#X connect 1 0 2 1;
#X connect 2 0 10 0;
#X connect 3 0 0 0;
#X connect 3 1 1 0;
#X connect 3 2 4 0;
#X connect 4 0 1 1;
#X connect 4 1 0 1;
#X connect 5 0 3 0;
#X connect 5 1 6 0;
#X connect 6 0 7 0;
#X connect 7 0 4 1;
#X connect 8 0 5 0;
#X connect 9 0 7 1;
#X connect 11 0 12 0;
#X connect 12 0 7 1;
