#N canvas 214 350 195 232 10;
#X obj 18 16 inlet;
#X obj 18 153 outlet;
#X obj 18 108 *;
#X obj 120 17 loadbang;
#X obj 120 39 vs.pi;
#X msg 120 61 180 \$1;
#X obj 120 91 /;
#X text 65 154 radians to degree;
#X text 114 203 f.bianchi;
#X connect 0 0 2 0;
#X connect 2 0 1 0;
#X connect 3 0 4 0;
#X connect 4 0 5 0;
#X connect 5 0 6 0;
#X connect 6 0 2 1;
