#N canvas 606 194 285 418 10;
#X obj 138 131 text define \$0-set2;
#X msg 138 106 clear;
#X obj 55 125 vs.iter;
#X obj 55 89 t a b b;
#X obj 55 234 spigot;
#X obj 82 209 < 0;
#X obj 55 157 t a a;
#X obj 55 338 list prepend;
#X obj 152 338 list;
#X obj 28 362 list;
#X obj 28 47 t b a;
#X obj 82 187 text search \$0-set2 0;
#X obj 105 287 f 0;
#X obj 133 288 + 1;
#X obj 120 262 f 0;
#X obj 74 310 text set \$0-set2;
#X obj 55 265 t a a b;
#X obj 28 24 inlet;
#X obj 28 384 outlet;
#X text 203 388 f.bianchi;
#X connect 1 0 0 0;
#X connect 2 0 6 0;
#X connect 3 0 2 0;
#X connect 3 1 14 0;
#X connect 3 1 7 1;
#X connect 3 2 1 0;
#X connect 4 0 16 0;
#X connect 5 0 4 1;
#X connect 6 0 4 0;
#X connect 6 1 11 0;
#X connect 7 0 8 0;
#X connect 7 0 9 1;
#X connect 8 0 7 1;
#X connect 9 0 18 0;
#X connect 10 0 9 0;
#X connect 10 1 3 0;
#X connect 11 0 5 0;
#X connect 12 0 13 0;
#X connect 12 0 15 1;
#X connect 13 0 12 1;
#X connect 14 0 12 1;
#X connect 16 0 7 0;
#X connect 16 1 15 0;
#X connect 16 2 12 0;
#X connect 17 0 10 0;
