#N canvas 345 361 291 255 10;
#X obj 44 128 until;
#X obj 44 173 list;
#X obj 77 173 list;
#X obj 23 198 list;
#X obj 44 104 f \$1;
#X obj 23 220 outlet;
#X obj 23 19 inlet;
#X obj 44 150 list;
#X obj 137 19 inlet;
#X obj 23 79 t b b b a;
#X obj 185 43 loadbang;
#X obj 185 65 f \$1;
#X obj 185 87 vs.defaulter 1;
#X text 208 222 f.bianchi;
#X connect 0 0 7 0;
#X connect 1 0 2 0;
#X connect 1 0 3 1;
#X connect 2 0 1 1;
#X connect 3 0 5 0;
#X connect 4 0 0 0;
#X connect 6 0 9 0;
#X connect 7 0 1 0;
#X connect 8 0 4 1;
#X connect 9 0 3 0;
#X connect 9 1 4 0;
#X connect 9 2 1 1;
#X connect 9 3 7 1;
#X connect 10 0 11 0;
#X connect 11 0 12 0;
#X connect 12 0 4 1;
