#N canvas 237 244 276 218 10;
#X obj 87 65 inlet~;
#X obj 87 90 vs.argsig~ \$1;
#X obj 87 119 phasor~;
#X obj 36 154 samphold~;
#X obj 36 102 noise~;
#X obj 187 102 vs.random;
#X obj 187 75 loadbang;
#X obj 126 23 inlet;
#X obj 36 179 outlet~;
#X text 176 182 f.bianchi;
#X connect 0 0 1 0;
#X connect 1 0 2 0;
#X connect 2 0 3 1;
#X connect 3 0 8 0;
#X connect 4 0 3 0;
#X connect 5 0 2 1;
#X connect 6 0 5 0;
#X connect 7 0 2 1;
