#N canvas 659 130 291 432 10;
#X obj 19 20 inlet;
#X obj 46 333 list trim;
#X msg 19 363 normalize;
#X obj 19 62 array get \$1;
#X obj 46 401 s \$2;
#X obj 19 153 t b l;
#X obj 19 105 vs.change;
#X obj 133 12 loadbang;
#X obj 187 161 != 0;
#X obj 160 110 f \$3;
#X obj 145 218 f;
#X obj 160 135 t f f;
#X obj 187 186 sel 1 0;
#X obj 145 261 list prepend sinesum;
#X obj 145 291 list trim;
#X obj 46 308 list prepend;
#X obj 206 216 f 512;
#X obj 133 37 t b b;
#X text 210 404 f.bianchi;
#X connect 0 0 3 0;
#X connect 1 0 4 0;
#X connect 2 0 4 0;
#X connect 3 0 6 0;
#X connect 5 0 2 0;
#X connect 5 1 15 0;
#X connect 6 0 5 0;
#X connect 7 0 17 0;
#X connect 8 0 12 0;
#X connect 9 0 11 0;
#X connect 10 0 13 0;
#X connect 11 0 10 1;
#X connect 11 1 8 0;
#X connect 12 0 10 0;
#X connect 12 1 16 0;
#X connect 13 0 14 0;
#X connect 14 0 15 1;
#X connect 15 0 1 0;
#X connect 16 0 13 0;
#X connect 17 0 3 0;
#X connect 17 1 9 0;
