#N canvas 192 476 331 256 10;
#X obj 22 19 noise~;
#X obj 22 227 outlet~;
#X obj 22 192 expr~ $v1 > $v2;
#X obj 239 22 loadbang;
#X obj 239 49 samplerate~;
#X obj 239 74 * 0.5;
#X msg 239 99 1 \$1;
#X obj 239 124 /;
#X obj 109 141 *~;
#X obj 109 166 expr~ 1 - $v1;
#X obj 109 19 inlet~;
#X obj 109 44 vs.argsig~ \$1;
#X text 185 222 f.bianchi - M.Giri;
#X connect 0 0 2 0;
#X connect 2 0 1 0;
#X connect 3 0 4 0;
#X connect 4 0 5 0;
#X connect 5 0 6 0;
#X connect 6 0 7 0;
#X connect 7 0 8 1;
#X connect 8 0 9 0;
#X connect 9 0 2 1;
#X connect 10 0 11 0;
#X connect 11 0 8 0;
