#N canvas 313 70 563 511 10;
#X obj 60 177 noise~;
#X obj 60 209 samphold~;
#X obj 37 271 samphold~;
#X obj 16 378 +~ -1;
#X obj 16 428 *~ -0.5;
#X obj 184 328 *~ 0.5;
#X obj 16 453 +~;
#X obj 16 403 *~;
#X obj 16 348 vs.osc~;
#X obj 60 312 -~;
#X obj 37 239 rzero_rev~ 0;
#X obj 413 12 loadbang;
#X obj 261 134 vs.random;
#X obj 184 160 phasor~ \$1;
#X obj 184 40 inlet~;
#X obj 16 478 outlet~;
#X obj 413 39 f \$1;
#X obj 184 65 expr~ if ($v1 <= 0 \, $v2 \, $v1);
#X obj 515 140 inlet;
#X text 362 451 f.bianchi - M.Giri;
#X connect 0 0 1 0;
#X connect 1 0 9 0;
#X connect 1 0 10 0;
#X connect 2 0 6 1;
#X connect 2 0 9 1;
#X connect 3 0 7 0;
#X connect 4 0 6 0;
#X connect 5 0 8 1;
#X connect 6 0 15 0;
#X connect 7 0 4 0;
#X connect 8 0 3 0;
#X connect 9 0 7 1;
#X connect 10 0 2 0;
#X connect 11 0 12 0;
#X connect 11 0 16 0;
#X connect 12 0 13 1;
#X connect 13 0 5 0;
#X connect 13 0 2 1;
#X connect 13 0 1 1;
#X connect 14 0 17 0;
#X connect 16 0 17 1;
#X connect 17 0 13 0;
#X connect 18 0 13 1;
