#N canvas 69 22 1094 707 10;
#X declare -path ./;
#X obj 284 520 switch~;
#X obj 66 257 vs.translate samp hz;
#X obj 46 508 *~, f 8;
#X msg 139 484 0;
#X floatatom 296 87 5 0 0 0 - - -, f 5;
#X obj 66 298 * 1;
#X msg 284 347 1;
#X obj 139 451 spigot;
#X obj 27 342 vs.gate;
#X obj 46 376 * -1;
#X obj 279 108 t b f f;
#X obj 318 165 expr if($f1>0 \, 1 \, 2);
#X obj 263 260 loadbang;
#X obj 263 282 f 1;
#X obj 46 630 outlet~;
#X obj 172 90 vs.!- 1;
#X obj 66 12 inlet;
#X obj 66 140 t b b b, f 13;
#X obj 46 411 vs.phasor~;
#X msg 103 377 0;
#X obj 292 131 abs;
#X obj 153 630 outlet~;
#X obj 823 609 array define \$0-ch1;
#X obj 823 629 array define \$0-ch2;
#X obj 386 219 openpanel;
#X obj 386 196 route bang;
#X obj 386 248 list append \$0-ch1 \$0-ch2;
#X obj 386 270 list prepend read -resize;
#X obj 386 292 list trim;
#X obj 386 314 soundfiler;
#X obj 46 605 tabread4~ \$0-ch1;
#X obj 153 605 tabread4~ \$0-ch2;
#X obj 975 544 declare -path ./;
#X obj 493 99 openpanel;
#X obj 493 72 route bang;
#X obj 493 128 list append \$0-ch1 \$0-ch2;
#X obj 493 172 list trim;
#X obj 493 194 soundfiler;
#X obj 493 150 list prepend read;
#X obj 585 610 list append \$0-ch1 \$0-ch2;
#X obj 585 632 list prepend read -resize;
#X obj 585 654 list trim;
#X obj 585 676 soundfiler;
#X obj 522 532 loadbang;
#X obj 522 584 route float;
#X obj 522 557 list append \$1;
#X obj 600 74 t b;
#X obj 600 100 f 0;
#X obj 66 228 t f f;
#X obj 629 282 inlet from;
#X obj 629 307 vs.translate ms samp;
#X obj 783 420 expr if($f1 == 0 \, $f2 \, $f1);
#X obj 66 195 f;
#X obj 46 550 +~ 0;
#X obj 923 251 inlet howlong;
#X obj 629 349 v \$0-offset;
#X obj 942 340 array size \$0-ch1;
#X obj 942 390 -;
#X obj 962 367 v \$0-offset;
#X obj 923 303 t f b b;
#X obj 923 277 vs.translate ms samp;
#X obj 814 68 t l l;
#X obj 841 93 list length;
#X obj 841 115 expr if($f1 > 1 \, 2 \, 1);
#X obj 775 142 vs.gate;
#X obj 794 192 unpack 0 0;
#X obj 783 273 f;
#X obj 775 167 list append 0;
#X obj 795 214 swap;
#X obj 707 69 sel 0;
#X obj 734 90 sel 1;
#X obj 66 43 route bang loop speed replace open stop float frag, f
143;
#X obj 283 629 outlet~;
#X text 1003 649 f.bianchi;
#X connect 1 0 5 0;
#X connect 2 0 53 0;
#X connect 3 0 0 0;
#X connect 4 0 10 0;
#X connect 5 0 8 1;
#X connect 6 0 0 0;
#X connect 7 0 3 0;
#X connect 8 0 18 0;
#X connect 8 1 9 0;
#X connect 9 0 18 0;
#X connect 10 0 5 0;
#X connect 10 1 20 0;
#X connect 10 2 11 0;
#X connect 11 0 8 0;
#X connect 12 0 13 0;
#X connect 13 0 8 0;
#X connect 13 0 7 1;
#X connect 15 0 7 1;
#X connect 16 0 71 0;
#X connect 17 0 52 0;
#X connect 17 1 19 0;
#X connect 17 2 6 0;
#X connect 18 0 2 0;
#X connect 18 0 72 0;
#X connect 18 1 7 0;
#X connect 18 1 52 0;
#X connect 19 0 18 1;
#X connect 20 0 5 1;
#X connect 24 0 26 0;
#X connect 25 0 24 0;
#X connect 25 1 26 0;
#X connect 26 0 27 0;
#X connect 27 0 28 0;
#X connect 28 0 29 0;
#X connect 29 0 66 0;
#X connect 30 0 14 0;
#X connect 31 0 21 0;
#X connect 33 0 35 0;
#X connect 34 0 33 0;
#X connect 34 1 35 0;
#X connect 35 0 38 0;
#X connect 36 0 37 0;
#X connect 37 0 66 0;
#X connect 38 0 36 0;
#X connect 39 0 40 0;
#X connect 40 0 41 0;
#X connect 41 0 42 0;
#X connect 42 0 66 0;
#X connect 43 0 45 0;
#X connect 44 1 39 0;
#X connect 45 0 44 0;
#X connect 46 0 47 0;
#X connect 47 0 0 0;
#X connect 48 0 1 0;
#X connect 48 1 2 1;
#X connect 49 0 50 0;
#X connect 50 0 53 1;
#X connect 50 0 55 0;
#X connect 51 0 52 1;
#X connect 52 0 48 0;
#X connect 53 0 30 0;
#X connect 53 0 31 0;
#X connect 54 0 60 0;
#X connect 56 0 57 0;
#X connect 57 0 51 1;
#X connect 58 0 57 1;
#X connect 59 0 51 0;
#X connect 59 1 56 0;
#X connect 59 2 58 0;
#X connect 60 0 59 0;
#X connect 61 0 64 1;
#X connect 61 1 62 0;
#X connect 62 0 63 0;
#X connect 63 0 64 0;
#X connect 64 0 67 0;
#X connect 64 1 65 0;
#X connect 65 0 68 0;
#X connect 65 1 68 1;
#X connect 66 0 51 0;
#X connect 67 0 65 0;
#X connect 68 0 60 0;
#X connect 68 1 50 0;
#X connect 69 0 47 0;
#X connect 69 1 70 0;
#X connect 70 0 17 0;
#X connect 71 0 17 0;
#X connect 71 1 15 0;
#X connect 71 2 10 0;
#X connect 71 3 25 0;
#X connect 71 4 34 0;
#X connect 71 5 46 0;
#X connect 71 6 69 0;
#X connect 71 7 61 0;
