#N canvas 151 348 276 228 10;
#X obj 19 144 osc~;
#X obj 19 194 throw~ \$1-snd;
#X obj 19 9 r \$1-frq-\$2;
#X obj 109 88 r \$1-amp-\$2;
#X obj 19 87 line~;
#X obj 19 115 mtof~;
#X obj 19 60 list \$3;
#X obj 109 149 line~;
#X obj 109 123 list \$4;
#X obj 19 34 ftom;
#X obj 207 73 loadbang;
#X obj 207 98 f 1;
#X obj 19 169 *~;
#X obj 162 46 r \$1-ampslide-\$2;
#X obj 114 8 r \$1-freqslide-\$2;
#X text 194 192 f.bianchi;
#X connect 0 0 12 0;
#X connect 2 0 9 0;
#X connect 3 0 8 0;
#X connect 4 0 5 0;
#X connect 5 0 0 0;
#X connect 6 0 4 0;
#X connect 7 0 12 1;
#X connect 8 0 7 0;
#X connect 9 0 6 0;
#X connect 10 0 11 0;
#X connect 11 0 8 0;
#X connect 12 0 1 0;
#X connect 13 0 8 1;
#X connect 14 0 6 1;
