#N canvas 113 168 450 300 12;
#X obj 16 19 inlet~;
#X obj 81 19 inlet~;
#X obj 198 19 inlet~;
#X obj 271 19 inlet~;
#X obj 388 19 inlet~;
#X obj 16 60 -~;
#X obj 271 83 expr~ $v2 - $v1;
#X obj 16 103 *~;
#X obj 16 170 /~;
#X obj 16 225 +~;
#X obj 16 260 outlet~;
#X obj 81 150 expr~ $v2 - $v1;
#X text 280 265 f.bianchi - M.Giri;
#X connect 0 0 5 0;
#X connect 1 0 5 1;
#X connect 1 0 11 0;
#X connect 2 0 11 1;
#X connect 3 0 6 0;
#X connect 3 0 9 1;
#X connect 4 0 6 1;
#X connect 5 0 7 0;
#X connect 6 0 7 1;
#X connect 7 0 8 0;
#X connect 8 0 9 0;
#X connect 9 0 10 0;
#X connect 11 0 8 1;
