#N canvas 357 309 424 298 10;
#X floatatom 314 90 5 0 0 2 start - -, f 5;
#X floatatom 366 90 5 0 0 2 step - -, f 5;
#X floatatom 263 90 5 0 0 2 len - -, f 5;
#X obj 16 23 inlet;
#X obj 16 48 route bang float;
#X obj 62 75 t b f;
#X obj 263 27 inlet;
#X obj 314 27 inlet;
#X obj 366 27 inlet;
#X obj 67 261 outlet;
#X obj 16 137 vs.uzi \$1;
#X obj 67 236 vs.group \$1;
#X obj 67 197 + \$2;
#X obj 67 162 * \$3;
#X text 272 7 length \, start \, step;
#X text 335 269 f.bianchi;
#X connect 0 0 12 1;
#X connect 1 0 13 1;
#X connect 2 0 10 1;
#X connect 2 0 11 1;
#X connect 3 0 4 0;
#X connect 4 0 10 0;
#X connect 4 1 5 0;
#X connect 5 0 10 0;
#X connect 5 1 10 1;
#X connect 5 1 11 1;
#X connect 6 0 2 0;
#X connect 7 0 0 0;
#X connect 8 0 1 0;
#X connect 10 2 13 0;
#X connect 11 0 9 0;
#X connect 12 0 11 0;
#X connect 13 0 12 0;
