#N canvas 170 270 542 371 10;
#X obj 140 42 inlet;
#X obj 140 315 outlet;
#X obj 225 43 inlet;
#X obj 140 260 spigot;
#X obj 225 262 spigot;
#X obj 173 234 == 1;
#X obj 258 236 == 2;
#X obj 325 264 spigot;
#X obj 358 238 == 3;
#X obj 325 45 inlet;
#X obj 51 41 inlet;
#X obj 488 179 - 3;
#X obj 488 299 outlet;
#X obj 488 201 max 0;
#X obj 51 97 int;
#X text 414 342 f.bianchi - M.Giri;
#X connect 0 0 3 0;
#X connect 2 0 4 0;
#X connect 3 0 1 0;
#X connect 4 0 1 0;
#X connect 5 0 3 1;
#X connect 6 0 4 1;
#X connect 7 0 1 0;
#X connect 8 0 7 1;
#X connect 9 0 7 0;
#X connect 10 0 14 0;
#X connect 11 0 13 0;
#X connect 13 0 12 0;
#X connect 14 0 5 0;
#X connect 14 0 6 0;
#X connect 14 0 8 0;
#X connect 14 0 11 0;
