#N canvas 0 22 187 134 10;
#X obj 99 14 loadbang;
#X obj 99 39 samplerate~;
#X obj 99 64 / 1000;
#X obj 11 14 inlet~ samps;
#X obj 11 81 /~ 44.1;
#X obj 11 103 outlet~ ms;
#X text 107 109 f.bianchi;
#X connect 0 0 1 0;
#X connect 1 0 2 0;
#X connect 2 0 4 1;
#X connect 3 0 4 0;
#X connect 4 0 5 0;
