#N canvas 91 50 657 541 10;
#X obj 11 440 array define \$0-inlist;
#X obj 168 77 list length;
#X obj 272 120 array size \$0-inlist;
#X obj 38 124 vs.uzi;
#X obj 149 282 array min \$0-inlist;
#X obj 148 141 array set \$0-inlist;
#X obj 158 220 bng 15 250 50 0 empty empty empty 17 7 0 10 -262144
-1 -1;
#X obj 11 464 array define \$0-outlist;
#X obj 272 140 array size \$0-outlist;
#X obj 122 313 array max \$0-inlist;
#X obj 122 349 array set \$0-inlist;
#X obj 129 50 t b l l;
#X obj 13 401 array set \$0-outlist;
#X obj 122 260 t b b;
#X obj 512 379 array get \$0-outlist;
#X obj 129 9 inlet;
#X obj 473 502 outlet;
#X obj 454 64 inlet;
#X obj 473 425 vs.gate;
#X obj 454 109 sel 0 1;
#X obj 454 363 f 1;
#X obj 473 383 f 2;
#X obj 503 64 loadbang;
#X obj 503 86 f \$1;
#X obj 492 471 vs.rev;
#X obj 493 135 t b;
#X text 576 509 f.bianchi;
#X connect 1 0 2 0;
#X connect 1 0 3 1;
#X connect 1 0 8 0;
#X connect 3 0 13 0;
#X connect 3 1 14 0;
#X connect 3 2 12 1;
#X connect 4 0 12 0;
#X connect 4 1 10 1;
#X connect 6 0 13 0;
#X connect 9 0 10 0;
#X connect 11 0 3 0;
#X connect 11 1 5 0;
#X connect 11 2 1 0;
#X connect 13 0 9 0;
#X connect 13 1 4 0;
#X connect 14 0 18 1;
#X connect 15 0 11 0;
#X connect 17 0 19 0;
#X connect 18 0 16 0;
#X connect 18 1 24 0;
#X connect 19 0 20 0;
#X connect 19 1 21 0;
#X connect 19 2 25 0;
#X connect 20 0 18 0;
#X connect 21 0 18 0;
#X connect 22 0 23 0;
#X connect 23 0 19 0;
#X connect 24 0 16 0;
#X connect 25 0 20 0;
