#N canvas 343 295 356 336 10;
#X obj 60 230 vs.urn;
#X obj 99 165 list length;
#X obj 60 256 vs.lookup;
#X obj 60 182 f;
#X obj 60 281 vs.group;
#X obj 17 15 inlet;
#X obj 60 306 outlet;
#X obj 17 40 route seed bang;
#X obj 60 77 list;
#X obj 159 60 inlet;
#X text 197 61 set list without output;
#X obj 60 204 until;
#X obj 60 131 t b a a;
#X text 270 310 f.bianchi;
#X connect 0 0 2 0;
#X connect 1 0 0 1;
#X connect 1 0 3 1;
#X connect 1 0 4 1;
#X connect 2 0 4 0;
#X connect 3 0 11 0;
#X connect 4 0 6 0;
#X connect 5 0 7 0;
#X connect 7 1 8 0;
#X connect 7 2 8 1;
#X connect 7 2 12 0;
#X connect 8 0 12 0;
#X connect 9 0 8 1;
#X connect 11 0 0 0;
#X connect 12 0 3 0;
#X connect 12 1 2 1;
#X connect 12 2 1 0;
