#N canvas 372 265 180 152 10;
#X obj 12 17 inlet samps;
#X obj 12 84 / 44.1;
#X obj 90 17 loadbang;
#X obj 90 42 samplerate~;
#X obj 90 67 / 1000;
#X obj 12 106 outlet ms;
#X text 102 124 f.bianchi;
#X connect 0 0 1 0;
#X connect 1 0 5 0;
#X connect 2 0 3 0;
#X connect 3 0 4 0;
#X connect 4 0 1 1;
