#N canvas 0 22 520 294 10;
#X obj 122 46 inlet~;
#X obj 269 49 inlet~;
#X obj 122 225 outlet~;
#X obj 122 170 vs.selout~ 1;
#X obj 39 46 inlet~;
#X obj 457 219 outlet~;
#X obj 457 155 -~ 2;
#X obj 457 188 max~ 0;
#X obj 269 170 vs.selout~ 2;
#X text 389 255 f.bianchi - M.Giri;
#X connect 0 0 3 0;
#X connect 1 0 8 0;
#X connect 3 0 2 0;
#X connect 4 0 3 1;
#X connect 4 0 6 0;
#X connect 4 0 8 1;
#X connect 6 0 7 0;
#X connect 7 0 5 0;
#X connect 8 0 2 0;
