#N canvas 568 404 298 233 10;
#X obj 12 203 outlet~;
#X obj 12 146 *~ 2;
#X obj 12 174 -~ 1;
#X obj 12 118 expr~ $v1 <= $f2;
#X obj 12 90 phasor~;
#X obj 12 12 inlet~;
#X obj 125 12 inlet;
#X obj 185 12 loadbang;
#X obj 185 61 vs.defaulter 0.5;
#X obj 185 101 clip 0.001 0.999;
#X obj 12 34 vs.argsig~ \$1;
#X obj 185 36 f \$2;
#X text 217 200 f.bianchi;
#X connect 1 0 2 0;
#X connect 2 0 0 0;
#X connect 3 0 1 0;
#X connect 4 0 3 0;
#X connect 5 0 10 0;
#X connect 6 0 9 0;
#X connect 7 0 11 0;
#X connect 8 0 9 0;
#X connect 9 0 3 1;
#X connect 10 0 4 0;
#X connect 11 0 8 0;
