#N canvas 205 125 567 540 10;
#X floatatom 30 180 5 0 0 0 - - -, f 5;
#X obj 22 225 list prepend;
#X obj 141 226 list;
#X obj 22 256 t l l;
#X obj 115 193 bng 15 250 50 0 empty empty empty 17 7 0 10 -262144
-1 -1;
#X obj 22 286 list length;
#X obj 22 401 list;
#X obj 22 376 sel 1;
#X obj 22 426 t l l;
#X obj 22 497 list split 1;
#X obj 22 351 == \$1;
#X obj 237 201 loadbang;
#X obj 237 226 f \$1;
#X obj 237 251 vs.defaulter 5;
#X obj 451 206 list;
#X obj 402 236 t l l;
#X obj 402 262 list length;
#X obj 402 404 list;
#X obj 402 366 sel 1;
#X obj 402 429 t l l;
#X obj 402 460 list split 1;
#X obj 402 341 == \$1;
#X obj 402 205 list;
#X obj 495 427 - 1;
#X obj 495 321 abs;
#X obj 22 133 vs.gate;
#X floatatom 125 20 5 0 0 0 - - -, f 5;
#X obj 61 21 inlet;
#X obj 265 76 + 1;
#X obj 265 51 < 0;
#X obj 431 148 t b;
#X obj 238 506 outlet;
#X obj 431 43 route float bang;
#X obj 431 12 inlet;
#X obj 61 43 vs.iter;
#X text 481 515 f.bianchi;
#X connect 0 0 1 0;
#X connect 1 0 2 0;
#X connect 1 0 3 0;
#X connect 2 0 1 1;
#X connect 3 0 5 0;
#X connect 3 1 6 1;
#X connect 4 0 1 1;
#X connect 5 0 10 0;
#X connect 6 0 8 0;
#X connect 7 0 6 0;
#X connect 8 0 9 0;
#X connect 8 1 31 0;
#X connect 9 1 1 1;
#X connect 10 0 7 0;
#X connect 11 0 12 0;
#X connect 12 0 13 0;
#X connect 13 0 10 1;
#X connect 13 0 24 0;
#X connect 13 0 30 0;
#X connect 13 0 29 0;
#X connect 14 0 22 1;
#X connect 15 0 16 0;
#X connect 15 1 17 1;
#X connect 16 0 21 0;
#X connect 17 0 19 0;
#X connect 18 0 17 0;
#X connect 19 0 20 0;
#X connect 19 1 31 0;
#X connect 20 0 22 1;
#X connect 21 0 18 0;
#X connect 22 0 14 0;
#X connect 22 0 15 0;
#X connect 23 0 20 1;
#X connect 24 0 21 1;
#X connect 24 0 23 0;
#X connect 25 0 1 0;
#X connect 25 1 22 0;
#X connect 26 0 25 1;
#X connect 27 0 34 0;
#X connect 28 0 25 0;
#X connect 29 0 28 0;
#X connect 30 0 22 1;
#X connect 30 0 1 1;
#X connect 32 0 29 0;
#X connect 32 0 10 1;
#X connect 32 0 24 0;
#X connect 32 0 30 0;
#X connect 32 1 30 0;
#X connect 33 0 32 0;
#X connect 34 0 25 1;
