#N canvas 200 100 970 850 12;
#X declare -path help_examples;
#X obj 100 20 declare -path help_examples;
#X obj 15 15 cnv 15 940 60 empty empty vs.sort 20 20 0 36 -233017 -66577

0;
#X obj 75 105 cnv 15 880 140 empty \$0-canvas-description empty 20
12 0 14 -233017 -66577 0;
#X obj 555 255 cnv 15 400 360 empty \$0-canvas-outlets empty 20 12
0 14 -233017 -66577 0;
#X obj 75 255 cnv 15 400 360 empty \$0-canvas-inlets empty 20 12 0
14 -233017 -66577 0;
#X obj 75 625 cnv 15 880 120 empty \$0-canvas-args empty 20 12 0 14
-233017 -66577 0;
#X obj 75 755 cnv 15 880 80 empty \$0-canvas-see empty 20 12 0 14 -233017
-66577 0;
#X obj 15 90 cnv 15 900 40 empty \$0-description DESCRIPTION 20 20
0 14 -1 -262144 0;
#X obj 15 235 cnv 15 420 40 empty \$0-inlets INLETS 25 20 0 14 -1 -262144
0;
#X obj 496 235 cnv 15 420 40 empty \$0-outlets OUTLETS 25 20 0 14 -1
-262144 0;
#X obj 15 605 cnv 15 900 40 empty \$0-args ARGS 20 20 0 14 -1 -262144
0;
#X obj 15 735 cnv 15 900 40 empty \$0-see SEE 20 20 0 14 -1 -262144
0;
#X text 20 55 Arranges a list in numeric order;
#X text 90 140 Arranges a list in numeric order;
#X obj 50 290 cnv 15 60 15 empty empty 0 10 8 0 14 -128992 -262144
0;
#X obj 115 290 cnv 15 80 15 empty empty list 5 8 0 12 -262144 -1
0;
#X text 200 287 list to sort, f 37;
#X obj 50 333 cnv 15 60 15 empty empty 1 10 8 0 14 -128992 -262144
0;
#X obj 115 333 cnv 15 80 15 empty empty int 5 8 0 12 -262144 -1
0;
#X text 200 330 set sorting type: ascending (0) or descending (1), f 37;
#X obj 530 290 cnv 15 60 15 empty empty 0 10 8 0 14 -128992 -262144
0;
#X obj 595 290 cnv 15 80 15 empty empty list 5 8 0 12 -262144 -1
0;
#X text 680 287 sorted list, f 37;
#X text 90 650 (1) a;
#X text 90 665 (2) s;
#X text 90 680 (3) c;
#X text 90 695 (4) e;
#X text 90 710 (5) n;
#X text 90 725 (6) d;
#X text 90 740 (7) i;
#X text 90 755 (8) n;
#X text 90 770 (9) g;
#X text 90 785 (10)  ;
#X text 90 800 (11) (;
#X text 90 815 (12) 0;
#X text 90 830 (13) );
#X text 90 845 (14)  ;
#X text 90 860 (15) o;
#X text 90 875 (16) r;
#X text 90 890 (17)  ;
#X text 90 905 (18) d;
#X text 90 920 (19) e;
#X text 90 935 (20) s;
#X text 90 950 (21) c;
#X text 90 965 (22) e;
#X text 90 980 (23) n;
#X text 90 995 (24) d;
#X text 90 1010 (25) i;
#X text 90 1025 (26) n;
#X text 90 1040 (27) g;
#X text 90 1055 (28)  ;
#X text 90 1070 (29) (;
#X text 90 1085 (30) 1;
#X text 90 1100 (31) );
#X text 90 1115 (32)  ;
#X text 90 1130 (33) s;
#X text 90 1145 (34) o;
#X text 90 1160 (35) r;
#X text 90 1175 (36) t;
#X text 90 1190 (37) i;
#X text 90 1205 (38) n;
#X text 90 1220 (39) g;
#X text 90 1235 (40)  ;
#X text 90 1250 (41) [;
#X text 90 1265 (42) i;
#X text 90 1280 (43) n;
#X text 90 1295 (44) t;
#X text 90 1310 (45) ];
#X obj 100 800 vs.sort-example;
#X obj 300 800 pddp/pddplink vs.__objects_list__.pd -text VIRTUAL SOUND LIBRARY object list;
#N canvas 1184 100 150 390 see_also 0;
#X obj 10 10 list;
#X obj 10 35 vs.ecils;
#X obj 10 60 vs.group;
#X obj 10 85 vs.lace;
#X obj 10 110 vs.listloop;
#X obj 10 135 vs.mirrorlist;
#X obj 10 160 vs.removedup;
#X obj 10 185 vs.repeat;
#X obj 10 210 vs.rev;
#X obj 10 235 vs.rotate;
#X obj 10 260 vs.sect;
#X obj 10 285 vs.sort;
#X obj 10 310 vs.stream;
#X restore 845 795 pd see_also;
