#N canvas 167 350 512 308 10;
#X obj 250 124 vs.iter;
#X obj 250 156 t a b;
#X obj 281 179 f 0;
#X obj 309 180 + 1;
#X obj 296 154 f 0;
#X obj 41 85 vs.iter;
#X obj 41 107 t a a;
#X obj 68 157 > -1;
#X obj 41 185 spigot;
#X obj 125 208 list;
#X obj 13 232 list;
#X obj 41 207 list prepend;
#X obj 13 59 t b a b, f 10;
#X obj 358 206 text define \$0-set2;
#X obj 68 135 text search \$0-set2 0;
#X obj 250 103 t a b b;
#X msg 358 120 clear;
#X obj 250 206 text set \$0-set2;
#X obj 13 13 inlet list1;
#X obj 250 12 inlet list2;
#X obj 13 255 vs.removedup;
#X obj 13 276 outlet;
#X text 424 279 f.bianchi;
#X connect 0 0 1 0;
#X connect 1 0 17 0;
#X connect 1 1 2 0;
#X connect 2 0 3 0;
#X connect 2 0 17 1;
#X connect 3 0 2 1;
#X connect 4 0 2 1;
#X connect 5 0 6 0;
#X connect 6 0 8 0;
#X connect 6 1 14 0;
#X connect 7 0 8 1;
#X connect 8 0 11 0;
#X connect 9 0 11 1;
#X connect 10 0 20 0;
#X connect 11 0 9 0;
#X connect 11 0 10 1;
#X connect 12 0 10 0;
#X connect 12 1 5 0;
#X connect 12 2 11 1;
#X connect 14 0 7 0;
#X connect 15 0 0 0;
#X connect 15 1 4 0;
#X connect 15 2 16 0;
#X connect 16 0 13 0;
#X connect 18 0 12 0;
#X connect 19 0 15 0;
#X connect 20 0 21 0;
