#N canvas 251 305 730 281 10;
#X obj 122 46 inlet~;
#X obj 269 49 inlet~;
#X obj 122 225 outlet~;
#X obj 398 46 inlet~;
#X obj 545 49 inlet~;
#X obj 545 170 vs.selout~ 4;
#X obj 39 46 inlet~;
#X obj 662 201 outlet~;
#X obj 662 170 max~ 0;
#X obj 662 142 -~ 4;
#X obj 122 170 vs.selout~ 1;
#X obj 269 170 vs.selout~ 2;
#X obj 398 170 vs.selout~ 3;
#X text 595 239 f.bianchi - M.Giri;
#X connect 0 0 10 0;
#X connect 1 0 11 0;
#X connect 3 0 12 0;
#X connect 4 0 5 0;
#X connect 5 0 2 0;
#X connect 6 0 5 1;
#X connect 6 0 9 0;
#X connect 6 0 10 1;
#X connect 6 0 11 1;
#X connect 6 0 12 1;
#X connect 8 0 7 0;
#X connect 9 0 8 0;
#X connect 10 0 2 0;
#X connect 11 0 2 0;
#X connect 12 0 2 0;
