#N canvas 38 23 1145 684 10;
#X obj 45 1177 namecanvas \$0-this;
#N canvas 334 168 581 258 (subpatch) 0;
#X array \$0-scope 256 float 0;
#X obj 186 154 namecanvas \$0-inside;
#X coords 0 1 255 -1 200 120 2 5 5;
#X restore 20 33 graph;
#X obj 20 710 inlet~ sig;
#X obj 867 720 inlet float;
#X obj 20 900 tabwrite~ \$0-scope;
#X obj 867 922 pow, f 5;
#X obj 867 897 f 2;
#X obj 867 872 t b f;
#X obj 867 949 s \$0-block-size;
#X obj 867 846 + 8;
#X obj 565 775 block~ 64 1;
#X msg 565 749 set \$1 1;
#X obj 565 724 r \$0-block-size;
#X obj 867 770 int;
#X msg 238 739 resize \$1;
#X obj 238 710 r \$0-block-size;
#X obj 238 769 send \$0-scope;
#X obj 37 816 loadbang;
#X obj 37 838 f 1;
#X obj 113 817 r pd;
#X obj 113 839 route dsp;
#X obj 867 795 clip 0 7;
#X obj 241 1054 t l l;
#X obj 241 1030 vs.pak;
#X floatatom 241 1002 5 0 0 0 - - -, f 5;
#X floatatom 381 1013 5 0 0 0 - - -, f 5;
#X obj 241 844 loadbang;
#X msg 241 1171 coords 0 -1 1 1 \$1 \$2 2 20 33;
#X obj 241 926 vs.defaulter 200;
#X obj 381 926 vs.defaulter 120;
#X obj 492 1091 unpack;
#X obj 567 1066 r \$0-block-size;
#X obj 567 1092 - 1;
#X obj 241 976 clip 50 800;
#X obj 381 976 clip 30 600;
#X obj 492 1167 s \$0-inside;
#X obj 241 1201 s \$0-this;
#X obj 908 771 s \$0-xdim;
#X obj 971 770 s \$0-ydim;
#X obj 281 951 r \$0-xdim;
#X obj 421 951 r \$0-ydim;
#X obj 37 868 metro 150;
#X obj 20 773 clip~ -1 1;
#X obj 492 1115 vs.pak3 0 0 0;
#X obj 867 745 route float xdim ydim maxmin;
#X obj 1037 769 s \$0-maxmin;
#X obj 614 844 r \$0-maxmin;
#X obj 101 701 r \$0-maxmin;
#X obj 101 723 unpack;
#X obj 101 745 swap;
#X msg 492 1140 coords 0 1 \$3 -1 \$1 \$2 2 5 5;
#X msg 614 941 bounds 0 \$1 \$3 \$2;
#X obj 695 862 r \$0-block-size;
#X obj 695 888 - 1;
#X obj 614 866 unpack;
#X obj 614 974 s \$0-scope;
#X obj 804 770 loadbang;
#X obj 614 917 vs.pak3 1 -1 0;
#X obj 241 899 f \$2;
#X obj 381 899 f \$3;
#X obj 804 794 f \$1;
#X text 1006 1172 f.bianchi;
#X connect 2 0 42 0;
#X connect 3 0 44 0;
#X connect 5 0 8 0;
#X connect 6 0 5 0;
#X connect 7 0 6 0;
#X connect 7 1 5 1;
#X connect 9 0 7 0;
#X connect 11 0 10 0;
#X connect 12 0 11 0;
#X connect 13 0 21 0;
#X connect 14 0 16 0;
#X connect 15 0 14 0;
#X connect 17 0 18 0;
#X connect 18 0 41 0;
#X connect 19 0 20 0;
#X connect 20 0 41 0;
#X connect 21 0 9 0;
#X connect 22 0 27 0;
#X connect 22 1 30 0;
#X connect 23 0 22 0;
#X connect 24 0 23 0;
#X connect 25 0 23 1;
#X connect 26 0 58 0;
#X connect 26 0 59 0;
#X connect 27 0 36 0;
#X connect 28 0 33 0;
#X connect 29 0 34 0;
#X connect 30 0 43 0;
#X connect 30 1 43 1;
#X connect 31 0 32 0;
#X connect 32 0 43 2;
#X connect 33 0 24 0;
#X connect 34 0 25 0;
#X connect 39 0 33 0;
#X connect 40 0 34 0;
#X connect 41 0 4 0;
#X connect 42 0 4 0;
#X connect 43 0 50 0;
#X connect 44 0 13 0;
#X connect 44 1 37 0;
#X connect 44 2 38 0;
#X connect 44 3 45 0;
#X connect 46 0 54 0;
#X connect 47 0 48 0;
#X connect 48 0 49 0;
#X connect 48 1 49 1;
#X connect 49 0 42 1;
#X connect 49 1 42 2;
#X connect 50 0 35 0;
#X connect 51 0 55 0;
#X connect 52 0 53 0;
#X connect 53 0 57 2;
#X connect 54 0 57 0;
#X connect 54 1 57 1;
#X connect 56 0 60 0;
#X connect 57 0 51 0;
#X connect 58 0 28 0;
#X connect 59 0 29 0;
#X connect 60 0 21 0;
#X coords 0 -1 1 1 200 120 2 20 33;
