#N canvas 191 66 896 614 10;
#X text 39 386 ms -> samp;
#X floatatom 54 412 5 0 0 0 - - -, f 5;
#X obj 54 431 * 44.1;
#X floatatom 54 453 5 0 0 0 - - -, f 5;
#X floatatom 154 412 5 0 0 0 - - -, f 5;
#X floatatom 154 453 5 0 0 0 - - -, f 5;
#X text 139 386 ms -> hz;
#X obj 154 431 expr 1000 / $f1;
#X text 289 386 samp -> ms;
#X floatatom 299 408 5 0 0 0 - - -, f 5;
#X floatatom 299 449 5 0 0 0 - - -, f 5;
#X obj 299 427 / 44.1;
#X text 399 386 samp -> hz;
#X floatatom 407 409 5 0 0 0 - - -, f 5;
#X obj 407 430 / 44.1;
#X floatatom 407 488 5 0 0 0 - - -, f 5;
#X obj 407 459 expr 1000 / $f1;
#X floatatom 561 407 5 0 0 0 - - -, f 5;
#X floatatom 561 448 5 0 0 0 - - -, f 5;
#X text 551 385 hz -> ms;
#X obj 561 426 expr 1000 / $f1;
#X floatatom 701 406 5 0 0 0 - - -, f 5;
#X floatatom 701 471 5 0 0 0 - - -, f 5;
#X text 691 385 hz -> samp;
#X obj 701 448 * 44.1;
#X obj 701 426 expr 1000 / $f1;
#X obj 439 130 route ms samp hz;
#X obj 439 6 loadbang;
#X obj 559 130 route ms samp hz;
#X obj 439 152 f 1;
#X obj 470 152 f 3;
#X obj 209 130 inlet;
#X obj 559 152 f 1;
#X obj 621 152 f 7;
#X obj 501 178 +;
#X obj 590 152 f 4;
#X obj 501 152 f 5;
#X msg 501 254 1;
#X msg 536 254 2;
#X msg 572 254 3;
#X msg 607 254 4;
#X msg 643 254 5;
#X obj 501 201 sel 5 8 4 10 6 9, f 36;
#X msg 678 254 6;
#X obj 714 224 t b;
#X obj 379 587 outlet;
#X obj 809 221 loadbang;
#X obj 809 243 samplerate~;
#X obj 809 265 / 1000;
#X obj 439 73 list append \$1;
#X obj 559 73 list append \$2;
#X obj 439 109 list trim;
#X obj 559 109 list trim;
#X obj 439 28 t b b b;
#X obj 668 23 inlet;
#X obj 668 76 list split 1;
#X msg 684 53 ms samp;
#X obj 164 322 vs.gate3;
#X obj 234 322 vs.gate3;
#X text 814 584 f.bianchi;
#X connect 1 0 2 0;
#X connect 2 0 3 0;
#X connect 2 0 45 0;
#X connect 4 0 7 0;
#X connect 7 0 5 0;
#X connect 7 0 45 0;
#X connect 9 0 11 0;
#X connect 11 0 10 0;
#X connect 11 0 45 0;
#X connect 13 0 14 0;
#X connect 14 0 16 0;
#X connect 16 0 15 0;
#X connect 16 0 45 0;
#X connect 17 0 20 0;
#X connect 20 0 18 0;
#X connect 20 0 45 0;
#X connect 21 0 25 0;
#X connect 24 0 22 0;
#X connect 24 0 45 0;
#X connect 25 0 24 0;
#X connect 26 0 29 0;
#X connect 26 1 30 0;
#X connect 26 2 36 0;
#X connect 27 0 53 0;
#X connect 28 0 32 0;
#X connect 28 1 35 0;
#X connect 28 2 33 0;
#X connect 29 0 34 0;
#X connect 30 0 34 0;
#X connect 31 0 57 1;
#X connect 31 0 58 1;
#X connect 32 0 34 1;
#X connect 33 0 34 1;
#X connect 34 0 42 0;
#X connect 35 0 34 1;
#X connect 36 0 34 0;
#X connect 37 0 57 0;
#X connect 38 0 57 0;
#X connect 39 0 57 0;
#X connect 40 0 57 0;
#X connect 41 0 57 0;
#X connect 42 0 37 0;
#X connect 42 1 38 0;
#X connect 42 2 39 0;
#X connect 42 3 40 0;
#X connect 42 4 41 0;
#X connect 42 5 43 0;
#X connect 42 6 44 0;
#X connect 43 0 57 0;
#X connect 44 0 37 0;
#X connect 46 0 47 0;
#X connect 47 0 48 0;
#X connect 48 0 24 1;
#X connect 48 0 14 1;
#X connect 48 0 11 1;
#X connect 48 0 2 1;
#X connect 49 0 51 0;
#X connect 50 0 52 0;
#X connect 51 0 26 0;
#X connect 52 0 28 0;
#X connect 53 0 49 0;
#X connect 53 1 50 0;
#X connect 53 2 37 0;
#X connect 54 0 55 0;
#X connect 55 0 51 0;
#X connect 55 1 52 0;
#X connect 56 0 55 0;
#X connect 57 0 2 0;
#X connect 57 1 7 0;
#X connect 57 2 11 0;
#X connect 57 3 58 0;
#X connect 58 0 14 0;
#X connect 58 1 20 0;
#X connect 58 2 25 0;
