#N canvas 77 22 560 422 10;
#X obj 240 206 phasor~ 86.1328;
#X obj 214 349 tabwrite~ trap-\$0;
#X msg 327 178 0;
#X obj 240 286 -~ 1;
#X obj 240 109 samplerate~;
#X obj 214 161 t b b;
#X obj 214 14 loadbang;
#X obj 214 69 t b b b;
#X obj 358 89 f \$1;
#X obj 240 234 expr~ if ($v1 < $f2 \, $v1 / $f2 \, 1) \; if ($v1 >
$f3 \, (1 - $v1) / (1 - $f3) \, 1);
#X obj 25 118 inlet~;
#X obj 25 225 outlet~;
#X obj 25 198 tabread4~ trap-\$0;
#X obj 477 169 vs.!- 1;
#X obj 358 119 expr if ($f1 <= 0 \, 0.001 \, $f1);
#X obj 358 144 clip 0 0.5;
#X obj 352 14 inlet;
#X obj 352 37 t b f;
#X obj 25 168 +~ 1;
#X msg 214 313 start 1;
#X obj 240 134 / 1024;
#X obj 213 386 array define trap-\$0 1027;
#X obj 25 143 *~ 1024;
#X text 483 396 f.bianchi;
#X connect 0 0 9 0;
#X connect 2 0 0 1;
#X connect 3 0 1 0;
#X connect 4 0 20 0;
#X connect 5 0 19 0;
#X connect 5 1 2 0;
#X connect 6 0 7 0;
#X connect 7 0 5 0;
#X connect 7 1 4 0;
#X connect 7 2 8 0;
#X connect 8 0 14 0;
#X connect 9 0 3 0;
#X connect 9 1 3 0;
#X connect 10 0 22 0;
#X connect 12 0 11 0;
#X connect 13 0 9 2;
#X connect 14 0 15 0;
#X connect 15 0 13 0;
#X connect 15 0 9 1;
#X connect 16 0 17 0;
#X connect 17 0 7 0;
#X connect 17 1 8 1;
#X connect 18 0 12 0;
#X connect 19 0 1 0;
#X connect 20 0 0 0;
#X connect 22 0 18 0;
