#N canvas 200 100 970 850 12;
#X declare -path help_examples;
#X obj 100 20 declare -path help_examples;
#X obj 15 15 cnv 15 940 60 empty empty vs.uzi 20 20 0 36 -233017 -66577

0;
#X obj 75 105 cnv 15 880 140 empty \$0-canvas-description empty 20
12 0 14 -233017 -66577 0;
#X obj 555 255 cnv 15 400 360 empty \$0-canvas-outlets empty 20 12
0 14 -233017 -66577 0;
#X obj 75 255 cnv 15 400 360 empty \$0-canvas-inlets empty 20 12 0
14 -233017 -66577 0;
#X obj 75 625 cnv 15 880 120 empty \$0-canvas-args empty 20 12 0 14
-233017 -66577 0;
#X obj 75 755 cnv 15 880 80 empty \$0-canvas-see empty 20 12 0 14 -233017
-66577 0;
#X obj 15 90 cnv 15 900 40 empty \$0-description DESCRIPTION 20 20
0 14 -1 -262144 0;
#X obj 15 235 cnv 15 420 40 empty \$0-inlets INLETS 25 20 0 14 -1 -262144
0;
#X obj 496 235 cnv 15 420 40 empty \$0-outlets OUTLETS 25 20 0 14 -1
-262144 0;
#X obj 15 605 cnv 15 900 40 empty \$0-args ARGS 20 20 0 14 -1 -262144
0;
#X obj 15 735 cnv 15 900 40 empty \$0-see SEE 20 20 0 14 -1 -262144
0;
#X text 20 55 Sends many bang messages;
#X text 90 140 Outputs a specified number of bang messages quickly. uzi is designed for rapid-fire output of a large number of bang messages.;
#X obj 50 290 cnv 15 60 15 empty empty 0 10 8 0 14 -128992 -262144
0;
#X obj 115 290 cnv 15 80 15 empty empty bang 5 8 0 12 -262144 -1
0;
#X text 200 287 performs task, f 37;
#X obj 115 323 cnv 15 80 15 empty empty int 5 8 0 12 -262144 -1
0;
#X text 200 320 set nr of bangs and performs task, f 37;
#X obj 115 356 cnv 15 80 15 empty empty offset 5 8 0 12 -262144 -1
0;
#X text 200 353 set offset of the counter (default: 2) [int], f 37;
#X obj 50 399 cnv 15 60 15 empty empty 1 10 8 0 14 -128992 -262144
0;
#X obj 115 399 cnv 15 80 15 empty empty int 5 8 0 12 -262144 -1
0;
#X text 200 396 set nr of bangs, f 37;
#X obj 530 290 cnv 15 60 15 empty empty 0 10 8 0 14 -128992 -262144
0;
#X obj 595 290 cnv 15 80 15 empty empty bang 5 8 0 12 -262144 -1
0;
#X text 680 287 sequence of bangs, f 37;
#X obj 530 333 cnv 15 60 15 empty empty 1 10 8 0 14 -128992 -262144
0;
#X obj 595 333 cnv 15 80 15 empty empty bang 5 8 0 12 -262144 -1
0;
#X text 680 330 bang when done, f 37;
#X obj 530 376 cnv 15 60 15 empty empty 2 10 8 0 14 -128992 -262144
0;
#X obj 595 376 cnv 15 80 15 empty empty int 5 8 0 12 -262144 -1
0;
#X text 680 373 counter of bangs emitted, f 37;
#X text 90 650 (1) num of bangs [int];
#X text 90 665 (2) offset [int];
#X obj 100 800 vs.uzi-example;
#X obj 300 800 pddp/pddplink vs.__objects_list__.pd -text VIRTUAL SOUND LIBRARY object list;
#N canvas 1184 100 150 120 see_also 0;
#X obj 10 10 until;
#X obj 10 35 vs.counter;
#X obj 10 60 vs.iter;
#X obj 10 85 vs.niter;
#X restore 845 795 pd see_also;
