#N canvas 442 140 303 364 10;
#X obj 86 254 vs.choose;
#X obj 16 174 list append;
#X obj 86 281 t f f;
#X obj 35 304 vs.filter;
#X obj 16 209 t l l l;
#X obj 167 246 list length;
#X obj 167 271 == 0;
#X obj 167 296 sel 1;
#X obj 144 29 inlet;
#X obj 16 30 inlet bang;
#X obj 144 124 t b f;
#X obj 113 304 outlet;
#X obj 167 324 outlet;
#X obj 144 157 vs.series \$1 0 1;
#X obj 195 125 loadbang;
#X obj 144 99 f \$1;
#X obj 144 54 route float;
#X obj 16 55 route bang clear;
#X text 231 333 f.bianchi;
#X connect 0 0 2 0;
#X connect 1 0 4 0;
#X connect 2 0 3 1;
#X connect 2 1 11 0;
#X connect 3 0 1 1;
#X connect 4 0 5 0;
#X connect 4 1 3 0;
#X connect 4 2 0 0;
#X connect 5 0 6 0;
#X connect 6 0 7 0;
#X connect 7 0 12 0;
#X connect 8 0 16 0;
#X connect 9 0 17 0;
#X connect 10 0 13 0;
#X connect 10 1 13 1;
#X connect 13 0 1 1;
#X connect 14 0 13 0;
#X connect 15 0 10 0;
#X connect 16 0 15 0;
#X connect 17 0 1 0;
#X connect 17 1 15 0;
