#N canvas 453 394 420 258 10;
#X obj 13 18 inlet~ source;
#X obj 130 18 inlet~ gain;
#X obj 227 18 inlet~ freq;
#X obj 89 167 *~;
#X obj 322 18 inlet q;
#X obj 89 198 outlet~ filtered;
#X obj 227 167 *~;
#X obj 227 198 outlet~ filteredlp;
#X obj 89 107 vcf~ \$1;
#X text 344 237 f.bianchi;
#X connect 0 0 8 0;
#X connect 1 0 3 1;
#X connect 1 0 6 1;
#X connect 2 0 8 1;
#X connect 3 0 5 0;
#X connect 4 0 8 2;
#X connect 6 0 7 0;
#X connect 8 0 3 0;
#X connect 8 1 6 0;
