#N canvas 441 223 489 270 10;
#X obj 254 149 array set \$0-prob;
#X obj 15 78 array random \$0-prob;
#X obj 254 98 t l l;
#X obj 365 115 list length;
#X obj 254 123 vs.normsum;
#X obj 365 149 array size \$0-prob;
#X obj 111 239 array define \$0-prob 8;
#X obj 15 117 vs.lookup;
#X obj 15 18 inlet;
#X obj 15 43 route bang;
#X obj 126 18 inlet elements;
#X obj 254 19 inlet probs;
#X obj 15 152 outlet;
#X text 410 244 f.bianchi;
#X connect 1 0 7 0;
#X connect 2 0 4 0;
#X connect 2 1 3 0;
#X connect 3 0 5 0;
#X connect 4 0 0 0;
#X connect 7 0 12 0;
#X connect 8 0 9 0;
#X connect 9 0 1 0;
#X connect 10 0 7 1;
#X connect 11 0 2 0;
