#N canvas 152 331 194 367 10;
#X obj 51 107 list split 1;
#X obj 108 176 list;
#X obj 51 132 t b f f;
#X obj 30 220 -;
#X obj 30 245 list prepend;
#X obj 129 246 list;
#X obj 30 270 list split 1;
#X obj 47 319 list;
#X obj 33 42 t b l b;
#X obj 47 344 outlet;
#X obj 33 12 inlet;
#X text 119 338 f.bianchi;
#X connect 0 0 2 0;
#X connect 0 1 1 1;
#X connect 1 0 0 0;
#X connect 2 0 1 0;
#X connect 2 1 3 1;
#X connect 2 2 3 0;
#X connect 3 0 4 0;
#X connect 4 0 5 0;
#X connect 4 0 6 0;
#X connect 5 0 4 1;
#X connect 6 1 7 1;
#X connect 7 0 9 0;
#X connect 8 0 7 0;
#X connect 8 1 0 0;
#X connect 8 2 1 1;
#X connect 8 2 4 1;
#X connect 10 0 8 0;
