#N canvas 0 22 293 177 10;
#X obj 17 15 inlet~;
#X obj 105 15 inlet~;
#X obj 215 15 inlet~;
#X obj 17 101 *~;
#X obj 105 100 *~;
#X obj 215 45 clip~ 0 1;
#X obj 32 77 expr~ 1-$v1;
#X obj 105 141 outlet~;
#X text 170 148 f.bianchi - M.Giri;
#X connect 0 0 3 0;
#X connect 1 0 4 0;
#X connect 2 0 5 0;
#X connect 3 0 7 0;
#X connect 4 0 7 0;
#X connect 5 0 6 0;
#X connect 5 0 4 1;
#X connect 6 0 3 1;
